<svg xmlns="http://www.w3.org/2000/svg" width="106.31749" height="92.74737" viewBox="0 0 106.31749 92.74737"><defs><style>.a{fill:#fff;stroke:#191725;stroke-miterlimit:10;}</style></defs><path class="a" d="M120.417,83.08778a43.39113,43.39113,0,0,0,11.959-23.35355H116.40426A27.525,27.525,0,0,1,89.82283,80.12447V25.07433a27.52506,27.52506,0,0,1,26.846,21.34275,57.40473,57.40473,0,0,1,9.3132-19.04089h0l.52916-.68791c.20286-.27339.42334-.54679.635-.81138A45.86038,45.86038,0,0,0,89.84049,6.73017H71.4875V98.451s15.47788-.13228,14.90463,0a50.64585,50.64585,0,0,0,7.41705-2.06371s19.279-6.02358,26.3874-13.09669Z" transform="translate(-70.9875 -6.22131)"/><path class="a" d="M149.03572,20.32074A45.78992,45.78992,0,0,1,177.25752,6.9242c-1.57864-.13229-3.17493-.20285-4.79771-.20285A54.98847,54.98847,0,0,0,128.75129,28.267h0a54.84748,54.84748,0,0,0-11.18288,28.91853h17.93848a45.72808,45.72808,0,0,1-13.05257,27.69264h0a45.76336,45.76336,0,0,1-28.2218,13.38771c1.57866.13229,3.175.20286,4.78888.20286a55.059,55.059,0,0,0,54.86494-50.46411H135.939A45.728,45.728,0,0,1,149.03572,20.32074Z" transform="translate(-70.9875 -6.22131)"/></svg>