<svg id="Capa_1" data-name="Capa 1" xmlns="http://www.w3.org/2000/svg" width="22.44" height="19.38" viewBox="0 0 22.44 19.38">
  <title>aspas 2</title>
  <g>
    <path d="M264.9,214.79a5.35,5.35,0,1,0-5.36,5.34,5.49,5.49,0,0,0,1.75-.29c-1.2,6.88-6.57,11.32-1.59,7.66,5.52-4.05,5.2-12.54,5.2-12.7Z" transform="translate(-242.47 -209.43)"/>
    <path d="M253.16,214.79a5.35,5.35,0,1,0-5.36,5.34,5.55,5.55,0,0,0,1.76-.29c-1.2,6.88-6.57,11.32-1.59,7.66,5.52-4.05,5.2-12.54,5.2-12.7Z" transform="translate(-242.47 -209.43)"/>
  </g>
</svg>
