<svg id="Capa_1" data-name="Capa 1" xmlns="http://www.w3.org/2000/svg" width="22.44" height="19.38" viewBox="0 0 22.44 19.38">
  <title>aspas 1</title>
  <g>
    <path d="M242.81,258.37a5.34,5.34,0,1,0,5.34-5.34,5.46,5.46,0,0,0-1.73.29c1.2-6.89,6.58-11.33,1.59-7.68-5.52,4.06-5.21,12.57-5.2,12.73Z" transform="translate(-242.8 -244.33)"/>
    <path d="M254.56,258.37A5.34,5.34,0,1,0,259.9,253a5.46,5.46,0,0,0-1.73.29c1.2-6.89,6.58-11.33,1.59-7.68-5.52,4.06-5.21,12.57-5.2,12.73Z" transform="translate(-242.8 -244.33)"/>
  </g>
</svg>
