<svg id="Capa_1" data-name="Capa 1" xmlns="http://www.w3.org/2000/svg" width="45.88" height="64.24" viewBox="0 0 45.88 64.24">
  <title>atendente</title>
  <g>
    <path d="M239.19,269.93Z" transform="translate(-233.06 -223.88)"/>
    <path d="M239.19,269.93Z" transform="translate(-233.06 -223.88)"/>
    <path d="M278.87,283.82l-.56-2.82a.94.94,0,0,0-1.85.37l.56,2.82a1.71,1.71,0,0,1-1.68,2.05h-5.48V282a.94.94,0,0,0-1.88,0v4.28H259.9l-1.22-9.44.63-1.85c.39.21,1.14,1.18,2.4.8a1.88,1.88,0,0,0,1.25-1.19c1.12-3.12,1.22-3.41,1.8-5.05l6.8,2h0c.13.05.27.09.7.21a4.63,4.63,0,0,1,3,3.49l.37,1.85a.93.93,0,0,0,1.1.74.94.94,0,0,0,.74-1.11l-.37-1.85a6.44,6.44,0,0,0-4.2-4.89l-8.3-2.45L262,265.75v-1.64a12.91,12.91,0,0,0,6.55-8.33,2.69,2.69,0,0,0,1.17.28,2.66,2.66,0,0,0,2.59-2.11,5.29,5.29,0,0,0,1.76-7.72v-4.3a18.06,18.06,0,0,0-18-18.05,17.71,17.71,0,0,0-11,3.79.94.94,0,1,0,1.15,1.48,16.15,16.15,0,0,1,26,12.78v2.34a2.64,2.64,0,0,0-1.53-1.52v-.82a14.64,14.64,0,1,0-29.27,0v.82a2.64,2.64,0,0,0-1.53,1.52v-2.16a16.34,16.34,0,0,1,3.4-10,.94.94,0,0,0-.18-1.32.93.93,0,0,0-1.31.18A18.13,18.13,0,0,0,238,242.11v4.12a5.29,5.29,0,0,0,1.76,7.72,2.65,2.65,0,0,0,1.73,2,6.63,6.63,0,0,0,1.71,3.17,7.71,7.71,0,0,0,3.08,1.94,12.14,12.14,0,0,0,.93,1,12.49,12.49,0,0,0,2.83,2.06v1.71l-2.55,1.73-8.28,2.44h0l-.06,0h0a6.44,6.44,0,0,0-4.2,4.89l-1.8,9.07a3.52,3.52,0,0,0,3.45,4.21h9.08a.94.94,0,1,0,0-1.88h-1.59V282a.94.94,0,0,0-1.88,0v4.28h-5.61a1.63,1.63,0,0,1-1.6-2l1.8-9.07a4.61,4.61,0,0,1,3-3.49l7.51-2.21c.43,1.19,1.38,3.88,1.8,5.05a1.9,1.9,0,0,0,1.26,1.19c1.1.34,1.69-.31,2.4-.81l.64,1.88-1.22,9.42h-2.09a.94.94,0,1,0,0,1.88h25.28A3.6,3.6,0,0,0,278.87,283.82Zm-6.51-36.71a.46.46,0,0,0,.07.07,3.43,3.43,0,0,1,.75,2.13,3.37,3.37,0,0,1-.82,2.21Zm-32.74.07.06-.07v4.41a3.41,3.41,0,0,1-.06-4.34Zm3.48,6.23a.77.77,0,0,1-.77.76.76.76,0,0,1-.76-.76v-8.19a.76.76,0,0,1,.76-.77.77.77,0,0,1,.77.77ZM263,268.73c-.16.47-1.65,4.63-1.85,5.19,0,0-.05.05-.07,0l-1.72-1.28,2.15-4.95ZM269,245.22a.77.77,0,0,1,.77-.77.76.76,0,0,1,.76.77v8.19a.76.76,0,0,1-.76.76.77.77,0,0,1-.77-.76Zm-25.56,10.61.15-.07a12.11,12.11,0,0,0,.37,1.21A4.88,4.88,0,0,1,243.39,255.83Zm1.46-12.59a2.18,2.18,0,0,0-.61.15,2.65,2.65,0,0,0-1-.64v-.82a12.76,12.76,0,1,1,25.51,0v.82a2.41,2.41,0,0,0-.65.36l0,0-.05,0L264,239.89a3.13,3.13,0,0,0-3.11-.5c-2.78,1.08-9.89,3.6-15.94,3.84Zm4.66,18.26h2.75a2.67,2.67,0,0,0,2.48,1.7h2.39a2.65,2.65,0,0,0,0-5.29h-2.39a2.67,2.67,0,0,0-2.48,1.7h-3.07a7.34,7.34,0,0,1-1.83-.23,11.36,11.36,0,0,1-2.36-6.9v-7.36h.12c6.3-.28,13.59-2.86,16.45-4a1.25,1.25,0,0,1,1.27.22l4,3.13a1,1,0,0,1,.19.61v7.54a11,11,0,0,1-11.12,11A10.82,10.82,0,0,1,249.51,261.5Zm4.46-.94a.76.76,0,0,1,.77-.77h2.39a.77.77,0,0,1,0,1.53h-2.39A.76.76,0,0,1,254,260.56ZM250.92,274s-.06,0-.08,0c-.44-1.26-1.43-4-1.85-5.19l1.5-1c3.63,8.22-.11-.25,2.16,4.94Zm1-7.94Zm0,.05,0-.05v-1.14a12.43,12.43,0,0,0,4.13.69,12.85,12.85,0,0,0,4.08-.66v1.16l-2.5,6h-3.18C252.48,267.4,252,266.28,251.92,266.06Zm5.75,7.86-.63,1.84h-2l-.63-1.84Zm-3.62,12.32,1.11-8.6h1.73l1.11,8.6Z" transform="translate(-233.06 -223.88)"/>
  </g>
</svg>
