<svg id="Camada_1" data-name="Camada 1" xmlns="http://www.w3.org/2000/svg" width="29.88" height="29.88" viewBox="0 0 29.88 29.88">
  <defs>
    <style>
      .cls-1 {
        fill: #fff;
      }
    </style>
  </defs>
  <title>behance</title>
  <g>
    <path class="cls-1" d="M9.67,10.43c-.53,0-.53,0-.53.53V40.31H39V10.43Zm17.49,9.65c0-.2,0-.28.26-.28h5.17c.22,0,.27.09.26.29v1.32c0,.26-.09.32-.33.31h-5c-.23,0-.33,0-.32-.31ZM23,31.2a3.49,3.49,0,0,1-2,.66H14.79c-.23,0-.29-.08-.29-.3V19.48c0-.27.09-.33.34-.33h6A3,3,0,0,1,23.74,21a3.05,3.05,0,0,1-.46,3.34,6.22,6.22,0,0,1-.71.65,3.46,3.46,0,0,1,2.07,2.35.25.25,0,0,1,0,.08.25.25,0,0,0,0-.07,1.22,1.22,0,0,0,0,.38v0a1.33,1.33,0,0,0,.05.19A4,4,0,0,1,23,31.2Zm11.44-3.78H28.2c-.36,0-.41.1-.33.41a2.45,2.45,0,0,0,1.69,2.05,1.87,1.87,0,0,0,2.25-1,3.23,3.23,0,0,0,.29-.66c0-.12.09-.16.21-.16h2.17c.24,0,.19.12.16.26A4.22,4.22,0,0,1,31,31.81a5.18,5.18,0,0,1-3.68-.71,4.48,4.48,0,0,1-1.93-3,4.73,4.73,0,0,1,.11-2.45,4.52,4.52,0,0,1,4.75-3.25,4.41,4.41,0,0,1,3.61,1.87,4.7,4.7,0,0,1,.89,3C34.73,27.45,34.57,27.42,34.43,27.42Z" transform="translate(-9.14 -10.43)"/>
    <path class="cls-1" d="M22.21,28.14a1.48,1.48,0,0,1-1.52,1.44c-1,0-2.09,0-3.14,0-.11,0-.25.05-.35,0h0c.09-.1,0-.23,0-.35,0-.75,0-1.5,0-2.25,0-.36.12-.44.46-.44h3.21A1.53,1.53,0,0,1,22.21,28.14Z" transform="translate(-9.14 -10.43)"/>
    <path class="cls-1" d="M21.58,23.26a1.27,1.27,0,0,1-.92,1.15c-.3,0-.61,0-.91,0l-1.84,0c-.4,0-.57,0-.63-.14a0,0,0,0,1,0,0,.44.44,0,0,1,0-.17V22.42c0-.3.1-.36.38-.36h3.1A1.21,1.21,0,0,1,21.58,23.26Z" transform="translate(-9.14 -10.43)"/>
    <path class="cls-1" d="M32.14,26.1c.07.22,0,.31-.22.31-.58-.05-1.19,0-1.79,0h-1.8c-.26,0-.28-.08-.23-.3a2.11,2.11,0,0,1,2.59-1.46,2.29,2.29,0,0,1,.74.39A2.17,2.17,0,0,1,32.14,26.1Z" transform="translate(-9.14 -10.43)"/>
  </g>
</svg>
