<svg id="Camada_1" data-name="Camada 1" xmlns="http://www.w3.org/2000/svg" width="50.01" height="50.01" viewBox="0 0 50.01 50.01"><defs><style>.cls-1{fill:#426bad;}.cls-2{fill:#436bab;}.cls-3{fill:#fcfcfc;}.cls-4{fill:#fbfcfc;}.cls-5{fill:#3f6db8;}.cls-6{fill:#3f6cb0;}.cls-7{fill:#1d1d1b;}</style></defs><title>behance</title><path class="cls-1" d="M0,49.82V.79C0,0,0,0,.8,0h49a.13.13,0,0,1,0,.19h0a2.62,2.62,0,0,1-1.21.13H1.61C.28.37.37.28.37,1.6V48.55a2.62,2.62,0,0,1-.12,1.21.15.15,0,0,1-.19.1Z"/><path class="cls-2" d="M0,49.82H.16a1,1,0,0,1,.63-.2H48.7a3.38,3.38,0,0,1,1,.07.74.74,0,0,1,.21.13c-.11.27-.35.15-.53.15H.57C.39,50,.15,50.09,0,49.82Z"/><path class="cls-2" d="M50,49.82h-.1a.8.8,0,0,1-.22-.62V1.28A1.56,1.56,0,0,1,49.83.16V0c.26.09.16.31.16.47V49.58A1.93,1.93,0,0,1,50,49.82Z"/><path d="M49.83.16V49.83H.16V1.05c0-.89,0-.89.89-.89Z"/><path class="cls-3" d="M26,29.33a6.54,6.54,0,0,1-2.82,5.35,5.78,5.78,0,0,1-3.31,1.1H9.56c-.38,0-.49-.13-.49-.5V15.2c0-.44.16-.54.57-.54h10a5,5,0,0,1,4.8,3.12,5.09,5.09,0,0,1-.78,5.56,8.57,8.57,0,0,1-1.18,1.07,5.7,5.7,0,0,1,3.44,3.91C26,28.67,25.82,29,26,29.33Z"/><path class="cls-3" d="M37,28.42H31.84c-.6,0-.67.16-.54.69a4.08,4.08,0,0,0,2.8,3.4,3.13,3.13,0,0,0,3.75-1.69,4.94,4.94,0,0,0,.47-1.11c0-.2.16-.26.35-.26h3.62c.39,0,.3.2.25.44a7,7,0,0,1-6.07,5.81,8.55,8.55,0,0,1-6.12-1.18,7.43,7.43,0,0,1-3.21-5.06,7.81,7.81,0,0,1,.18-4.07C28.48,22,31,19.92,35.22,20a7.28,7.28,0,0,1,6,3.11,7.84,7.84,0,0,1,1.48,4.95c0,.4-.26.34-.5.34Z"/><path class="cls-4" d="M34.88,18.93H30.65c-.39,0-.55-.09-.53-.51V16.21c0-.33.07-.47.43-.47h8.59c.37,0,.45.15.44.48v2.2c0,.43-.16.52-.55.51Z"/><path class="cls-5" d="M26,29.33a2.81,2.81,0,0,1-.13-1C26.14,28.65,25.91,29,26,29.33Z"/><path d="M19.51,26.45a2.54,2.54,0,0,1,2.16,2.76,2.47,2.47,0,0,1-2.52,2.39c-1.74-.07-3.48,0-5.22,0-.19,0-.41.08-.58-.08.08-1.53,0-3.06,0-4.59,0-.38.08-.58.5-.57C15.76,26.39,17.63,26.25,19.51,26.45Z"/><path d="M19.21,19.09a2,2,0,0,1,1.41,2A2.07,2.07,0,0,1,19.1,23c-1.52.11-3.05,0-4.58,0-1.14,0-1.14,0-1.14-1.16V19.4c0-.24,0-.46.33-.45C15.55,19.07,17.38,19,19.21,19.09Z"/><path class="cls-6" d="M19.51,26.45H14.18c-.57,0-.78.12-.76.73.05,1.24,0,2.49,0,3.73,0,.2.08.42-.08.59a27,27,0,0,1-.07-3.6c0-1.63,0-1.63,1.61-1.63l4,.05A.82.82,0,0,1,19.51,26.45Z"/><path class="cls-7" d="M19.21,19.09H14.06c-.46,0-.66.1-.63.61v2.76c0,.45.12.59.58.59H19.1a.79.79,0,0,1-.58.12H13.79c-.4,0-.54-.11-.53-.52V19.4c0-.28,0-.48.39-.47h5.09A.55.55,0,0,1,19.21,19.09Z"/><path d="M34.84,26.27h-3c-.42,0-.46-.12-.37-.5a3.48,3.48,0,0,1,4.29-2.41A3.66,3.66,0,0,1,37,24a3.61,3.61,0,0,1,1.18,1.81c.12.36,0,.52-.37.51C36.84,26.25,35.84,26.27,34.84,26.27Z"/></svg>