<svg id="Camada_1" data-name="Camada 1" xmlns="http://www.w3.org/2000/svg" width="393.9" height="161.57" viewBox="0 0 393.9 161.57"><defs><style>.cls-1{fill:#fefefe;}.cls-2{fill:#009384;}.cls-3{fill:#009485;}.cls-4{fill:#019485;}.cls-5{fill:#049586;}.cls-6{fill:#fbfdfd;}.cls-7{fill:#eff8f7;}.cls-8{fill:#f9fcfb;}.cls-9{fill:#fcfdfd;}</style></defs><title>diario-do-nordeste</title><path class="cls-1" d="M473.15,580.71q-97,0-193.92.07c-2.69,0-3.12-.64-3.12-3.18q.13-77.6,0-155.21c0-2.54.44-3.18,3.12-3.17q193.92.12,387.85,0c2.54,0,2.94.58,2.93,3q-.12,77.79,0,155.58c0,2.42-.41,3-2.93,3Q570.12,580.65,473.15,580.71Z" transform="translate(-276.11 -419.22)"/><path class="cls-2" d="M277.23,480.15c0-18.08.1-36.17-.09-54.25,0-3.32,1-3.94,4.05-3.9,15.55.19,31.11-.11,46.65.27,11.73.29,22.92,3.07,32.64,10.11,10.69,7.74,16,18.75,18.22,31.34a90.51,90.51,0,0,1-.55,35.92c-4.89,21.69-20.33,35.15-43,37.64-15.87,1.74-31.8.52-47.7.79-3.3,0-7.72,1.56-9.62-.73-1.63-2-.58-6.2-.59-9.44Q277.19,504,277.23,480.15Z" transform="translate(-276.11 -419.22)"/><path class="cls-2" d="M468.84,529.55c-7.44,5.7-14.86,9.32-23.49,10.35-11.72,1.4-22.86-3.3-27.49-11.92a26,26,0,0,1,7.62-33c5.35-4.06,11.51-6.48,17.87-8.37,7.6-2.27,15.22-4.51,22.9-6.5,2.71-.71,2.84-1.91,2-4.12-1.69-4.33-5.11-6.31-9.42-6.81-10.94-1.28-20.39,2.6-28.8,9.17-2.55,2-3.5,1.63-5-1-2.18-3.87-4.71-7.56-7.21-11.24-1-1.43-1.18-2.3.44-3.46,16.14-11.51,33.79-15.53,53-10.19,11.76,3.27,18.54,11.74,19.17,23.89.93,17.94.21,35.92.34,53.88.06,7.81,0,7.81-7.92,7.81-3.62,0-7.24-.14-10.85,0-2.46.13-3.57-.54-3.25-3.16A50.06,50.06,0,0,0,468.84,529.55Z" transform="translate(-276.11 -419.22)"/><path class="cls-2" d="M583.09,489.4a39.5,39.5,0,0,1,13.66-29c13.91-11.79,30.07-12.92,46.53-6.92,15.5,5.64,22.59,18.2,24.61,34.06a59.34,59.34,0,0,1-1.24,22.22c-5.63,22.2-24.22,31.81-44.85,30C596.84,537.64,583.09,521.44,583.09,489.4Z" transform="translate(-276.11 -419.22)"/><path class="cls-2" d="M520.11,467.87c5.39-11.33,14.75-15.36,26.25-16,1.89-.11,2.83.16,2.76,2.43-.17,5.54-.14,11.09,0,16.63,0,2-.63,2.71-2.64,2.75a25.68,25.68,0,0,0-5.33.88c-12.12,2.85-18.24,10-19.62,22.73-1.32,12.26-.55,24.56-.59,36.83,0,3.34-.89,4.23-4.15,4.09-6-.27-12-.16-18.07,0-2,0-2.65-.57-2.64-2.63q.09-40.5,0-81c0-2.11.71-2.64,2.71-2.61,6.26.11,12.53.13,18.79,0,2.14-.05,2.64.73,2.58,2.7C520,459.05,520.11,463.46,520.11,467.87Z" transform="translate(-276.11 -419.22)"/><path class="cls-3" d="M410.69,495.18c0,13.25-.06,26.51.06,39.77,0,2.52-.66,3.3-3.21,3.23-6.26-.18-12.53-.13-18.79,0-2.05,0-3-.3-3-2.71q.13-40.32,0-80.63c0-2.17.59-2.94,2.85-2.89,6.38.14,12.77.16,19.16,0,2.48-.07,3,.84,3,3.11C410.65,468.42,410.69,481.8,410.69,495.18Z" transform="translate(-276.11 -419.22)"/><path class="cls-3" d="M553.53,494.92c0-13.26.06-26.52-.06-39.77,0-2.55.7-3.3,3.24-3.23,6.26.18,12.53.14,18.79,0,2.14-.05,3,.47,3,2.78q-.11,40.3,0,80.62c0,2.26-.69,2.87-2.88,2.83-6.39-.14-12.78-.17-19.16,0-2.53.07-2.95-.9-2.93-3.13C553.57,521.67,553.53,508.29,553.53,494.92Z" transform="translate(-276.11 -419.22)"/><path class="cls-4" d="M439.84,575.52c.86-.07,1.17-.77,1.5-1.38.84-1.6,1.69-2.06,3.21-.6a6.63,6.63,0,0,0,5,1.66c1.08-.05,2.27-.16,2.52-1.54s-.8-1.89-1.86-2.22c-1.83-.59-3.72-1-5.5-1.68a5.42,5.42,0,0,1-3.67-5.61,5.73,5.73,0,0,1,3.63-5.7,12.68,12.68,0,0,1,10.19.14c3.49,1.43,6.2-.36,6.19-4.25,0-2.25-.35-4.26,3.19-4,2.51.15,3.39.76,3.18,3.28-.18,2.16-.79,4.85,3.12,4.38,1.41-.17,1.1,1.24,1.16,2.15.08,1.24-.54,1.81-1.74,1.63-2.51-.38-2.73,1.07-2.61,3s.05,3.61,0,5.42c0,2.22-.31,4.38,3.08,4.43,2.09,0,1,2,1.24,3.16s-.58,1.5-1.72,1.64c-6.72.77-8.83-1-8.9-7.78,0-2.53,0-5.06,0-7.59,0-.88.34-2.07-1.13-2.22-1-.11-2.22-.57-2.85.76-1.09,2.32-2.41,1.65-3.85.38a3.51,3.51,0,0,0-1.29-.62c-1.73-.51-4-1.33-4.68.83s1.91,2,3.3,2.37c6.59,1.93,8.25,3.56,8,7.94a5.86,5.86,0,0,1-3.3,5.21c-4.08,2.17-12.05,1.19-15.33-1.94-.23-.22-.06-.86-.07-1.31Z" transform="translate(-276.11 -419.22)"/><path class="cls-4" d="M351.58,569.81c0-6.22.15-11.29-.07-16.34-.12-2.73,1-3.06,3.36-3.13,2.61-.09,3.21.78,3.16,3.26-.16,7.35,0,14.71-.12,22.07,0,1.2,1.09,3.44-1,3.55s-5.05,1.46-6.84-1.49c-3-4.94-6.12-9.81-9.2-14.7-.36-.58-.78-1.11-1.81-2.56,0,5.75-.11,10.49.05,15.22.09,2.57-.25,3.78-3.4,3.83-3.46.07-3.21-1.69-3.19-4,.07-7,0-14,.08-21,0-1.36-1.09-3.68,1.06-4,2.37-.3,5.16-1.27,7,1.95,2.85,5,6.1,9.81,9.19,14.69C350.17,567.81,350.57,568.35,351.58,569.81Z" transform="translate(-276.11 -419.22)"/><path class="cls-4" d="M398.17,422.07c3.37,0,6.74.08,10.1,0,1.89-.06,2.51.59,2.46,2.48-.11,4.45-.09,8.91,0,13.36,0,1.68-.5,2.34-2.25,2.32q-10.29-.1-20.58,0c-1.59,0-2.11-.65-2.1-2.14,0-4.57.07-9.14,0-13.71,0-1.71.54-2.35,2.28-2.3C391.42,422.14,394.8,422.07,398.17,422.07Z" transform="translate(-276.11 -419.22)"/><path class="cls-4" d="M456.76,440.16c-3.37,0-6.74-.09-10.11,0-1.92.07-2.5-.63-2.46-2.5.11-4.45.1-8.9,0-13.35,0-1.71.51-2.33,2.25-2.31q10.29.1,20.58,0c1.56,0,2.13.56,2.11,2.1-.06,4.57-.09,9.15,0,13.72,0,2-.9,2.39-2.64,2.33C463.26,440.09,460,440.16,456.76,440.16Z" transform="translate(-276.11 -419.22)"/><path class="cls-4" d="M566.26,422.07c3.25,0,6.5.05,9.75,0,1.56,0,2.47.27,2.44,2.14-.1,4.57-.08,9.15,0,13.72,0,1.68-.57,2.32-2.31,2.3-6.74-.08-13.48-.1-20.22,0-2,0-2.45-.72-2.41-2.54q.13-6.68,0-13.35c0-1.76.59-2.32,2.29-2.27C559.28,422.14,562.77,422.07,566.26,422.07Z" transform="translate(-276.11 -419.22)"/><path class="cls-4" d="M292.22,559.19a38.93,38.93,0,0,0,0-5.08c-.4-3,.8-3.87,3.77-3.79,2.38.07,2.74.92,2.71,3-.1,7.34,0,14.69,0,22,0,4-2,5.49-5.68,3.68a2.55,2.55,0,0,0-2.69.06c-5.71,2.32-10.69-.14-12.29-6.11a16.75,16.75,0,0,1,0-8.58C279.63,557.94,284.57,556.11,292.22,559.19Z" transform="translate(-276.11 -419.22)"/><path class="cls-4" d="M397.75,562.5c2.61-5.22,5.69-6.06,13.07-3.56.64-2.12.31-4.29.29-6.43,0-2.59,1.73-2.08,3.21-2.07s3.19-.58,3.16,2.07c-.1,8.3,0,16.59-.06,24.89,0,1.84-3.39,3.07-5.55,1.63a1.82,1.82,0,0,0-2.25-.27c-6.71,2.83-12-.12-13.11-7.32a15.49,15.49,0,0,1,.73-8.17A1,1,0,0,1,397.75,562.5Z" transform="translate(-276.11 -419.22)"/><path class="cls-4" d="M484.82,570.25c-1.45,0-2.89,0-4.34,0-.76,0-1.82-.38-2.14.7-.25.86.38,1.64,1,2.23,2.19,2.26,4.85,2.51,7.11.52,2.55-2.25,4-.05,5,1.22,1.28,1.63-.92,2.38-1.91,3.09-4.08,2.94-11.28,2.34-14.77-1.08s-4-10.42-1.24-14.83a10.46,10.46,0,0,1,12.4-4,9.86,9.86,0,0,1,6.42,10.23c-.15,1.27-.6,2-2,1.92C488.44,570.19,486.63,570.25,484.82,570.25Z" transform="translate(-276.11 -419.22)"/><path class="cls-4" d="M439.89,575.44A11.35,11.35,0,0,1,429,579.82c-4.08-.46-7.48-2.19-8.85-6.35-1.52-4.6-1.33-9.17,2.09-12.89,3-3.22,6.89-3.78,11-2.51a9.78,9.78,0,0,1,6.56,10.44c-.19,1.9-1.31,1.7-2.48,1.72-3.13,0-6.27,0-9.4,0-2.46,0-2.36,1.22-1.24,2.68,1.58,2.06,4.07,3,6,1.43,3.15-2.5,5-1,7.11,1.18Z" transform="translate(-276.11 -419.22)"/><path class="cls-4" d="M321.78,568.91c0,6.78-4.16,11.05-10.65,11.05s-10.86-4.61-10.71-11.4c.15-7,4.32-11.12,11.06-11C317.83,557.64,321.83,562.06,321.78,568.91Z" transform="translate(-276.11 -419.22)"/><path class="cls-4" d="M360.75,568.71c0-7.13,3.93-11.22,10.72-11.17,6.44.06,10.39,4.31,10.39,11.21s-4,11.13-10.43,11.21C364.77,580,360.74,575.8,360.75,568.71Z" transform="translate(-276.11 -419.22)"/><path class="cls-5" d="M397.75,562.5l-.51.77c-4.79.19-6.36,1.41-7,5.89a33.09,33.09,0,0,0-.24,7.17c.21,2.65-.86,3.12-3.26,3.15-2.58,0-3.26-.82-3.18-3.29.17-5.16.06-10.33.05-15.49,0-1.49-.16-2.82,2.09-2.89,3.16-.1,3.67,0,4.43,2.51a24,24,0,0,1,2.26-1.77c3.21-1.91,4.41-1.27,4.67,2.44C397.11,561.58,397.06,562.21,397.75,562.5Z" transform="translate(-276.11 -419.22)"/><path class="cls-1" d="M302.84,480.12c0-11.09.07-22.17,0-33.26,0-2.35.59-3.08,3-3,6.14.17,12.29-.08,18.43.09,17.51.48,27,8.64,29.79,25.82a61.65,61.65,0,0,1-.64,23.71c-2.92,12.81-10.79,19.93-24.07,22-8.15,1.3-16.36.56-24.54.8-2.48.07-1.89-1.61-1.89-2.92Q302.81,496.76,302.84,480.12Z" transform="translate(-276.11 -419.22)"/><path class="cls-1" d="M468.84,506.2c-.59,2.19,1.33,5.38-.92,7.49A31.13,31.13,0,0,1,452.59,522a21,21,0,0,1-5.37.21c-3.57-.24-6.3-2-7.24-5.51-1-3.68-.48-7.26,2.85-9.75a19.16,19.16,0,0,1,5-2.83c6.24-2.17,12.58-4,18.81-6.2,2-.69,2.29-.07,2.23,1.67C468.78,501.65,468.84,503.7,468.84,506.2Z" transform="translate(-276.11 -419.22)"/><path class="cls-1" d="M644.26,494.61c-.18,4.64-.38,8.72-1.65,12.68-2.6,8.11-8.34,12.53-16.47,12.61-8.39.09-14.41-4.21-16.92-12.47a41.94,41.94,0,0,1,.14-24.92c2.46-7.95,8.32-12.05,16.44-12.15s13.83,4.09,16.54,12a28.88,28.88,0,0,1,1.3,5.24C644,490.1,644.09,492.63,644.26,494.61Z" transform="translate(-276.11 -419.22)"/><path class="cls-6" d="M283.76,568.61c0-3.55,1.76-5.92,4.4-6s4.61,2.62,4.55,6.23-1.83,5.9-4.43,5.93C285.52,574.83,283.73,572.39,283.76,568.61Z" transform="translate(-276.11 -419.22)"/><path class="cls-6" d="M402.73,568.74c0-3.7,1.54-6,4.2-6.11s4.61,2.37,4.61,6.1-1.81,6.17-4.61,6.06C404.29,574.69,402.75,572.47,402.73,568.74Z" transform="translate(-276.11 -419.22)"/><path class="cls-7" d="M486,565.53c-2.09,0-3.77,0-5.44,0-.66,0-1.6.38-1.89-.47s.45-1.58,1.11-2.08C481.83,561.37,484.16,562.2,486,565.53Z" transform="translate(-276.11 -419.22)"/><path class="cls-8" d="M425.92,565.51c.76-2.61,2.27-3.4,4.39-3.18,1.38.14,2.9.7,2.86,2.19-.05,1.94-1.82.8-2.79.94A32.47,32.47,0,0,1,425.92,565.51Z" transform="translate(-276.11 -419.22)"/><path class="cls-6" d="M315.58,568.61c.05,3.91-1.57,6.18-4.4,6.18s-4.42-2.25-4.48-5.81c-.08-3.87,1.5-6.21,4.27-6.36S315.54,564.75,315.58,568.61Z" transform="translate(-276.11 -419.22)"/><path class="cls-9" d="M375.74,568.74c0,3.68-1.6,6-4.3,6s-4.69-2.35-4.66-6.1c0-3.56,1.77-6,4.36-6.07C374,562.52,375.73,564.85,375.74,568.74Z" transform="translate(-276.11 -419.22)"/></svg>