<svg id="Camada_1" data-name="Camada 1" xmlns="http://www.w3.org/2000/svg" width="415.35" height="444.36" viewBox="0 0 415.35 444.36"><defs><style>.cls-1,.cls-2{fill:none;stroke:#1d1d1b;}.cls-1,.cls-2,.cls-3{stroke-miterlimit:10;}.cls-2{stroke-width:1.2px;}.cls-3{fill:#fff;stroke:#fff;}</style></defs><title>Digital Storm Logo Branco</title><path class="cls-1" d="M537.29,443.9h0" transform="translate(-277.11 -275.98)"/><line class="cls-1" x1="260.18" y1="167.92" x2="260.18" y2="167.91"/><line class="cls-1" x1="260.18" y1="167.92" x2="260.18" y2="167.91"/><line class="cls-2" x1="260.18" y1="167.92" x2="260.18" y2="167.91"/><line class="cls-2" x1="260.18" y1="167.92" x2="260.18" y2="167.91"/><line class="cls-1" x1="334.89" y1="210.02" x2="334" y2="210.02"/><line class="cls-1" x1="263.64" y1="210.02" x2="262.89" y2="210.02"/><line class="cls-1" x1="335.78" y1="174.02" x2="334.89" y2="174.02"/><line class="cls-1" x1="406.89" y1="174.02" x2="406.14" y2="174.02"/><path class="cls-3" d="M469.6,576.09a170.35,170.35,0,0,0,46.91-91.61H453.93a108,108,0,0,1-104.32,80v-216A108,108,0,0,1,454.9,432.37a224.76,224.76,0,0,1,36.52-74.72v0l2.07-2.7c.82-1.07,1.66-2.14,2.5-3.19a179.75,179.75,0,0,0-146.38-75.24h-72v360s60.72-.51,58.48,0c21-4.7,29.1-8.12,29.1-8.12S440.84,604.73,468.71,577Z" transform="translate(-277.11 -275.98)"/><path class="cls-3" d="M581.71,329.82a179.45,179.45,0,0,1,110.7-52.53q-9.28-.81-18.8-.81A215.81,215.81,0,0,0,502.22,361h0a214.83,214.83,0,0,0-43.86,113.47h70.36a179.44,179.44,0,0,1-51.21,108.65h0a179.45,179.45,0,0,1-110.7,52.53q9.29.81,18.8.81a216,216,0,0,0,215.25-198H530.5A179.47,179.47,0,0,1,581.71,329.82Z" transform="translate(-277.11 -275.98)"/><path class="cls-3" d="M285.33,670.51h14.58A22,22,0,0,1,310.5,673a18,18,0,0,1,7.15,6.88,20.49,20.49,0,0,1,0,19.8,18.07,18.07,0,0,1-7.15,6.88A22.11,22.11,0,0,1,299.91,709H285.33ZM299.8,708A21.21,21.21,0,0,0,310,705.63a16.71,16.71,0,0,0,6.76-6.49,19.6,19.6,0,0,0,0-18.76,16.71,16.71,0,0,0-6.76-6.49,21.21,21.21,0,0,0-10.15-2.34H286.43V708Z" transform="translate(-277.11 -275.98)"/><path class="cls-3" d="M333.71,672.27a1.42,1.42,0,0,1,1-2.42,1.42,1.42,0,0,1,1,.41,1.37,1.37,0,0,1,0,2,1.37,1.37,0,0,1-1,.44A1.33,1.33,0,0,1,333.71,672.27Zm.46,8.31h1.1V709h-1.1Z" transform="translate(-277.11 -275.98)"/><path class="cls-3" d="M376.91,680.58v25.9q0,6.82-3.25,10.09t-9.9,3.27a20.27,20.27,0,0,1-7.23-1.26,13.82,13.82,0,0,1-5.36-3.46l.77-.78a14.94,14.94,0,0,0,5.22,3.3,18.17,18.17,0,0,0,6.6,1.16q6.17,0,9.11-2.94t2.94-9.22V699.5a13,13,0,0,1-4.92,6.24,13.82,13.82,0,0,1-7.95,2.34,14.37,14.37,0,0,1-7.15-1.79,13,13,0,0,1-5-4.95,14.93,14.93,0,0,1,0-14.25,12.74,12.74,0,0,1,5-4.92,14.57,14.57,0,0,1,7.15-1.76,14,14,0,0,1,7.95,2.31,12.8,12.8,0,0,1,4.92,6.16v-8.3Zm-7.34,24.83a11.6,11.6,0,0,0,4.59-4.57,13.31,13.31,0,0,0,1.65-6.63,13.13,13.13,0,0,0-1.65-6.59,11.59,11.59,0,0,0-4.59-4.54,14.38,14.38,0,0,0-13.26,0,11.59,11.59,0,0,0-4.59,4.54,13.13,13.13,0,0,0-1.65,6.59,13.31,13.31,0,0,0,1.65,6.63,11.6,11.6,0,0,0,4.59,4.57,14.38,14.38,0,0,0,13.26,0Z" transform="translate(-277.11 -275.98)"/><path class="cls-3" d="M393.49,672.27a1.44,1.44,0,0,1,0-2,1.4,1.4,0,0,1,1-.41,1.45,1.45,0,0,1,1,.41,1.37,1.37,0,0,1,0,2,1.4,1.4,0,0,1-1,.44A1.35,1.35,0,0,1,393.49,672.27Zm.47,8.31h1.1V709H394Z" transform="translate(-277.11 -275.98)"/><path class="cls-3" d="M424.21,707.14a6,6,0,0,1-2.45,1.51,9.4,9.4,0,0,1-3.11.52,6.65,6.65,0,0,1-5.08-1.89,7.09,7.09,0,0,1-1.79-5.09V674.36h1.1v6.22h9.62v1h-9.62v20.3a6.56,6.56,0,0,0,1.48,4.62,5.67,5.67,0,0,0,4.35,1.59,6.66,6.66,0,0,0,4.73-1.76Z" transform="translate(-277.11 -275.98)"/><path class="cls-3" d="M460.23,680.58V709h-1.1v-8.69a12.84,12.84,0,0,1-4.84,6.46,13.29,13.29,0,0,1-7.86,2.39,13.62,13.62,0,0,1-7-1.84,13.17,13.17,0,0,1-5-5.14,15.17,15.17,0,0,1-1.82-7.43,15,15,0,0,1,1.82-7.39,13.25,13.25,0,0,1,5-5.12,13.62,13.62,0,0,1,7-1.84,13.45,13.45,0,0,1,7.84,2.39,12.86,12.86,0,0,1,4.86,6.41v-8.63Zm-7.31,25.84a12,12,0,0,0,4.56-4.75,15.27,15.27,0,0,0,0-13.81,11.87,11.87,0,0,0-4.56-4.73,13.45,13.45,0,0,0-13,0,11.83,11.83,0,0,0-4.57,4.73,15.27,15.27,0,0,0,0,13.81,11.94,11.94,0,0,0,4.57,4.75,13.17,13.17,0,0,0,13,0Z" transform="translate(-277.11 -275.98)"/><path class="cls-3" d="M479,707.28a7.32,7.32,0,0,1-1.71-5.09v-34h1.1v33.72q0,6.21,5.5,6.21a7.38,7.38,0,0,0,2.81-.5l.16,1a7.88,7.88,0,0,1-2.91.54A6.31,6.31,0,0,1,479,707.28Z" transform="translate(-277.11 -275.98)"/><path class="cls-3" d="M517.93,707.66a14,14,0,0,1-5.67-3.93L513,703a13.94,13.94,0,0,0,5.34,3.66,18.82,18.82,0,0,0,7.37,1.46q6,0,9-2.39a7.53,7.53,0,0,0,3.05-6.19,6.79,6.79,0,0,0-1.6-4.73,10,10,0,0,0-3.93-2.64,52.46,52.46,0,0,0-6.3-1.81,58,58,0,0,1-6.71-2,10.52,10.52,0,0,1-4.21-3,8,8,0,0,1-1.73-5.37,8.94,8.94,0,0,1,1.38-4.84,9.36,9.36,0,0,1,4.29-3.51,17.4,17.4,0,0,1,7.2-1.33,19.54,19.54,0,0,1,6,1,17.41,17.41,0,0,1,5.12,2.56l-.61.88a16.59,16.59,0,0,0-5-2.51,18.53,18.53,0,0,0-5.47-.85c-3.85,0-6.79.82-8.8,2.45a7.67,7.67,0,0,0-3,6.24,6.85,6.85,0,0,0,1.6,4.76,9.67,9.67,0,0,0,4,2.66,61.33,61.33,0,0,0,6.38,1.88,57.15,57.15,0,0,1,6.65,2,10.49,10.49,0,0,1,4.18,2.92,7.68,7.68,0,0,1,1.71,5.25,8.73,8.73,0,0,1-1.43,4.84,9.63,9.63,0,0,1-4.38,3.49,18.31,18.31,0,0,1-7.34,1.29A20.42,20.42,0,0,1,517.93,707.66Z" transform="translate(-277.11 -275.98)"/><path class="cls-3" d="M565,707.14a6,6,0,0,1-2.45,1.51,9.34,9.34,0,0,1-3.1.52,6.67,6.67,0,0,1-5.09-1.89,7.14,7.14,0,0,1-1.79-5.09V674.36h1.1v6.22h9.63v1h-9.63v20.3a6.56,6.56,0,0,0,1.49,4.62,5.64,5.64,0,0,0,4.34,1.59,6.64,6.64,0,0,0,4.73-1.76Z" transform="translate(-277.11 -275.98)"/><path class="cls-3" d="M580.1,707.33a13,13,0,0,1-5-5.14,15.37,15.37,0,0,1-1.78-7.43,15.16,15.16,0,0,1,1.78-7.39,13.11,13.11,0,0,1,5-5.12,14.5,14.5,0,0,1,14.14,0,13,13,0,0,1,5,5.12,15.16,15.16,0,0,1,1.79,7.39,15.37,15.37,0,0,1-1.79,7.43,13,13,0,0,1-5,5.14,14.5,14.5,0,0,1-14.14,0Zm13.56-.91a12,12,0,0,0,4.57-4.75,15.27,15.27,0,0,0,0-13.81,11.89,11.89,0,0,0-4.57-4.73,13.45,13.45,0,0,0-13,0,11.87,11.87,0,0,0-4.56,4.73,15.27,15.27,0,0,0,0,13.81,12,12,0,0,0,4.56,4.75,13.17,13.17,0,0,0,13,0Z" transform="translate(-277.11 -275.98)"/><path class="cls-3" d="M619.84,682.36a12.31,12.31,0,0,1,7.1-2v1.1h-.33a10.05,10.05,0,0,0-8,3.27q-2.86,3.27-2.86,8.94V709h-1.1V680.58h1.1v7.36A10.55,10.55,0,0,1,619.84,682.36Z" transform="translate(-277.11 -275.98)"/><path class="cls-3" d="M683.06,683.46c2,2,3,5,3,8.77V709h-1.1V692.23c0-3.48-.87-6.15-2.59-8s-4.16-2.77-7.31-2.77a11.14,11.14,0,0,0-8.53,3.32,12.26,12.26,0,0,0-3.13,8.77V709h-1.1V692.23c0-3.48-.87-6.15-2.59-8s-4.16-2.77-7.31-2.77a11.14,11.14,0,0,0-8.53,3.32,12.26,12.26,0,0,0-3.13,8.77V709h-1.1V680.58h1.1v7.53a11,11,0,0,1,4.29-5.67,12.82,12.82,0,0,1,7.31-2,11.32,11.32,0,0,1,7.15,2.17,10.14,10.14,0,0,1,3.63,6.3,11.21,11.21,0,0,1,4.21-6.19,12.61,12.61,0,0,1,7.67-2.28A10.74,10.74,0,0,1,683.06,683.46Z" transform="translate(-277.11 -275.98)"/></svg>