<svg id="Camada_1" data-name="Camada 1" xmlns="http://www.w3.org/2000/svg" width="460.59" height="400.33" viewBox="0 0 460.59 400.33">
  <defs>
    <style>
      .cls-1 {
        fill: #191725;
        stroke: #1d1d1b;
        stroke-miterlimit: 10;
        stroke-width: 1.11px;
      }
    </style>
  </defs>
  <title>DS Logomarca</title>
  <g>
    <path class="cls-1" d="M513.25,632.64a188.84,188.84,0,0,0,52-101.59h-69.4a119.78,119.78,0,0,1-115.68,88.72V380.23a119.8,119.8,0,0,1,116.76,93,249.25,249.25,0,0,1,40.5-82.86v0l2.29-3c.91-1.19,1.84-2.38,2.78-3.54a199.32,199.32,0,0,0-162.33-83.44H300.35V699.61s67.33-.57,64.85,0c23.28-5.21,32.27-9,32.27-9s83.89-26.2,114.79-57Z" transform="translate(-299.79 -299.84)"/>
    <path class="cls-1" d="M637.57,359.54a199.05,199.05,0,0,1,122.76-58.25q-10.29-.9-20.84-.9A238.4,238.4,0,0,0,622,331.14a241,241,0,0,0-72.58,63h0A238.24,238.24,0,0,0,500.79,520h78A199,199,0,0,1,522,640.45h0a199,199,0,0,1-122.76,58.25q10.31.9,20.85.9A239.52,239.52,0,0,0,658.81,480h-78A199,199,0,0,1,637.57,359.54Z" transform="translate(-299.79 -299.84)"/>
  </g>
</svg>
