<svg id="Camada_1" data-name="Camada 1" xmlns="http://www.w3.org/2000/svg" width="459.98" height="399.22" viewBox="0 0 459.98 399.22">
  <defs>
    <style>
      .cls-1 {
        fill: #fff;
      }
    </style>
  </defs>
  <title>favicon-negativo</title>
  <g>
    <path class="cls-1" d="M213.46,332.8a188.79,188.79,0,0,0,52-101.59h-69.4A119.77,119.77,0,0,1,80.38,319.93V80.39a119.8,119.8,0,0,1,116.76,93,249.22,249.22,0,0,1,40.5-82.86h0l2.29-3c.91-1.19,1.84-2.38,2.78-3.54A199.33,199.33,0,0,0,80.38.55H.56V399.77s67.33-.57,64.85,0c23.28-5.21,32.27-9,32.27-9s83.89-26.2,114.79-57Z" transform="translate(-0.56 -0.55)"/>
    <path class="cls-1" d="M337.78,59.7A199.08,199.08,0,0,1,460.54,1.45Q450.25.55,439.7.55A238.46,238.46,0,0,0,322.21,31.3a240.94,240.94,0,0,0-72.58,63h0A238.22,238.22,0,0,0,201,220.16h78a199,199,0,0,1-56.79,120.45h0A199,199,0,0,1,99.45,398.86q10.3.9,20.85.9A239.52,239.52,0,0,0,359,180.16H281A199,199,0,0,1,337.78,59.7Z" transform="translate(-0.56 -0.55)"/>
  </g>
</svg>
