<svg id="Camada_1" data-name="Camada 1" xmlns="http://www.w3.org/2000/svg" width="1285.3" height="665.45" viewBox="0 0 1285.3 665.45">
  <defs>
    <style>
      .cls-1 {
        fill: none;
        stroke: #000;
        stroke-miterlimit: 10;
        stroke-width: 3px;
        opacity: 0.17;
        isolation: isolate;
      }
    </style>
  </defs>
  <title>fundo2-pattern</title>
  <g>
    <g>
      <path class="cls-1" d="M175,103.56A101.11,101.11,0,0,1,237.42,74c-3.48-.31-7-.46-10.59-.46a121.63,121.63,0,0,0-96.62,47.65h0a121.06,121.06,0,0,0-24.73,64h39.69a101.27,101.27,0,0,1-28.81,61.22h0A101.22,101.22,0,0,1,53.9,276c3.49.3,7,.46,10.6.46A121.78,121.78,0,0,0,185.79,164.82H146.15A101.12,101.12,0,0,1,175,103.56Z" transform="translate(-53.71 -71.99)"/>
      <path class="cls-1" d="M358.59,103.56A101.11,101.11,0,0,1,421,74q-5.25-.48-10.6-.46a121.63,121.63,0,0,0-96.62,47.65h0a121,121,0,0,0-24.72,64h39.69a101.26,101.26,0,0,1-28.87,61.25h0A101.17,101.17,0,0,1,237.42,276c3.5.3,7,.46,10.6.46A121.79,121.79,0,0,0,369.36,164.82H329.72A101.2,101.2,0,0,1,358.59,103.56Z" transform="translate(-53.71 -71.99)"/>
      <path class="cls-1" d="M542.17,103.56A101.11,101.11,0,0,1,604.57,74c-3.48-.31-7-.46-10.6-.46a121.61,121.61,0,0,0-96.61,47.65h0a121.06,121.06,0,0,0-24.73,64h39.73a101.2,101.2,0,0,1-28.87,61.25h0A101.17,101.17,0,0,1,421,276c3.49.3,7,.46,10.6.46a121.79,121.79,0,0,0,121.3-111.65H513.3A101.12,101.12,0,0,1,542.17,103.56Z" transform="translate(-53.71 -71.99)"/>
      <path class="cls-1" d="M725.74,103.56A101.11,101.11,0,0,1,788.15,74q-5.25-.48-10.6-.46a121.63,121.63,0,0,0-96.62,47.65h0a121,121,0,0,0-24.72,64H695.9A101.26,101.26,0,0,1,667,246.39h0A101.22,101.22,0,0,1,604.57,276c3.49.3,7,.46,10.6.46A121.77,121.77,0,0,0,736.51,164.82H696.87A101.12,101.12,0,0,1,725.74,103.56Z" transform="translate(-53.71 -71.99)"/>
      <path class="cls-1" d="M909.36,103.56A101.11,101.11,0,0,1,971.76,74q-5.25-.48-10.6-.46a121.67,121.67,0,0,0-96.62,47.65h0a121.08,121.08,0,0,0-24.72,64h39.69a101.2,101.2,0,0,1-28.87,61.25h0A101.17,101.17,0,0,1,788.19,276c3.49.3,7,.46,10.6.46a121.79,121.79,0,0,0,121.3-111.65H880.45A101.15,101.15,0,0,1,909.36,103.56Z" transform="translate(-53.71 -71.99)"/>
      <path class="cls-1" d="M1092.89,103.56A101.11,101.11,0,0,1,1155.3,74q-5.25-.48-10.6-.46a121.63,121.63,0,0,0-96.62,47.65h0a121.09,121.09,0,0,0-24.73,64h39.7a101.26,101.26,0,0,1-28.87,61.25h0A101.22,101.22,0,0,1,971.72,276c3.49.3,7,.46,10.6.46a121.77,121.77,0,0,0,121.34-111.65H1064A101.12,101.12,0,0,1,1092.89,103.56Z" transform="translate(-53.71 -71.99)"/>
      <path class="cls-1" d="M1276.46,103.56A101.11,101.11,0,0,1,1338.87,74q-5.23-.48-10.6-.46a121.67,121.67,0,0,0-96.62,47.65h0a121,121,0,0,0-24.72,64h39.69a101.2,101.2,0,0,1-28.87,61.25h0A101.17,101.17,0,0,1,1155.3,276c3.49.3,7,.46,10.59.46a121.8,121.8,0,0,0,121.35-111.62H1247.6A101.13,101.13,0,0,1,1276.46,103.56Z" transform="translate(-53.71 -71.99)"/>
    </g>
    <g>
      <path class="cls-1" d="M175,333.3a101.15,101.15,0,0,1,62.4-29.6c-3.48-.3-7-.45-10.59-.45a121.59,121.59,0,0,0-96.62,47.64h0a121.09,121.09,0,0,0-24.73,64h39.69a101.19,101.19,0,0,1-28.81,61.2h0A101.31,101.31,0,0,1,53.85,505.7c3.48.3,7,.45,10.6.45a121.77,121.77,0,0,0,121.34-111.6H146.15A101.1,101.1,0,0,1,175,333.3Z" transform="translate(-53.71 -71.99)"/>
      <path class="cls-1" d="M358.59,333.3A101.2,101.2,0,0,1,421,303.7q-5.25-.45-10.6-.45a121.65,121.65,0,0,0-96.62,47.64h0a121,121,0,0,0-24.72,64h39.69a101.2,101.2,0,0,1-28.87,61.25h0a101.25,101.25,0,0,1-62.46,29.56q5.25.45,10.6.45a121.79,121.79,0,0,0,121.34-111.6H329.72A101.15,101.15,0,0,1,358.59,333.3Z" transform="translate(-53.71 -71.99)"/>
      <path class="cls-1" d="M542.17,333.3a101.15,101.15,0,0,1,62.4-29.6c-3.48-.3-7-.45-10.6-.45a121.59,121.59,0,0,0-96.61,47.62h0a121.09,121.09,0,0,0-24.73,64h39.73a101.18,101.18,0,0,1-28.87,61.25h0A101.22,101.22,0,0,1,421,505.7q5.24.45,10.6.45a121.79,121.79,0,0,0,121.34-111.6H513.3A101,101,0,0,1,542.17,333.3Z" transform="translate(-53.71 -71.99)"/>
      <path class="cls-1" d="M725.74,333.3a101.2,101.2,0,0,1,62.41-29.6q-5.25-.45-10.6-.45a121.65,121.65,0,0,0-96.62,47.64h0a121,121,0,0,0-24.72,64H695.9A101.2,101.2,0,0,1,667,476.14h0a101.3,101.3,0,0,1-62.46,29.56c3.49.3,7,.45,10.6.45a121.76,121.76,0,0,0,121.34-111.6H696.87A101.1,101.1,0,0,1,725.74,333.3Z" transform="translate(-53.71 -71.99)"/>
      <path class="cls-1" d="M909.36,333.3a101.1,101.1,0,0,1,62.36-29.6q-5.25-.45-10.6-.45a121.66,121.66,0,0,0-96.62,47.64h0a121.08,121.08,0,0,0-24.72,64h39.69a101.18,101.18,0,0,1-28.87,61.25h0a101.23,101.23,0,0,1-62.45,29.56q5.24.45,10.6.45a121.79,121.79,0,0,0,121.34-111.6H880.45A101,101,0,0,1,909.36,333.3Z" transform="translate(-53.71 -71.99)"/>
      <path class="cls-1" d="M1092.89,333.3a101.12,101.12,0,0,1,62.41-29.6q-5.25-.45-10.6-.45a121.65,121.65,0,0,0-96.62,47.64h0a121.09,121.09,0,0,0-24.73,64h39.7a101.2,101.2,0,0,1-28.87,61.25h0a101.3,101.3,0,0,1-62.46,29.56c3.49.3,7,.45,10.6.45a121.76,121.76,0,0,0,121.34-111.6H1064A101.1,101.1,0,0,1,1092.89,333.3Z" transform="translate(-53.71 -71.99)"/>
      <path class="cls-1" d="M1276.46,333.3a101.2,101.2,0,0,1,62.41-29.6q-5.23-.45-10.6-.45a121.66,121.66,0,0,0-96.62,47.64h0a121,121,0,0,0-24.72,64h39.69a101.18,101.18,0,0,1-28.87,61.25h0a101.23,101.23,0,0,1-62.45,29.56q5.23.45,10.59.45a121.78,121.78,0,0,0,121.35-111.62H1247.6A101.11,101.11,0,0,1,1276.46,333.3Z" transform="translate(-53.71 -71.99)"/>
    </g>
    <g>
      <path class="cls-1" d="M175,563a101.11,101.11,0,0,1,62.4-29.61c-3.48-.3-7-.46-10.59-.46a121.63,121.63,0,0,0-96.62,47.65h0a121.06,121.06,0,0,0-24.73,64h39.69a101.27,101.27,0,0,1-28.81,61.22h0A101.22,101.22,0,0,1,53.9,735.45c3.48.3,7,.46,10.6.46A121.78,121.78,0,0,0,185.79,624.29H146.15A101.12,101.12,0,0,1,175,563Z" transform="translate(-53.71 -71.99)"/>
      <path class="cls-1" d="M358.59,563A101.11,101.11,0,0,1,421,533.42c-3.49-.3-7-.46-10.6-.46a121.63,121.63,0,0,0-96.62,47.65h0a121,121,0,0,0-24.72,64h39.69a101.26,101.26,0,0,1-28.87,61.25h0a101.17,101.17,0,0,1-62.46,29.62c3.5.3,7,.46,10.6.46A121.79,121.79,0,0,0,369.36,624.29H329.72A101.2,101.2,0,0,1,358.59,563Z" transform="translate(-53.71 -71.99)"/>
      <path class="cls-1" d="M542.17,563a101.11,101.11,0,0,1,62.4-29.61c-3.48-.3-7-.46-10.6-.46a121.61,121.61,0,0,0-96.61,47.65h0a121.06,121.06,0,0,0-24.73,64h39.73a101.2,101.2,0,0,1-28.87,61.25h0A101.17,101.17,0,0,1,421,735.48c3.49.3,7,.46,10.6.46a121.79,121.79,0,0,0,121.3-111.65H513.3A101.12,101.12,0,0,1,542.17,563Z" transform="translate(-53.71 -71.99)"/>
      <path class="cls-1" d="M725.74,563a101.11,101.11,0,0,1,62.41-29.61c-3.49-.3-7-.46-10.6-.46a121.63,121.63,0,0,0-96.62,47.65h0a121,121,0,0,0-24.72,64H695.9A101.26,101.26,0,0,1,667,705.86h0a101.22,101.22,0,0,1-62.46,29.62c3.49.31,7,.46,10.6.46A121.77,121.77,0,0,0,736.51,624.29H696.87A101.12,101.12,0,0,1,725.74,563Z" transform="translate(-53.71 -71.99)"/>
      <path class="cls-1" d="M909.36,563a101.11,101.11,0,0,1,62.4-29.61c-3.49-.3-7-.46-10.6-.46a121.67,121.67,0,0,0-96.62,47.65h0a121.08,121.08,0,0,0-24.72,64h39.69a101.2,101.2,0,0,1-28.87,61.25h0a101.17,101.17,0,0,1-62.45,29.62c3.49.3,7,.46,10.6.46a121.79,121.79,0,0,0,121.3-111.65H880.45A101.15,101.15,0,0,1,909.36,563Z" transform="translate(-53.71 -71.99)"/>
      <path class="cls-1" d="M1092.89,563a101.11,101.11,0,0,1,62.41-29.61c-3.49-.3-7-.46-10.6-.46a121.63,121.63,0,0,0-96.62,47.65h0a121.09,121.09,0,0,0-24.73,64h39.7a101.26,101.26,0,0,1-28.87,61.25h0a101.22,101.22,0,0,1-62.46,29.62c3.49.31,7,.46,10.6.46a121.77,121.77,0,0,0,121.34-111.65H1064A101.12,101.12,0,0,1,1092.89,563Z" transform="translate(-53.71 -71.99)"/>
      <path class="cls-1" d="M1276.46,563a101.11,101.11,0,0,1,62.41-29.61c-3.49-.3-7-.46-10.6-.46a121.67,121.67,0,0,0-96.62,47.65h0a121,121,0,0,0-24.72,64h39.69a101.2,101.2,0,0,1-28.87,61.25h0a101.17,101.17,0,0,1-62.45,29.62c3.49.3,7,.46,10.59.46a121.8,121.8,0,0,0,121.35-111.62H1247.6A101.13,101.13,0,0,1,1276.46,563Z" transform="translate(-53.71 -71.99)"/>
    </g>
  </g>
</svg>
