<svg id="Camada_1" data-name="Camada 1" xmlns="http://www.w3.org/2000/svg" width="1366" height="768" viewBox="0 0 1366 768">
  <defs>
    <style>
      .cls-1 {
        fill: #191725;
      }

      .cls-2 {
        fill: none;
        stroke: #fff;
        stroke-miterlimit: 10;
        stroke-width: 1.55px;
        opacity: 0.17;
      }
    </style>
  </defs>
  <title>fundo2</title>
  <path class="cls-1" d="M0,119.73S343.6-3.25,687,.07C973,2.83,1205.65,73,1366,117.22V644.6c-165.62,58.24-389.83,119-674.64,123.23C410.21,772,165.79,699.47,0,647.11Z" transform="translate(0)"/>
  <g>
    <g>
      <path class="cls-2" d="M161.66,82.86a101.16,101.16,0,0,1,62.4-29.61c-3.48-.31-7-.46-10.59-.46a121.66,121.66,0,0,0-96.62,47.65h0a121.08,121.08,0,0,0-24.73,64h39.69A101.19,101.19,0,0,1,103,225.66h0a101.17,101.17,0,0,1-62.46,29.62c3.49.3,7,.46,10.6.46A121.77,121.77,0,0,0,172.43,144.12H132.79A101.2,101.2,0,0,1,161.66,82.86Z" transform="translate(0)"/>
      <path class="cls-2" d="M345.23,82.86a101.21,101.21,0,0,1,62.41-29.61q-5.24-.47-10.6-.46a121.67,121.67,0,0,0-96.62,47.65h0a121.06,121.06,0,0,0-24.72,64h39.69a101.2,101.2,0,0,1-28.87,61.25h0a101.12,101.12,0,0,1-62.46,29.62c3.5.3,7,.46,10.6.46A121.78,121.78,0,0,0,356,144.12H316.36A101.26,101.26,0,0,1,345.23,82.86Z" transform="translate(0)"/>
      <path class="cls-2" d="M528.81,82.86a101.16,101.16,0,0,1,62.4-29.61c-3.48-.31-7-.46-10.6-.46A121.65,121.65,0,0,0,484,100.44h0a121.08,121.08,0,0,0-24.73,64H499a101.15,101.15,0,0,1-28.87,61.25h0a101.12,101.12,0,0,1-62.45,29.62c3.49.3,7,.46,10.6.46A121.78,121.78,0,0,0,539.58,144.12H499.94A101.15,101.15,0,0,1,528.81,82.86Z" transform="translate(0)"/>
      <path class="cls-2" d="M712.38,82.86a101.19,101.19,0,0,1,62.41-29.61q-5.24-.47-10.6-.46a121.67,121.67,0,0,0-96.62,47.65h0a121.06,121.06,0,0,0-24.72,64h39.69a101.2,101.2,0,0,1-28.87,61.25h0a101.17,101.17,0,0,1-62.46,29.62c3.49.3,7,.46,10.6.46A121.76,121.76,0,0,0,723.15,144.12H683.51A101.2,101.2,0,0,1,712.38,82.86Z" transform="translate(0)"/>
      <path class="cls-2" d="M896,82.86a101.16,101.16,0,0,1,62.4-29.61q-5.24-.47-10.6-.46a121.69,121.69,0,0,0-96.62,47.65h0a121.15,121.15,0,0,0-24.72,64h39.69a101.15,101.15,0,0,1-28.87,61.25h0a101.12,101.12,0,0,1-62.45,29.62c3.49.3,7,.46,10.6.46A121.78,121.78,0,0,0,906.73,144.12H867.09A101.15,101.15,0,0,1,896,82.86Z" transform="translate(0)"/>
      <path class="cls-2" d="M1079.53,82.86a101.16,101.16,0,0,1,62.41-29.61q-5.24-.47-10.6-.46a121.67,121.67,0,0,0-96.62,47.65h0a121.16,121.16,0,0,0-24.73,64h39.7a101.2,101.2,0,0,1-28.87,61.25h0a101.17,101.17,0,0,1-62.46,29.62c3.49.3,7,.46,10.6.46A121.76,121.76,0,0,0,1090.3,144.12h-39.64A101.2,101.2,0,0,1,1079.53,82.86Z" transform="translate(0)"/>
      <path class="cls-2" d="M1263.1,82.86a101.21,101.21,0,0,1,62.41-29.61q-5.23-.47-10.6-.46a121.69,121.69,0,0,0-96.62,47.65h0a121.06,121.06,0,0,0-24.72,64h39.69a101.15,101.15,0,0,1-28.87,61.25h0a101.12,101.12,0,0,1-62.45,29.62c3.49.3,7,.46,10.59.46a121.78,121.78,0,0,0,121.35-111.62h-39.64A101.19,101.19,0,0,1,1263.1,82.86Z" transform="translate(0)"/>
    </g>
    <g>
      <path class="cls-2" d="M161.66,312.6A101.17,101.17,0,0,1,224.06,283c-3.48-.3-7-.45-10.59-.45a121.65,121.65,0,0,0-96.62,47.64h0a121.11,121.11,0,0,0-24.73,64h39.69A101.14,101.14,0,0,1,103,455.39h0A101.23,101.23,0,0,1,40.49,485q5.23.45,10.6.45A121.76,121.76,0,0,0,172.43,373.85H132.79A101.15,101.15,0,0,1,161.66,312.6Z" transform="translate(0)"/>
      <path class="cls-2" d="M345.23,312.6A101.22,101.22,0,0,1,407.64,283q-5.24-.45-10.6-.45a121.66,121.66,0,0,0-96.62,47.64h0a121.09,121.09,0,0,0-24.72,64h39.69a101.15,101.15,0,0,1-28.87,61.25h0A101.18,101.18,0,0,1,224.06,485q5.25.45,10.6.45A121.77,121.77,0,0,0,356,373.85H316.36A101.21,101.21,0,0,1,345.23,312.6Z" transform="translate(0)"/>
      <path class="cls-2" d="M528.81,312.6A101.17,101.17,0,0,1,591.21,283c-3.48-.3-7-.45-10.6-.45A121.64,121.64,0,0,0,484,330.17h0a121.11,121.11,0,0,0-24.73,64H499a101.1,101.1,0,0,1-28.87,61.25h0A101.18,101.18,0,0,1,407.64,485q5.24.45,10.6.45A121.77,121.77,0,0,0,539.58,373.85H499.94A101.1,101.1,0,0,1,528.81,312.6Z" transform="translate(0)"/>
      <path class="cls-2" d="M712.38,312.6A101.2,101.2,0,0,1,774.79,283q-5.24-.45-10.6-.45a121.66,121.66,0,0,0-96.62,47.64h0a121.09,121.09,0,0,0-24.72,64h39.69a101.15,101.15,0,0,1-28.87,61.25h0A101.23,101.23,0,0,1,591.21,485c3.49.3,7,.45,10.6.45A121.75,121.75,0,0,0,723.15,373.85H683.51A101.15,101.15,0,0,1,712.38,312.6Z" transform="translate(0)"/>
      <path class="cls-2" d="M896,312.6A101.17,101.17,0,0,1,958.36,283q-5.24-.45-10.6-.45a121.68,121.68,0,0,0-96.62,47.64h0a121.18,121.18,0,0,0-24.72,64h39.69a101.1,101.1,0,0,1-28.87,61.25h0A101.18,101.18,0,0,1,774.79,485q5.24.45,10.6.45A121.77,121.77,0,0,0,906.73,373.85H867.09A101.1,101.1,0,0,1,896,312.6Z" transform="translate(0)"/>
      <path class="cls-2" d="M1079.53,312.6A101.17,101.17,0,0,1,1141.94,283q-5.24-.45-10.6-.45a121.66,121.66,0,0,0-96.62,47.64h0a121.19,121.19,0,0,0-24.73,64h39.7a101.15,101.15,0,0,1-28.87,61.25h0A101.23,101.23,0,0,1,958.36,485c3.49.3,7,.45,10.6.45A121.75,121.75,0,0,0,1090.3,373.85h-39.64A101.15,101.15,0,0,1,1079.53,312.6Z" transform="translate(0)"/>
      <path class="cls-2" d="M1263.1,312.6A101.22,101.22,0,0,1,1325.51,283q-5.23-.45-10.6-.45a121.68,121.68,0,0,0-96.62,47.64h0a121.09,121.09,0,0,0-24.72,64h39.69a101.1,101.1,0,0,1-28.87,61.25h0A101.18,101.18,0,0,1,1141.94,485q5.24.45,10.59.45a121.77,121.77,0,0,0,121.35-111.62h-39.64A101.14,101.14,0,0,1,1263.1,312.6Z" transform="translate(0)"/>
    </g>
    <g>
      <path class="cls-2" d="M161.66,542.33a101.16,101.16,0,0,1,62.4-29.61c-3.48-.3-7-.46-10.59-.46a121.66,121.66,0,0,0-96.62,47.65h0a121.08,121.08,0,0,0-24.73,64h39.69A101.19,101.19,0,0,1,103,685.13h0a101.17,101.17,0,0,1-62.46,29.62q5.23.46,10.6.46A121.77,121.77,0,0,0,172.43,603.59H132.79A101.2,101.2,0,0,1,161.66,542.33Z" transform="translate(0)"/>
      <path class="cls-2" d="M345.23,542.33a101.21,101.21,0,0,1,62.41-29.61c-3.49-.3-7-.46-10.6-.46a121.67,121.67,0,0,0-96.62,47.65h0a121.06,121.06,0,0,0-24.72,64h39.69a101.2,101.2,0,0,1-28.87,61.25h0a101.12,101.12,0,0,1-62.46,29.62q5.25.46,10.6.46A121.78,121.78,0,0,0,356,603.59H316.36A101.26,101.26,0,0,1,345.23,542.33Z" transform="translate(0)"/>
      <path class="cls-2" d="M528.81,542.33a101.16,101.16,0,0,1,62.4-29.61c-3.48-.3-7-.46-10.6-.46A121.65,121.65,0,0,0,484,559.91h0a121.08,121.08,0,0,0-24.73,64H499a101.15,101.15,0,0,1-28.87,61.25h0a101.12,101.12,0,0,1-62.45,29.62q5.24.46,10.6.46A121.78,121.78,0,0,0,539.58,603.59H499.94A101.15,101.15,0,0,1,528.81,542.33Z" transform="translate(0)"/>
      <path class="cls-2" d="M712.38,542.33a101.19,101.19,0,0,1,62.41-29.61c-3.49-.3-7-.46-10.6-.46a121.67,121.67,0,0,0-96.62,47.65h0a121.06,121.06,0,0,0-24.72,64h39.69a101.2,101.2,0,0,1-28.87,61.25h0a101.17,101.17,0,0,1-62.46,29.62c3.49.31,7,.46,10.6.46A121.76,121.76,0,0,0,723.15,603.59H683.51A101.2,101.2,0,0,1,712.38,542.33Z" transform="translate(0)"/>
      <path class="cls-2" d="M896,542.33a101.16,101.16,0,0,1,62.4-29.61c-3.49-.3-7-.46-10.6-.46a121.69,121.69,0,0,0-96.62,47.65h0a121.15,121.15,0,0,0-24.72,64h39.69a101.15,101.15,0,0,1-28.87,61.25h0a101.12,101.12,0,0,1-62.45,29.62q5.24.46,10.6.46A121.78,121.78,0,0,0,906.73,603.59H867.09A101.15,101.15,0,0,1,896,542.33Z" transform="translate(0)"/>
      <path class="cls-2" d="M1079.53,542.33a101.16,101.16,0,0,1,62.41-29.61c-3.49-.3-7-.46-10.6-.46a121.67,121.67,0,0,0-96.62,47.65h0a121.16,121.16,0,0,0-24.73,64h39.7a101.2,101.2,0,0,1-28.87,61.25h0a101.17,101.17,0,0,1-62.46,29.62c3.49.31,7,.46,10.6.46A121.76,121.76,0,0,0,1090.3,603.59h-39.64A101.2,101.2,0,0,1,1079.53,542.33Z" transform="translate(0)"/>
      <path class="cls-2" d="M1263.1,542.33a101.21,101.21,0,0,1,62.41-29.61c-3.49-.3-7-.46-10.6-.46a121.69,121.69,0,0,0-96.62,47.65h0a121.06,121.06,0,0,0-24.72,64h39.69a101.15,101.15,0,0,1-28.87,61.25h0a101.12,101.12,0,0,1-62.45,29.62q5.24.46,10.59.46a121.78,121.78,0,0,0,121.35-111.62h-39.64A101.19,101.19,0,0,1,1263.1,542.33Z" transform="translate(0)"/>
    </g>
  </g>
</svg>
