<svg id="Camada_1" data-name="Camada 1" xmlns="http://www.w3.org/2000/svg" width="50" height="49.76" viewBox="0 0 50 49.76"><defs><style>.cls-1{fill:#fff;stroke:#fff;stroke-miterlimit:10;stroke-width:0.14px;}.cls-2{fill:#505050;}.cls-3{fill:#474747;}.cls-4{fill:#5a5a5a;}.cls-5{fill:#6c6c6c;}.cls-6{fill:#7f7f7f;}.cls-7{fill:#919191;}</style></defs><title>github</title><path class="cls-1" d="M44,20.28,41.86,30.92,33.38,37.3l-.71,11.26.24,0a24.79,24.79,0,0,1-15.33,0l.09-.06-.17-.14-2.8-1.93L11.56,44.1,7.6,39,5.78,37.71V33S8.11,16.83,9,16.32s.91-6.89.91-6.89L14.29,7.1S17.84,7.91,19,8s7.71,0,8.32-.1,5.88-.41,6.18-.41,5.68.41,5.68.41l3.75,6.79Z" transform="translate(0 -0.15)"/><path d="M0,23.07a11.84,11.84,0,0,0,.27-1.74C1.85,12.22,6.93,5.8,15.37,2.06A24,24,0,0,1,27.53.29a24.2,24.2,0,0,1,13.92,6,24,24,0,0,1,7.92,13.28A24.05,24.05,0,0,1,47.3,36.25,24.53,24.53,0,0,1,33.08,48.59c-1.12.39-1.87-.13-1.87-1.32,0-2.15,0-4.31,0-6.46a7.2,7.2,0,0,0-.84-3.75,5.51,5.51,0,0,0-.84-1,29.71,29.71,0,0,0,3-.52,10.64,10.64,0,0,0,6.37-4,11.55,11.55,0,0,0,1.88-5.39,13.52,13.52,0,0,0-.14-4.83,9.3,9.3,0,0,0-2-3.93.55.55,0,0,1-.15-.63,8.53,8.53,0,0,0-.28-6.07c-.08-.2-.2-.22-.37-.25a4.89,4.89,0,0,0-2.5.47,17.71,17.71,0,0,0-3.67,1.89,1,1,0,0,1-.9.13,23.09,23.09,0,0,0-11.53,0,1,1,0,0,1-.9-.16,16.8,16.8,0,0,0-5-2.27l-.14,0c-1.13-.2-1.31-.09-1.63,1a8.23,8.23,0,0,0,0,5.39.4.4,0,0,1-.12.46C9.34,19.62,8.85,22.4,9.11,25.4a13.83,13.83,0,0,0,1.58,5.5A9.47,9.47,0,0,0,15.82,35a18.48,18.48,0,0,0,4.36,1l.25,0a5.43,5.43,0,0,0-1.56,3.16.28.28,0,0,1-.2.24c-1.73.62-3.45,1-5.16,0a5.25,5.25,0,0,1-1.84-2,5.53,5.53,0,0,0-3.1-2.52A2.5,2.5,0,0,0,7,34.81c-.44.12-.5.27-.27.65a2,2,0,0,0,.72.72,6.59,6.59,0,0,1,2.67,3.29,5.9,5.9,0,0,0,1.34,2.17A6,6,0,0,0,15.17,43a12.34,12.34,0,0,0,3.62-.18v3c0,.47,0,.94,0,1.41A1.29,1.29,0,0,1,17,48.61,23.85,23.85,0,0,1,10.08,45,25.55,25.55,0,0,1,1.93,34.7,24,24,0,0,1,.11,27.44c0-.1,0-.24-.11-.29v-.48c.07-.07.05-.15.05-.22v-.54c0-.07,0-.15,0-.22V24.14C.06,24.09,0,24,0,24s.06-.16,0-.21Z" transform="translate(0 -0.15)"/><path class="cls-2" d="M0,24.14" transform="translate(0 -0.15)"/><path class="cls-3" d="M0,25.69a.15.15,0,0,1,.08.2s0,0-.08,0Z" transform="translate(0 -0.15)"/><path class="cls-4" d="M0,25.89H.08v.2s0,0-.08,0Z" transform="translate(0 -0.15)"/><path class="cls-5" d="M0,26.08H.08v.19s0,0-.08,0Z" transform="translate(0 -0.15)"/><path class="cls-6" d="M0,26.28H.08v.19c0,.05,0,0-.08,0Z" transform="translate(0 -0.15)"/><path class="cls-7" d="M0,26.47H.08c0,.09,0,.17-.08.2Z" transform="translate(0 -0.15)"/></svg>