<svg id="Camada_1" data-name="Camada 1" xmlns="http://www.w3.org/2000/svg" width="29.88" height="29.88" viewBox="0 0 29.88 29.88">
  <defs>
    <style>
      .cls-1 {
        fill: #fff;
      }
    </style>
  </defs>
  <title>github</title>
  <path class="cls-1" d="M10.06,24.63a7.67,7.67,0,0,0,.16-1.07,15.06,15.06,0,0,1,9-11.85,14,14,0,0,1,7.26-1.09,14.35,14.35,0,0,1,8.32,3.69,14.87,14.87,0,0,1,4.73,8.17,15.17,15.17,0,0,1-1.24,10.26,14.78,14.78,0,0,1-8.49,7.59c-.67.24-1.12-.08-1.12-.81v-4a4.48,4.48,0,0,0-.5-2.3,3.31,3.31,0,0,0-.5-.62,15.61,15.61,0,0,0,1.79-.32,6.33,6.33,0,0,0,3.81-2.46,7.34,7.34,0,0,0,1.12-3.31,8.71,8.71,0,0,0-.08-3,5.93,5.93,0,0,0-1.2-2.42.35.35,0,0,1-.09-.39A5.38,5.38,0,0,0,32.88,17c0-.12-.12-.14-.22-.15a2.85,2.85,0,0,0-1.49.29A9.79,9.79,0,0,0,29,18.32a.61.61,0,0,1-.54.08,13.41,13.41,0,0,0-6.89,0,.57.57,0,0,1-.53-.1,10.21,10.21,0,0,0-3-1.4h-.09c-.67-.12-.78,0-1,.62a5.21,5.21,0,0,0,0,3.31.26.26,0,0,1-.07.29,6.23,6.23,0,0,0-1.4,4.95,8.69,8.69,0,0,0,.95,3.38A5.67,5.67,0,0,0,19.51,32a11.07,11.07,0,0,0,2.6.62h.15a3.34,3.34,0,0,0-.93,1.94.17.17,0,0,1-.12.15,3.38,3.38,0,0,1-3.08,0A3.34,3.34,0,0,1,17,33.45a3.32,3.32,0,0,0-1.85-1.55,1.44,1.44,0,0,0-.94,0c-.26.08-.3.17-.16.4a1.16,1.16,0,0,0,.43.45,4,4,0,0,1,1.59,2,3.56,3.56,0,0,0,.81,1.33,3.47,3.47,0,0,0,2.21.84,7.12,7.12,0,0,0,2.16-.11v2.71a.79.79,0,0,1-.64.91.81.81,0,0,1-.43-.06,14.11,14.11,0,0,1-4.13-2.22,15.68,15.68,0,0,1-4.87-6.33,15.23,15.23,0,0,1-1.08-4.47c0-.06,0-.15-.07-.18v-.29s0-.09,0-.14V25.29s0-.08,0-.08,0-.1,0-.13Z" transform="translate(-10.06 -10.53)"/>
</svg>
