<svg xmlns="http://www.w3.org/2000/svg" width="362.63" height="272.97" viewBox="0 0 362.63 272.97"><defs><style>.cls-1{fill:#ffc3bd;}.cls-2{opacity:0.1;}.cls-3,.cls-9{fill:#407bff;}.cls-4{fill:#263238;}.cls-12,.cls-5,.cls-9{opacity:0.3;}.cls-6{opacity:0.2;}.cls-7{fill:#ed893e;}.cls-8{opacity:0.5;}.cls-10,.cls-11{fill:#fff;}.cls-10{opacity:0.6;}.cls-13{fill:#ff8b7b;}.cls-14{fill:#ff5652;}.cls-15{opacity:0.4;}</style></defs><title>atendimento</title><g id="Shadow"><path class="cls-1" d="M303.78,160.61c-2.69-2.8-4.6-8-5.53-11.35L294,159.4a6.9,6.9,0,0,1,1.56,5.82c0,.09-.15,1.79-3,3.53,0,0,.51,10.26,6.62,8.81s9.43-13.63,9.43-13.63l.44-3.45S306.27,162.82,303.78,160.61Z" transform="translate(-50.42 -104.56)"/><path class="cls-2" d="M295.07,156.92l-1,2.48a7.39,7.39,0,0,1,1.58,3.33c2.8-3.3,3.11-8.64,3.11-8.64Z" transform="translate(-50.42 -104.56)"/><path class="cls-1" d="M250.71,206.27s16.49.67,23.81-1.33,13.54-14.81,13.54-14.81l-8.35-4.61-8.3,12.35-20.68,3.31L244.79,197s-12-2.56-12-1,6.19,2.82,6.19,2.82.37,7.38,2.91,7.61S250.71,206.27,250.71,206.27Z" transform="translate(-50.42 -104.56)"/><path class="cls-3" d="M291.07,171s-7.14,1-11.81,9.65-.68,9,3.27,11.44,5.93,3,7.75-2.34S295.69,170.45,291.07,171Z" transform="translate(-50.42 -104.56)"/><path class="cls-2" d="M291.05,187.31l-2.65-5.4-4.45-.34a75.15,75.15,0,0,0,.23,11.46c2.89,1.51,4.56,1.21,6.1-3.3C290.51,189.05,290.78,188.23,291.05,187.31Z" transform="translate(-50.42 -104.56)"/><path class="cls-4" d="M276.83,136.54s-5.2,1.84-1.76,7.13-3.5,8.89,8.15,10.35.41-19.61.41-19.61Z" transform="translate(-50.42 -104.56)"/><path class="cls-5" d="M276.83,136.54s-5.2,1.84-1.76,7.13-3.5,8.89,8.15,10.35.41-19.61.41-19.61Z" transform="translate(-50.42 -104.56)"/><path class="cls-3" d="M321.62,169.74c-1.74-11.32-8.33-11.12-14.75-8.59.45,4.26.46,9.7-5.71,13.09-5.55,3-7.71-2-7.83-6.22-5.82,3.31-10.68,7.55-9.09,16,.91,4.8,5.15,10.07,9.49,16.76,5.19,8,10.53,17.08,10.53,17.08l29.66-15.1S323.51,182,321.62,169.74Z" transform="translate(-50.42 -104.56)"/><path class="cls-6" d="M321.62,169.74a21.7,21.7,0,0,0-1.07-4.28l-4.49-.76-2.34,3.72s4.95,8.72,11.53,14.23A72.41,72.41,0,0,1,321.62,169.74Z" transform="translate(-50.42 -104.56)"/><path class="cls-1" d="M329.55,166.14s10.18,7,13.29,9.65c4.63,4,17.1,17.47,17.1,17.47l7.65,4.18v4.84l-3.62,2.5a2.42,2.42,0,0,1-3.39-.65l-4.64-6.93s-11.44-10.45-15.65-13.43c-3.56-2.52-15.1-8.71-15.1-8.71Z" transform="translate(-50.42 -104.56)"/><path class="cls-3" d="M310.76,160.1s6.56-2.95,12.15,0,8.06,4.57,7.51,8.13-2.6,10.92-6.28,9.7S308.72,165.06,310.76,160.1Z" transform="translate(-50.42 -104.56)"/><path class="cls-1" d="M299.8,140.82c.76,7.67,1.25,10.89-1.95,15.4-4.82,6.79-14.4,6.05-17.43-1.23-2.74-6.56-3.52-18,3.42-22.2a10.49,10.49,0,0,1,16,8Z" transform="translate(-50.42 -104.56)"/><path class="cls-7" d="M283.69,146.68a16.77,16.77,0,0,1-1.56,4.3,2.67,2.67,0,0,0,2.26.07Z" transform="translate(-50.42 -104.56)"/><path class="cls-4" d="M288.81,141.56a.29.29,0,0,0,.11-.11.31.31,0,0,0-.11-.41h0a3.56,3.56,0,0,0-3.28-.21.32.32,0,0,0-.13.42.3.3,0,0,0,.4.13,3,3,0,0,1,2.72.2A.29.29,0,0,0,288.81,141.56Z" transform="translate(-50.42 -104.56)"/><path class="cls-4" d="M277.36,143.5l.13-.1a3,3,0,0,1,2.47-1.1.31.31,0,0,0,.35-.26h0a.33.33,0,0,0-.28-.34,3.62,3.62,0,0,0-3,1.32.31.31,0,0,0,0,.43.33.33,0,0,0,.33.06Z" transform="translate(-50.42 -104.56)"/><path class="cls-4" d="M287.89,145c.1.61-.15,1.16-.56,1.23s-.81-.37-.9-1,.14-1.16.54-1.23S287.78,144.34,287.89,145Z" transform="translate(-50.42 -104.56)"/><path class="cls-4" d="M280.9,146.09c.1.61-.15,1.16-.55,1.23s-.8-.38-.91-1,.15-1.17.55-1.23S280.81,145.46,280.9,146.09Z" transform="translate(-50.42 -104.56)"/><path class="cls-4" d="M280.17,145.09l-1.55-.18S279.57,145.94,280.17,145.09Z" transform="translate(-50.42 -104.56)"/><path class="cls-4" d="M287.16,144l-1.55-.18S286.56,144.81,287.16,144Z" transform="translate(-50.42 -104.56)"/><path class="cls-4" d="M289.38,153.89a6.64,6.64,0,0,0,1.08-.66.22.22,0,0,0,.05-.31h0a.23.23,0,0,0-.31,0,6,6,0,0,1-5.32,1,.22.22,0,0,0-.29.12.21.21,0,0,0,.13.29A6.23,6.23,0,0,0,289.38,153.89Z" transform="translate(-50.42 -104.56)"/><path class="cls-4" d="M283.26,136.62c-3,.36-11,2.64-9.73-4.82s15.56-11.19,22.2-6.37,11.74,4.46,17,.55,7.82-2.37,14.56,1.27c0,0-3.64,6.28-1.91,10.1,0,0-4-4-11.47.27,0,0,8.64-2.29,11.92,3.68,0,0-.91,6.59,2.27,10.51s-.09,8.56-12.28,3.83-13.49-.39-16.3-2.48-4.92-7.75-5.36-11.86C293.88,138.34,292.55,135.52,283.26,136.62Z" transform="translate(-50.42 -104.56)"/><path class="cls-1" d="M300.85,146.09a5.62,5.62,0,0,1-2.15,3.73c-1.57,1.18-3.08,0-3.24-1.91-.15-1.67.49-4.31,2.36-4.77a2.54,2.54,0,0,1,3,3Z" transform="translate(-50.42 -104.56)"/><path class="cls-1" d="M341,358c.26,6.39.45,11.46.45,11.46l-7.1.81s-.68-4.32-1.7-10.95Z" transform="translate(-50.42 -104.56)"/><path class="cls-3" d="M331.23,368.73a3,3,0,0,1-2.12-.4.63.63,0,0,1,0-.73.82.82,0,0,1,.5-.43c1.17-.4,3.73.85,3.84.91a.18.18,0,0,1,.1.17.16.16,0,0,1-.13.14A12.14,12.14,0,0,1,331.23,368.73Zm-1.21-1.3a.87.87,0,0,0-.32.06.45.45,0,0,0-.32.25c-.11.22-.06.32,0,.37.36.44,2.15.34,3.46.09A7.9,7.9,0,0,0,330,367.43Z" transform="translate(-50.42 -104.56)"/><path class="cls-3" d="M333.36,368.39h-.07c-.87-.32-2.67-1.75-2.57-2.56,0-.19.13-.43.59-.51a1.23,1.23,0,0,1,1,.23,4.74,4.74,0,0,1,1.27,2.67.14.14,0,0,1-.18.17Zm-1.92-2.76h-.09c-.3,0-.32.17-.32.21,0,.48,1.18,1.62,2.09,2.08a3.93,3.93,0,0,0-1.08-2.11.91.91,0,0,0-.6-.18Z" transform="translate(-50.42 -104.56)"/><path class="cls-4" d="M334.05,367.35l7.74-.49a.62.62,0,0,1,.64.45l1.81,6.21a1,1,0,0,1-.7,1.29.85.85,0,0,1-.22,0c-2.79.13-5.29.14-8.76.36-4.1.27-3,.69-7.85,1.07-2.9.22-3.64-3-2.42-3.29,5.59-1.07,6.07-2.81,8.11-5A2.59,2.59,0,0,1,334.05,367.35Z" transform="translate(-50.42 -104.56)"/><path class="cls-4" d="M336.7,207.18l-1.35-4.85a1,1,0,0,0-1.38-.61L303.71,217a1,1,0,0,0-.36,1.43l3.06,4.45S313.92,274,317,291c3.18,17.33,14.56,69.19,14.56,69.19a.72.72,0,0,0,.83.57l8.81-1.42a.73.73,0,0,0,.61-.7c.1-4.42,0-32.36-2.78-52.13-1-7.06-3.38-12.72-4.19-16.61-.89-4.29.49-7.17,1-17.5C336.94,253,338.16,222.3,336.7,207.18Z" transform="translate(-50.42 -104.56)"/><path class="cls-8" d="M335.91,272.44c.35-6.51.71-14.27,1-22.29l-8.78-14.8-3.91-8.74-3.7,5s6.54,27.51,15.13,44.79C335.74,275.24,335.84,273.92,335.91,272.44Z" transform="translate(-50.42 -104.56)"/><path class="cls-1" d="M402.5,333.54c3.68,5.23,6.07,8.67,6.07,8.67L403,346.73l-7.36-8.28Z" transform="translate(-50.42 -104.56)"/><path class="cls-3" d="M399.16,347.08a3,3,0,0,1-2,.81.63.63,0,0,1-.43-.6.88.88,0,0,1,.19-.63c.77-1,3.6-1.3,3.73-1.32a.16.16,0,0,1,.17.1.17.17,0,0,1,0,.19A13.2,13.2,0,0,1,399.16,347.08Zm-1.73-.44a1.26,1.26,0,0,0-.24.22.51.51,0,0,0-.12.39c0,.24.12.3.19.32.54.17,2-.88,3-1.8A7.77,7.77,0,0,0,397.43,346.64Z" transform="translate(-50.42 -104.56)"/><path class="cls-3" d="M400.77,345.64l-.06,0c-.91.2-3.2,0-3.55-.76-.1-.17-.13-.44.22-.75a1.25,1.25,0,0,1,.92-.33,4.83,4.83,0,0,1,2.53,1.56.17.17,0,0,1,0,.17A.2.2,0,0,1,400.77,345.64Zm-3.11-1.28-.08.05c-.23.2-.18.31-.16.35.25.41,1.87.72,2.89.61a4.06,4.06,0,0,0-2.06-1.19.9.9,0,0,0-.59.18Z" transform="translate(-50.42 -104.56)"/><path class="cls-4" d="M400.78,344.4l6.25-4.61a.62.62,0,0,1,.78,0l4.87,4.25a1,1,0,0,1,.12,1.46,1.1,1.1,0,0,1-.16.15c-2.28,1.62-4.38,3-7.18,5.05-3.3,2.44-2.17,2.22-6,5.14-2.32,1.76-4.71-.59-3.82-1.45,4.13-3.93,3.59-5.65,4.14-8.57A2.52,2.52,0,0,1,400.78,344.4Z" transform="translate(-50.42 -104.56)"/><path class="cls-4" d="M314.54,219.52s23.17,53.41,34.12,69.33c9.73,14.14,46.67,50.32,46.67,50.32a1.56,1.56,0,0,0,2.15.13l5.13-4.36a1.57,1.57,0,0,0,.32-2c-3.15-5.13-16.41-26.46-28.05-40.34-4.64-5.53-9.1-9.59-11.3-12.64-2.89-4-2.21-7.26-4.5-18.45-4.26-20.81-12.56-51.41-25.16-56.3Z" transform="translate(-50.42 -104.56)"/><path class="cls-9" d="M269.81,370.43H175.42a10.66,10.66,0,0,1-10.79-11.82l20.74-237a13.16,13.16,0,0,1,12.86-11.83h94.39a10.66,10.66,0,0,1,10.79,11.83l-20.74,237A13.16,13.16,0,0,1,269.81,370.43Z" transform="translate(-50.42 -104.56)"/><path class="cls-3" d="M292.62,109.74H198.23a13.16,13.16,0,0,0-12.86,11.83l-20.74,237a10.66,10.66,0,0,0,10.79,11.82h94.39a13.16,13.16,0,0,0,12.86-11.82l20.74-237A10.66,10.66,0,0,0,292.62,109.74Zm-15.2,248.87a7.32,7.32,0,0,1-7.15,6.57H175.88a5.93,5.93,0,0,1-6-6.57l20.74-237a7.32,7.32,0,0,1,7.15-6.58h94.39a5.93,5.93,0,0,1,6,6.58Z" transform="translate(-50.42 -104.56)"/><path class="cls-10" d="M292.62,109.74H198.23a13.16,13.16,0,0,0-12.86,11.83l-20.74,237a10.66,10.66,0,0,0,10.79,11.82h94.39a13.16,13.16,0,0,0,12.86-11.82l20.74-237A10.66,10.66,0,0,0,292.62,109.74Zm-15.2,248.87a7.32,7.32,0,0,1-7.15,6.57H175.88a5.93,5.93,0,0,1-6-6.57l20.74-237a7.32,7.32,0,0,1,7.15-6.58h94.39a5.93,5.93,0,0,1,6,6.58Z" transform="translate(-50.42 -104.56)"/><path class="cls-11" d="M236.79,355.79h-26a1.62,1.62,0,0,0-1.58,1.46,1.31,1.31,0,0,0,1.33,1.45h26a1.62,1.62,0,0,0,1.59-1.45A1.32,1.32,0,0,0,236.79,355.79Z" transform="translate(-50.42 -104.56)"/><path class="cls-2" d="M236.15,220H208.63a6.22,6.22,0,0,1-6.3-6.9l2.41-27.53a7.68,7.68,0,0,1,7.5-6.9h27.53a6.23,6.23,0,0,1,6.3,6.9l-2.41,27.53A7.68,7.68,0,0,1,236.15,220Z" transform="translate(-50.42 -104.56)"/><path class="cls-3" d="M233.15,217H205.63a6.22,6.22,0,0,1-6.3-6.9l2.41-27.53a7.68,7.68,0,0,1,7.5-6.9h27.53a6.23,6.23,0,0,1,6.3,6.9l-2.41,27.53A7.68,7.68,0,0,1,233.15,217Z" transform="translate(-50.42 -104.56)"/><path class="cls-11" d="M225.82,193.82c.47-5.34-4-9.66-10.1-9.66s-11.32,4.32-11.78,9.66c-.37,4.21,2.38,7.79,6.53,9.1a5.92,5.92,0,0,1-2.62,2.59,3.68,3.68,0,0,0,.63.31,5.07,5.07,0,0,0,6-2.37C220.32,203.25,225.37,199,225.82,193.82Z" transform="translate(-50.42 -104.56)"/><path class="cls-11" d="M238.49,198.44c.39-4.4-3.34-8-8.33-8a10.58,10.58,0,0,0-2.6.33,10.42,10.42,0,0,1,.19,3,12.44,12.44,0,0,1-6,9.29,8.46,8.46,0,0,0,6.38,3.27,3.26,3.26,0,0,0,4.22,1.89,4.83,4.83,0,0,0,.52-.23,3.58,3.58,0,0,1-1.61-1.94C235.13,205.15,238.17,202.09,238.49,198.44Z" transform="translate(-50.42 -104.56)"/><path class="cls-2" d="M223.53,305.2H203.06a4.63,4.63,0,0,1-4.69-5.13l1.79-20.47a5.72,5.72,0,0,1,5.59-5.14h20.47a4.63,4.63,0,0,1,4.69,5.14l-1.79,20.47A5.71,5.71,0,0,1,223.53,305.2Z" transform="translate(-50.42 -104.56)"/><path class="cls-2" d="M253.57,265.36H228a5.78,5.78,0,0,1-5.85-6.42l2.23-25.59a7.15,7.15,0,0,1,7-6.42h25.6a5.79,5.79,0,0,1,5.85,6.42l-2.23,25.59A7.15,7.15,0,0,1,253.57,265.36Z" transform="translate(-50.42 -104.56)"/><path class="cls-3" d="M250.57,262.36H225a5.78,5.78,0,0,1-5.85-6.42l2.23-25.59a7.15,7.15,0,0,1,7-6.42h25.6a5.79,5.79,0,0,1,5.85,6.42l-2.23,25.59A7.15,7.15,0,0,1,250.57,262.36Z" transform="translate(-50.42 -104.56)"/><path class="cls-3" d="M220.53,302.2H200.06a4.63,4.63,0,0,1-4.69-5.13l1.79-20.47a5.72,5.72,0,0,1,5.59-5.14h20.47a4.63,4.63,0,0,1,4.69,5.14l-1.79,20.47A5.71,5.71,0,0,1,220.53,302.2Z" transform="translate(-50.42 -104.56)"/><path class="cls-11" d="M252.25,232.59H228.5a3,3,0,0,0-3,2.73L224.17,251a2.46,2.46,0,0,0,2.49,2.72H250.4a3,3,0,0,0,3-2.72l1.37-15.66A2.46,2.46,0,0,0,252.25,232.59Zm-18.19,10.54-7.95,7.31,1.28-14.62Zm-5.22-8.65h22.73l-11.49,10.57a1.12,1.12,0,0,1-1.59,0Zm6.44,10,1.75,1.92a2.76,2.76,0,0,0,2.06.88,3.27,3.27,0,0,0,2.21-.88l2.09-1.92,6.7,7.34H227.3Zm9.56-1.34,7.95-7.31-1.28,14.62Z" transform="translate(-50.42 -104.56)"/><polygon class="cls-11" points="151.84 176.76 157.83 179.21 164.43 174.68 159.47 180.55 163.12 185.69 168.88 171.37 151.84 176.76"/><polygon class="cls-11" points="157.42 180.56 160.12 183.86 157.24 183.86 157.42 180.56"/><path class="cls-11" d="M205.45,289.43l-.63-.4a7.58,7.58,0,0,1,.61-.85l.57.49A6.86,6.86,0,0,0,205.45,289.43Z" transform="translate(-50.42 -104.56)"/><path class="cls-11" d="M205.15,294.36a2.72,2.72,0,0,1-1.29-1.6l.72-.2a2,2,0,0,0,1,1.15Zm-.63-2.58-.75-.06a5.36,5.36,0,0,1,.57-1.87l.68.34A4.52,4.52,0,0,0,204.52,291.78Z" transform="translate(-50.42 -104.56)"/><path class="cls-11" d="M220.27,297l-.74-.13a2.74,2.74,0,0,0,.05-.55,1.3,1.3,0,0,0-.27-.89l.58-.48a2.12,2.12,0,0,1,.44,1.37A4.27,4.27,0,0,1,220.27,297Zm-10.63-1.73-.78,0,0-.75a17.86,17.86,0,0,0,1.79,0l0,.75Zm2-.08,0-.75c.61,0,1.22-.1,1.81-.16l.07.75Zm-3.71,0-.31,0a8.68,8.68,0,0,1-1.55-.35l.24-.71a7.35,7.35,0,0,0,1.41.32l.29,0Zm10.8-.15a5,5,0,0,0-1.66-.24V294a5.6,5.6,0,0,1,1.93.29Zm-4.35-.09-.07-.75c.64-.06,1.26-.11,1.83-.14l0,.75C215.61,294.81,215,294.86,214.37,294.92Z" transform="translate(-50.42 -104.56)"/><path class="cls-11" d="M219.65,298.9l-.69-.3c.14-.32.26-.63.35-.9l.71.23C219.92,298.23,219.8,298.55,219.65,298.9Z" transform="translate(-50.42 -104.56)"/><path class="cls-2" d="M247.4,173.07h-23a5.21,5.21,0,0,1-5.27-5.78l2-23a6.43,6.43,0,0,1,6.28-5.78h23a5.21,5.21,0,0,1,5.27,5.78l-2,23A6.43,6.43,0,0,1,247.4,173.07Z" transform="translate(-50.42 -104.56)"/><path class="cls-3" d="M244.4,170.07h-23a5.21,5.21,0,0,1-5.27-5.78l2-23a6.43,6.43,0,0,1,6.28-5.78h23a5.21,5.21,0,0,1,5.27,5.78l-2,23A6.43,6.43,0,0,1,244.4,170.07Z" transform="translate(-50.42 -104.56)"/><path class="cls-11" d="M245.63,157.47a17.12,17.12,0,0,0-14.91-16.34,5.68,5.68,0,0,0-7,1.62c-2,2.43-.22,4,2,5.74s4.21,3.07,6.18.64a5.8,5.8,0,0,0,1.31-3.13,13.43,13.43,0,0,1,7.77,8.52,5.77,5.77,0,0,0-3.22,1c-2.59,1.76-1.45,3.81.1,6.24s2.93,4.31,5.51,2.54A5.72,5.72,0,0,0,245.63,157.47Z" transform="translate(-50.42 -104.56)"/><path class="cls-3" d="M236,105.76H251.7c.78,0,.88-1.2.11-1.2H236.13c-.77,0-.88,1.2-.11,1.2Z" transform="translate(-50.42 -104.56)"/><path class="cls-3" d="M257.45,105.76H262c.78,0,.88-1.2.11-1.2h-4.51c-.77,0-.88,1.2-.1,1.2Z" transform="translate(-50.42 -104.56)"/><g class="cls-12"><path class="cls-11" d="M236,105.76H251.7c.78,0,.88-1.2.11-1.2H236.13c-.77,0-.88,1.2-.11,1.2Z" transform="translate(-50.42 -104.56)"/></g><g class="cls-12"><path class="cls-11" d="M257.45,105.76H262c.78,0,.88-1.2.11-1.2h-4.51c-.77,0-.88,1.2-.1,1.2Z" transform="translate(-50.42 -104.56)"/></g><path class="cls-3" d="M287.7,227.07l-1.38,15.68a.6.6,0,0,0,1.2.1q.68-7.83,1.37-15.68a.6.6,0,0,0-1.19-.1Z" transform="translate(-50.42 -104.56)"/><path class="cls-3" d="M285.82,248.49l-.39,4.51a.6.6,0,0,0,1.19.1l.39-4.5a.6.6,0,0,0-1.19-.11Z" transform="translate(-50.42 -104.56)"/><g class="cls-12"><path class="cls-11" d="M287.7,227.07l-1.38,15.68a.6.6,0,0,0,1.2.1q.68-7.83,1.37-15.68a.6.6,0,0,0-1.19-.1Z" transform="translate(-50.42 -104.56)"/></g><g class="cls-12"><path class="cls-11" d="M285.82,248.49l-.39,4.51a.6.6,0,0,0,1.19.1l.39-4.5a.6.6,0,0,0-1.19-.11Z" transform="translate(-50.42 -104.56)"/></g><path class="cls-4" d="M148.85,157.29s-5.8-.79-5.1,2.23C144.26,161.72,146.21,157.39,148.85,157.29Z" transform="translate(-50.42 -104.56)"/><path class="cls-13" d="M143.81,164.15s4.78-.05,5.52-8.76c0,0,4.56-1.59,7.15,1.25s-3.36,8.34-.08,11.2C156.4,167.84,153.12,169.63,143.81,164.15Z" transform="translate(-50.42 -104.56)"/><path class="cls-4" d="M161.5,133.38s6.16-1.32,7.76,3.21-9.12,2.54-9.12,2.54Z" transform="translate(-50.42 -104.56)"/><path class="cls-5" d="M161.5,133.38s6.16-1.32,7.76,3.21-9.12,2.54-9.12,2.54Z" transform="translate(-50.42 -104.56)"/><path class="cls-4" d="M166.54,144.67c.1-.58.48-1,.86-.93s.61.58.51,1.16-.49,1-.86.94S166.44,145.25,166.54,144.67Z" transform="translate(-50.42 -104.56)"/><path class="cls-14" d="M166.84,145.76l2.69,4.36a3.82,3.82,0,0,1-3.44.29Z" transform="translate(-50.42 -104.56)"/><path class="cls-13" d="M146.47,141.87c-.34,7.41-.64,10.55,2.67,14.72,5.27,4.46,14.17,5.08,16.71-2.09,2.29-6.44,2.46-17.45-4.44-21.19a10.12,10.12,0,0,0-14.94,8.56Z" transform="translate(-50.42 -104.56)"/><path class="cls-4" d="M165.61,142.84a.33.33,0,0,0,.32,0,2.74,2.74,0,0,1,2.44-.44.34.34,0,0,0,.44-.19.35.35,0,0,0-.19-.45,3.39,3.39,0,0,0-3.09.52.33.33,0,0,0-.1.46v0A.3.3,0,0,0,165.61,142.84Z" transform="translate(-50.42 -104.56)"/><path class="cls-4" d="M140.45,165.65s2.06-5.69,10.59-2.06,9.33,8.63,9.33,8.63Z" transform="translate(-50.42 -104.56)"/><path class="cls-15" d="M140.45,165.65s2.06-5.69,10.59-2.06,9.33,8.63,9.33,8.63Z" transform="translate(-50.42 -104.56)"/><path class="cls-13" d="M144.28,273.49s-1.21,10.37-1.79,13.8c-.52,3-17,81.7-17,81.7L118,367.75s-.83-39.87,4.94-66.26c1.19-5.4,3.58-9.92,4.45-14.05.7-3.31-.36-13.55-.36-13.55Z" transform="translate(-50.42 -104.56)"/><path class="cls-13" d="M113,271.8s-3.49,9.5-5.12,12.44c-1.77,3.2-8.49,11.91-8.49,11.91l-35.8,50.23-6.85-4.33s10.33-27.66,25.89-50.18c3.71-5.37,9.05-9.46,12-14.79,1.67-3.06,3.09-13.62,3.09-13.62Z" transform="translate(-50.42 -104.56)"/><path class="cls-13" d="M122.6,175.64s-8.57,10.93-7.84,15.52,14.16,10.18,14.16,10.18l3.41-4.85-8.82-6.44,8.4-9.63Z" transform="translate(-50.42 -104.56)"/><path class="cls-4" d="M136.77,164.7c-1.07-.51-5.82-2.41-16.07,10.91,0,0,3.73,4.65,11.72,7.42C132.42,183,141.42,166.87,136.77,164.7Z" transform="translate(-50.42 -104.56)"/><path class="cls-15" d="M132.42,183s1.5-2.68,3-6c-.24-5.71-.94-12.8-2.94-10.25-2.66,3.38-6.34,10.19-7.55,12.47A31.17,31.17,0,0,0,132.42,183Z" transform="translate(-50.42 -104.56)"/><path class="cls-3" d="M124.35,209a77.88,77.88,0,0,0,31.9,9.18l-11.56,64.41s-33.34-.11-50.77-16.67C93.92,265.88,100.87,230.78,124.35,209Z" transform="translate(-50.42 -104.56)"/><path class="cls-4" d="M122.94,209.14s13.35,9.84,34.61,9.17c0,0,12.21-33.78,4.56-45.21-4.73-7.06-22.89-10.25-27.78-8.24C128.44,167.28,131.85,188.46,122.94,209.14Z" transform="translate(-50.42 -104.56)"/><path class="cls-2" d="M126.14,243.84l-14.85,32.47a103.09,103.09,0,0,0,16,4.39S127.79,250.37,126.14,243.84Z" transform="translate(-50.42 -104.56)"/><path class="cls-15" d="M156.51,178.63l-2.36,1.74a61.52,61.52,0,0,0,8.8,18.39,76,76,0,0,0,1.67-14.33L159.36,180Z" transform="translate(-50.42 -104.56)"/><path class="cls-13" d="M169.89,183.51l8,11.15L198,196l3.69-3.07a1.54,1.54,0,0,1,.87-.36l10.74-.85a.55.55,0,0,1,.58.58l-.06.91a.56.56,0,0,1-.5.51l-5.09.4-1,5.21a1.59,1.59,0,0,1-1.16,1.23l-4,1a1.47,1.47,0,0,1-.78,0l-2.82-.71s-15.67,3.16-22.86,1.89-14.28-13-14.28-13Z" transform="translate(-50.42 -104.56)"/><path class="cls-4" d="M160.63,192s-12.88-17.23-4.93-21.23,16.3,13.7,16.3,13.7S168.74,189.45,160.63,192Z" transform="translate(-50.42 -104.56)"/><path class="cls-3" d="M127.13,368.54a.19.19,0,0,1-.15-.16.21.21,0,0,1,.1-.21c.13-.06,3.08-1.61,4.45-1.17a1,1,0,0,1,.6.48.72.72,0,0,1,0,.85,3.49,3.49,0,0,1-2.45.54A13.49,13.49,0,0,1,127.13,368.54Zm.65-.24c1.53.25,3.62.32,4-.21.06-.06.12-.18,0-.43a.55.55,0,0,0-.37-.29,1.21,1.21,0,0,0-.38-.06A9,9,0,0,0,127.78,368.3Z" transform="translate(-50.42 -104.56)"/><path class="cls-3" d="M127,368.53a.18.18,0,0,1-.08-.18c0-.11.32-2.33,1.4-3.16a1.47,1.47,0,0,1,1.11-.29c.54.07.69.35.71.58.14.93-1.92,2.65-2.93,3.06h-.08A.2.2,0,0,1,127,368.53Zm2.28-3.27a1,1,0,0,0-.68.22,4.58,4.58,0,0,0-1.2,2.5c1-.57,2.41-1.92,2.38-2.49,0-.05,0-.19-.38-.23Z" transform="translate(-50.42 -104.56)"/><path class="cls-4" d="M126.33,367.35l-9-.34a.73.73,0,0,0-.73.55l-1.91,7.29a1.21,1.21,0,0,0,.85,1.48.78.78,0,0,0,.26,0c3.26.07,6.16,0,10.22.16,4.79.18,3.55.7,9.18,1,3.39.17,4.15-3.66,2.72-3.9-6.55-1.07-7.16-3.09-9.61-5.54A3,3,0,0,0,126.33,367.35Z" transform="translate(-50.42 -104.56)"/><path class="cls-3" d="M64.71,346.87a.22.22,0,0,1-.06-.22.19.19,0,0,1,.18-.13c.15,0,3.48,0,4.51,1a1.06,1.06,0,0,1,.32.71.73.73,0,0,1-.4.75,3.54,3.54,0,0,1-2.44-.63A14.23,14.23,0,0,1,64.71,346.87Zm.69.08c1.25.91,3.09,1.91,3.69,1.62.08,0,.18-.1.17-.39a.55.55,0,0,0-.2-.43,1.34,1.34,0,0,0-.31-.22A9.13,9.13,0,0,0,65.4,347Z" transform="translate(-50.42 -104.56)"/><path class="cls-3" d="M64.63,346.81a.18.18,0,0,1,0-.2c.06-.08,1.33-1.93,2.68-2.18a1.46,1.46,0,0,1,1.11.23c.45.31.47.63.38.84-.3.9-2.91,1.51-4,1.42a.12.12,0,0,1-.08,0A.19.19,0,0,1,64.63,346.81Zm3.51-1.88a1,1,0,0,0-.71-.12,4.63,4.63,0,0,0-2.2,1.7c1.2,0,3-.64,3.25-1.15,0-.05.06-.19-.24-.39l-.1,0Z" transform="translate(-50.42 -104.56)"/><path class="cls-4" d="M64.53,345.45l-7.91-4.38a.73.73,0,0,0-.9.15l-5,5.65a1.21,1.21,0,0,0,.09,1.71l.21.15c2.88,1.53,5.51,2.78,9.06,4.75,4.19,2.32,2.85,2.23,7.74,5,3,1.69,5.36-1.39,4.19-2.25-5.36-3.91-5-6-6.08-9.28A3,3,0,0,0,64.53,345.45Z" transform="translate(-50.42 -104.56)"/><path class="cls-4" d="M159,148.24s3-1,1.9-5.35c0,0,1.77-3,1.49-4.59,0,0,9-5.19,3.86-10.88s-14.47-1.89-18.6,5.38c0,0-21.95,7.14-6.67,20.56C155.85,166.47,159,148.24,159,148.24Z" transform="translate(-50.42 -104.56)"/><path class="cls-4" d="M149.94,135.85s-3.43-7.53,1.72-13.22S148.24,130.65,149.94,135.85Z" transform="translate(-50.42 -104.56)"/><path class="cls-3" d="M159,148.24a2.05,2.05,0,0,0,.25-.1c0-5.64-2.17-12.4-10.49-17a18.76,18.76,0,0,0-1.11,1.68s-.63.21-1.6.61c2.88,3.06,10.79,13.19,1.9,24.26C156.86,160.47,159,148.24,159,148.24Z" transform="translate(-50.42 -104.56)"/><path class="cls-13" d="M159.35,145.6a5.72,5.72,0,0,1,1.49,4.11c-.11,2-2.07,2.39-3.63,1.31-1.41-1-3.05-3.2-2.17-5A2.58,2.58,0,0,1,159.35,145.6Z" transform="translate(-50.42 -104.56)"/><path class="cls-4" d="M167.26,143.75l1.62-.08S167.82,144.68,167.26,143.75Z" transform="translate(-50.42 -104.56)"/><path class="cls-6" d="M152.43,158.67a9.93,9.93,0,0,0,3.61,4,28.8,28.8,0,0,0,.91-2.77A13.67,13.67,0,0,1,152.43,158.67Z" transform="translate(-50.42 -104.56)"/></g></svg>