<svg id="OBJECTS" xmlns="http://www.w3.org/2000/svg" xmlns:xlink="http://www.w3.org/1999/xlink" width="472.73" height="348.82" viewBox="0 0 472.73 348.82">
  <defs>
    <style>
      .cls-1, .cls-11, .cls-14, .cls-2, .cls-20, .cls-21, .cls-23, .cls-24, .cls-25, .cls-8 {
        fill: none;
      }

      .cls-2 {
        stroke: #ded8d5;
        stroke-width: 1.45px;
      }

      .cls-11, .cls-2, .cls-21, .cls-25 {
        stroke-miterlimit: 10;
      }

      .cls-3 {
        fill: #ffb1a5;
      }

      .cls-4 {
        fill: #ead254;
      }

      .cls-5 {
        fill: #00857b;
      }

      .cls-6 {
        fill: #ededed;
      }

      .cls-7 {
        fill: #c98bd2;
      }

      .cls-11, .cls-25, .cls-8 {
        stroke: #fff;
      }

      .cls-14, .cls-20, .cls-23, .cls-24, .cls-8 {
        stroke-linecap: round;
        stroke-linejoin: round;
      }

      .cls-8 {
        stroke-width: 1.21px;
      }

      .cls-9 {
        fill: #fff;
      }

      .cls-10 {
        fill: #56dfed;
      }

      .cls-11 {
        stroke-width: 0.87px;
      }

      .cls-12 {
        clip-path: url(#clip-path);
      }

      .cls-13 {
        fill: #8e716c;
      }

      .cls-14, .cls-20, .cls-23, .cls-24 {
        stroke: #282828;
      }

      .cls-14 {
        stroke-width: 0.9px;
      }

      .cls-15 {
        fill: #f3978e;
      }

      .cls-16 {
        fill: #372f5f;
      }

      .cls-17 {
        fill: #261b43;
      }

      .cls-18 {
        fill: #e6e6e6;
      }

      .cls-19 {
        fill: #282828;
      }

      .cls-20 {
        stroke-width: 0.73px;
      }

      .cls-21 {
        stroke: #c98bd2;
        stroke-width: 0.99px;
      }

      .cls-22 {
        fill: #005683;
      }

      .cls-23 {
        stroke-width: 1.03px;
      }

      .cls-24 {
        stroke-width: 1.12px;
      }

      .cls-25 {
        stroke-width: 1.43px;
      }
    </style>
    <clipPath id="clip-path" transform="translate(-85.27 -52.91)">
      <rect class="cls-1" x="171.18" y="101.52" width="337.65" height="244.58"/>
    </clipPath>
  </defs>
  <title>ilustracao-inicio</title>
  <g>
    <line class="cls-2" x1="52.09" y1="90.7" x2="419.22" y2="90.7"/>
    <rect class="cls-2" x="52.09" y="66.64" width="367.13" height="227.14" rx="4.79"/>
    <path class="cls-3" d="M161.55,131.83a3.36,3.36,0,1,1-3.36-3.36h0A3.35,3.35,0,0,1,161.55,131.83Z" transform="translate(-85.27 -52.91)"/>
    <path class="cls-4" d="M174.6,131.83a3.36,3.36,0,1,1-3.36-3.36h0A3.35,3.35,0,0,1,174.6,131.83Z" transform="translate(-85.27 -52.91)"/>
    <path class="cls-5" d="M187.65,131.83a3.36,3.36,0,1,1-3.37-3.36h0a3.36,3.36,0,0,1,3.36,3.35Z" transform="translate(-85.27 -52.91)"/>
    <rect class="cls-6" x="376.22" y="83.16" width="95.09" height="88.6" rx="4.4"/>
    <rect class="cls-2" x="376.22" y="83.16" width="95.09" height="88.6" rx="4.4"/>
    <rect class="cls-7" x="397.06" y="103.11" width="53.7" height="45.6" rx="4.43"/>
    <polygon class="cls-8" points="436.16 133.49 415.17 133.49 411.38 133.49 411.38 116.87 436.16 116.87 436.16 121.03 436.16 133.49"/>
    <polyline class="cls-8" points="411.38 116.87 423.77 126.64 436.16 116.87"/>
    <rect class="cls-6" x="0.72" y="158.44" width="90.68" height="80.14" rx="4.2"/>
    <rect class="cls-2" x="0.72" y="158.44" width="90.68" height="80.14" rx="4.2"/>
    <rect class="cls-3" x="19.64" y="172.16" width="52.44" height="50.98" rx="4.88"/>
    <path class="cls-9" d="M121,240.56a14.82,14.82,0,1,0,21,0h0A14.87,14.87,0,0,0,121,240.56Zm20.93,2.14h-4.72a31.47,31.47,0,0,0-1.84-4.46A13.36,13.36,0,0,1,141.89,242.7ZM126,250.17a23.72,23.72,0,0,1,.74-5.74h9.48a24.21,24.21,0,0,1,.73,5.74Zm10.83,1.75a28,28,0,0,1-1,5.75h-8.73a27.28,27.28,0,0,1-1-5.75Zm-5.39-14.24a13.52,13.52,0,0,1,2.1.17,26.67,26.67,0,0,1,2.14,4.86H127.2a26.67,26.67,0,0,1,2.14-4.86,12.41,12.41,0,0,1,2.1-.18Zm-3.89.58a30.87,30.87,0,0,0-1.84,4.45H121a13.38,13.38,0,0,1,6.56-4.47Zm-7.73,6.18h5.41a25.31,25.31,0,0,0-.74,5.75H118.1a13.13,13.13,0,0,1,1.72-5.76Zm0,13.23a13.08,13.08,0,0,1-1.72-5.75h6.39a27.9,27.9,0,0,0,.91,5.75Zm1.17,1.74h4.92a35.88,35.88,0,0,0,1.82,4.5,13.38,13.38,0,0,1-6.74-4.52Zm10.45,5a12.87,12.87,0,0,1-1.75-.12,39.22,39.22,0,0,1-2.07-4.91h7.64a37.21,37.21,0,0,1-2.07,4.91A12.76,12.76,0,0,1,131.44,264.42Zm3.68-.52a36.7,36.7,0,0,0,1.83-4.51h4.91a13.39,13.39,0,0,1-6.69,4.51Zm7.92-6.24h-5.59a27.34,27.34,0,0,0,.91-5.75h6.4a13.4,13.4,0,0,1-1.69,5.75Zm1.72-7.49h-6.37a25.87,25.87,0,0,0-.74-5.74h5.41a13.23,13.23,0,0,1,1.73,5.74Z" transform="translate(-85.27 -52.91)"/>
    <path class="cls-7" d="M167.57,98.59H93a2.79,2.79,0,0,1-2.79-2.79h0A2.78,2.78,0,0,1,93,93h74.54a2.78,2.78,0,0,1,2.79,2.78h0A2.79,2.79,0,0,1,167.57,98.59Z" transform="translate(-85.27 -52.91)"/>
    <path class="cls-10" d="M555.21,280.68H519a2.79,2.79,0,0,1-2.79-2.79h0A2.79,2.79,0,0,1,519,275.1h36.18a2.79,2.79,0,0,1,2.79,2.79h0A2.79,2.79,0,0,1,555.21,280.68Z" transform="translate(-85.27 -52.91)"/>
    <rect class="cls-7" x="438.08" y="251.67" width="8.63" height="8.36" rx="2.1"/>
    <rect class="cls-3" x="18.99" y="270.99" width="8.63" height="8.36" rx="2.1"/>
    <rect class="cls-3" x="288.11" y="20.4" width="78.01" height="22.39" rx="2.21"/>
    <line class="cls-11" x1="298.74" y1="28.38" x2="351.07" y2="28.38"/>
    <line class="cls-11" x1="298.74" y1="33.75" x2="320.05" y2="33.75"/>
    <polygon class="cls-3" points="296.6 40.26 296.6 48.99 307.58 40.26 296.6 40.26"/>
    <path class="cls-10" d="M231.26,52.91H268.4a4.75,4.75,0,0,1,4.75,4.75h0V92.29A4.76,4.76,0,0,1,268.4,97H232.78a6.27,6.27,0,0,1-6.27-6.26h0V57.68a4.76,4.76,0,0,1,4.74-4.77Z" transform="translate(-85.27 -52.91)"/>
    <path class="cls-9" d="M260.71,78.24l-2.66-2.66a2.36,2.36,0,0,0-1.7-.8,2.44,2.44,0,0,0-1.71.74L253.12,77l-.28-.14c-.19-.09-.33-.14-.48-.23a16.46,16.46,0,0,1-3.93-3.61,8.42,8.42,0,0,1-1.24-1.94c.39-.33.74-.74,1.05-1l.42-.42a2.31,2.31,0,0,0,.26-3.26,3.07,3.07,0,0,0-.26-.25l-1.32-1.33a4.79,4.79,0,0,1-.43-.47l-.9-.91a2.48,2.48,0,0,0-1.71-.73,2.33,2.33,0,0,0-1.7.73l-1.66,1.67a3.71,3.71,0,0,0-1.09,2.32,8.52,8.52,0,0,0,.61,3.6,19.53,19.53,0,0,0,3.68,6.21,23,23,0,0,0,7.58,5.93A12.63,12.63,0,0,0,256,84.43h.34a3.75,3.75,0,0,0,2.84-1.23l0,0a7.67,7.67,0,0,1,.86-.85l.61-.62a2.37,2.37,0,0,0,.11-3.36Zm-1.09,2.47-.57.56c-.34.29-.61.62-.95,1a2.26,2.26,0,0,1-1.71.74h-.23a10.12,10.12,0,0,1-3.68-1.14,21.72,21.72,0,0,1-7.09-5.6,20.49,20.49,0,0,1-3.46-5.74,6,6,0,0,1-.57-2.94,2,2,0,0,1,.67-1.37l1.61-1.61a1,1,0,0,1,.66-.33.92.92,0,0,1,.67.33l.85.85a5.44,5.44,0,0,0,.48.48l1.32,1.32a1.07,1.07,0,0,1,.33.66,1,1,0,0,1-.33.67l-.43.43L246,70.15l0,0a1,1,0,0,0-.28,1.19v0A10.8,10.8,0,0,0,247.25,74,17.21,17.21,0,0,0,251.56,78a3.6,3.6,0,0,0,.61.33,3.58,3.58,0,0,1,.48.24l0,0a1.11,1.11,0,0,0,1.33-.24l1.67-1.66a1,1,0,0,1,.66-.34,1,1,0,0,1,.61.34l2.66,2.66a.9.9,0,0,1,.12,1.26Z" transform="translate(-85.27 -52.91)"/>
    <g class="cls-12">
      <g>
        <path class="cls-13" d="M423.36,264.11l-26.84-3.57.22,2.67-22.95,3.05S359,303.39,372,385h18.66l6.71-82.74h2.39L406.28,385h18.66C438,303.39,423.36,264.11,423.36,264.11Z" transform="translate(-85.27 -52.91)"/>
        <line class="cls-14" x1="303.59" y1="249.31" x2="323.06" y2="249.31"/>
        <path class="cls-3" d="M439,225c-2.29-3.67-15.19-3.53-15.87-3.61-3.48-.41,2.21,27.33,9.48,51.58a8.15,8.15,0,0,0,10.16,5.45c.28-.09.55-.19.82-.3l.15-.06a8.15,8.15,0,0,0,4.83-9C445.12,250.74,441.66,229.21,439,225Z" transform="translate(-85.27 -52.91)"/>
        <polygon class="cls-15" points="356.81 182.09 340.35 188.48 338.8 180.67 355.85 176.41 356.81 182.09"/>
        <path class="cls-15" d="M445.19,250.64s-7.8,10.47-7.43,10,6.12-16.91,6.12-16.91Z" transform="translate(-85.27 -52.91)"/>
        <path class="cls-3" d="M456.34,236.55l-22.36,29a8.21,8.21,0,0,0,1.48,11.52c.18.14.36.27.55.39h0a8.22,8.22,0,0,0,11.38-2.4c.12-.18.22-.36.32-.54l18.62-34.34Z" transform="translate(-85.27 -52.91)"/>
        <path class="cls-3" d="M462.12,244a9.22,9.22,0,1,1,11.62-5.94A9.22,9.22,0,0,1,462.12,244Z" transform="translate(-85.27 -52.91)"/>
        <path class="cls-3" d="M471.68,229.67s2.53-2.62-1.95-4.45-10-1.42-13.55,7.16Z" transform="translate(-85.27 -52.91)"/>
        <path class="cls-16" d="M476.29,211.36l9.37,4.06a1,1,0,0,1,.47,1.28.31.31,0,0,1-.05.1l-12.29,23a1.19,1.19,0,0,1-1.47.56L463,236.31a1,1,0,0,1-.48-1.28l.06-.1,12.31-23A1.19,1.19,0,0,1,476.29,211.36Z" transform="translate(-85.27 -52.91)"/>
        <path class="cls-17" d="M475.43,211l9.36,4.06a1,1,0,0,1,.48,1.27.93.93,0,0,1,0,.1l-12.32,23a1.18,1.18,0,0,1-1.47.56l-9.36-4.06a1,1,0,0,1-.48-1.27.6.6,0,0,1,.06-.11L474,211.49A1.17,1.17,0,0,1,475.43,211Z" transform="translate(-85.27 -52.91)"/>
        <polygon class="cls-18" points="389.11 160.39 397.33 163.95 387.3 182.7 379.07 179.13 389.11 160.39"/>
        <polygon class="cls-9" points="397.33 163.95 379.07 179.13 389.11 160.39 397.33 163.95"/>
        <path class="cls-3" d="M467,224.45a14.7,14.7,0,0,1,4,1.47,2.12,2.12,0,0,1,1,2.35h0a2.09,2.09,0,0,1-1.78,1.58l-4.86.61s-2.54,4.42-5.88,4.87l3.06-7.67Z" transform="translate(-85.27 -52.91)"/>
        <path class="cls-10" d="M404.89,188.49c-.54,0,34.51,4.86,40.3,44.85L427,236.1l-3.67,30.14H372.63L362.55,210.5a63.46,63.46,0,0,1,32.12-22.06Z" transform="translate(-85.27 -52.91)"/>
        <line class="cls-14" x1="341.73" y1="183.18" x2="343.31" y2="165.73"/>
        <path class="cls-3" d="M408.22,189.07V175.19H392v14a31.22,31.22,0,0,0-4.37,1.77l12.69,7.56,13-7.56A20.53,20.53,0,0,0,408.22,189.07Z" transform="translate(-85.27 -52.91)"/>
        <path class="cls-19" d="M391.8,176.88s2.94,7.75,10.72,7.08c7.17-.61,6-11.36,6-11.36Z" transform="translate(-85.27 -52.91)"/>
        <path class="cls-15" d="M384.71,166.56c-2.55,2.32-8.26-6.45-5.79-8.92s4.34,1.4,4.34,1.4l1.1,2.62.83,3.55.2.93Z" transform="translate(-85.27 -52.91)"/>
        <path class="cls-20" d="M380.11,160.76s1.93-.87,3.67,1.94" transform="translate(-85.27 -52.91)"/>
        <path class="cls-15" d="M414.86,166.3c2.34,2.52,8.77-5.74,6.52-8.41s-4.41,1-4.41,1l-1.32,2.52-1.12,3.47-.28.9Z" transform="translate(-85.27 -52.91)"/>
        <path class="cls-20" d="M419.93,160.89s-1.85-1-3.79,1.61" transform="translate(-85.27 -52.91)"/>
        <path class="cls-19" d="M380.23,149.27c0,11.62,8.86,17.12,19.78,17.12s19.77-5.5,19.77-17.12S411,129.76,400,129.76,380.23,137.66,380.23,149.27Z" transform="translate(-85.27 -52.91)"/>
        <path class="cls-3" d="M382.92,150.08a79.28,79.28,0,0,0,2,17.64c1,4.28,3.75,7.27,7.67,9.67l.73.44A13.45,13.45,0,0,0,407,178h0c4.24-2.47,7.21-5.73,8.12-10.29A116.74,116.74,0,0,0,417,150.1s1.58-18-16.8-17.64S382.92,150.08,382.92,150.08Z" transform="translate(-85.27 -52.91)"/>
        <path class="cls-14" d="M398.84,160.35v2.49a1.16,1.16,0,0,0,.08.42,1.1,1.1,0,0,0,1.32.61l1.14-.3" transform="translate(-85.27 -52.91)"/>
        <path class="cls-19" d="M395.92,150.7l-9.13,2.14s.41-2.33,4.15-3.17S395.92,150.7,395.92,150.7Z" transform="translate(-85.27 -52.91)"/>
        <path class="cls-19" d="M404,150.7l8.82,2.14s-.4-2.33-4-3.17S404,150.7,404,150.7Z" transform="translate(-85.27 -52.91)"/>
        <circle class="cls-19" cx="307.18" cy="104.48" r="1.54"/>
        <path class="cls-19" d="M408.58,157.4a1.54,1.54,0,1,1-1.54-1.53h0A1.53,1.53,0,0,1,408.58,157.4Z" transform="translate(-85.27 -52.91)"/>
        <path class="cls-9" d="M394,166.77h11.87S400.57,173.17,394,166.77Z" transform="translate(-85.27 -52.91)"/>
        <circle class="cls-21" cx="306.54" cy="105.08" r="6.54"/>
        <circle class="cls-21" cx="322.62" cy="105.09" r="6.54"/>
        <path class="cls-21" d="M398.36,158a2.11,2.11,0,0,1,3,0" transform="translate(-85.27 -52.91)"/>
        <line class="cls-21" x1="299.99" y1="105.09" x2="297.93" y2="105.03"/>
        <line class="cls-21" x1="329.17" y1="105.09" x2="331.24" y2="105.03"/>
        <path class="cls-19" d="M416.74,156.05s-7.35-9.93-5.65-20a14.48,14.48,0,0,1,6.87,9.82C419.39,153,416.74,156.05,416.74,156.05Z" transform="translate(-85.27 -52.91)"/>
        <path class="cls-19" d="M382.92,156.72s8.54-11.28,6.84-21.32a16.76,16.76,0,0,0-7.35,10.5C381,153,382.92,156.72,382.92,156.72Z" transform="translate(-85.27 -52.91)"/>
        <path class="cls-19" d="M416.13,140s-9.43,10.3-35.23,8.56c0,0,4-15.15,16.45-16.76C397.35,131.82,411.79,130.09,416.13,140Z" transform="translate(-85.27 -52.91)"/>
        <circle class="cls-19" cx="415.47" cy="127.95" r="12.32" transform="translate(19.52 379.11) rotate(-61.5)"/>
        <path class="cls-19" d="M265.09,264.08,242.15,261l.21-2.67-26.84,3.58s-14.64,39.24-1.61,120.85h18.66L239.08,300h2.39l6.72,82.75h18.66C279.88,301.18,265.09,264.08,265.09,264.08Z" transform="translate(-85.27 -52.91)"/>
        <path class="cls-19" d="M263.27,152.45a42.14,42.14,0,0,1-7.71-13.89c-2.27-6.42-9.7-3.81-9.7-3.81s-6.19-8-15.5-5.19-12.55,9.4-12.74,17.28-6.39,9.11-11.16,18.23c-8.43,16.09,5.75,29.64,31.61,25.89v-.25a27.26,27.26,0,0,0,9.47.88C278.53,189.75,275.59,166.93,263.27,152.45Z" transform="translate(-85.27 -52.91)"/>
        <path class="cls-15" d="M253.11,164.39c2.55,2.31,8.24-6.46,5.78-8.92s-4.34,1.4-4.34,1.4l-1.1,2.61-.83,3.55-.2.93Z" transform="translate(-85.27 -52.91)"/>
        <path class="cls-20" d="M257.7,158.56s-1.93-.87-3.64,1.93" transform="translate(-85.27 -52.91)"/>
        <path class="cls-15" d="M223,164.12c-2.35,2.52-8.78-5.73-6.53-8.4s4.42,1,4.42,1l1.32,2.52,1.12,3.46.28.91Z" transform="translate(-85.27 -52.91)"/>
        <path class="cls-20" d="M217.88,158.72s1.85-1,3.8,1.61" transform="translate(-85.27 -52.91)"/>
        <path class="cls-19" d="M257.57,147.1c0,11.61-8.82,17.12-19.76,17.12S218,158.71,218,147.1s8.82-19.51,19.78-19.51S257.57,135.49,257.57,147.1Z" transform="translate(-85.27 -52.91)"/>
        <rect class="cls-3" x="144.33" y="120.09" width="16.27" height="21.06"/>
        <path class="cls-19" d="M227.22,171.69s4.53,9,10.1,10.45a7.79,7.79,0,0,0,4.51-.26c2.1-.73,4.75-3.86,5.21-7.35l.21-2S237.36,178,227.22,171.69Z" transform="translate(-85.27 -52.91)"/>
        <path class="cls-3" d="M254.89,147.9a79.43,79.43,0,0,1-2,17.65c-1,4.27-3.76,7.25-7.67,9.66l-.74.44a13.46,13.46,0,0,1-13.69.15h0c-4.24-2.47-7.21-5.73-8.13-10.3a116.46,116.46,0,0,1-1.84-17.58s-1.58-18,16.78-17.65S254.89,147.9,254.89,147.9Z" transform="translate(-85.27 -52.91)"/>
        <path class="cls-14" d="M236.58,159.15v1.47a1.16,1.16,0,0,0,.08.42,1.1,1.1,0,0,0,1.32.61l1.14-.3" transform="translate(-85.27 -52.91)"/>
        <path class="cls-19" d="M240.4,149.4l9.78,2.31s-.45-2.51-4.45-3.42S240.4,149.4,240.4,149.4Z" transform="translate(-85.27 -52.91)"/>
        <path class="cls-19" d="M235.27,149.4l-9.9,2.31s.45-2.51,4.5-3.42S235.27,149.4,235.27,149.4Z" transform="translate(-85.27 -52.91)"/>
        <path class="cls-19" d="M231.73,155.46a1.55,1.55,0,1,1-1.56-1.53h0A1.55,1.55,0,0,1,231.73,155.46Z" transform="translate(-85.27 -52.91)"/>
        <path class="cls-19" d="M246.32,155.46a1.54,1.54,0,1,1-1.54-1.53h0a1.53,1.53,0,0,1,1.54,1.52Z" transform="translate(-85.27 -52.91)"/>
        <path class="cls-9" d="M230.74,164.22h13.51s-.95,3.71-7.08,3.71A7.17,7.17,0,0,1,230.74,164.22Z" transform="translate(-85.27 -52.91)"/>
        <path class="cls-19" d="M221.07,153.87s7.35-9.93,5.65-20a14.48,14.48,0,0,0-6.87,9.83C218.43,150.79,221.07,153.87,221.07,153.87Z" transform="translate(-85.27 -52.91)"/>
        <path class="cls-19" d="M254.9,153.54s-8.53-10.29-6.84-20.33a16.76,16.76,0,0,1,7.35,10.5C256.83,150.79,254.9,153.54,254.9,153.54Z" transform="translate(-85.27 -52.91)"/>
        <path class="cls-19" d="M221.68,137.85s8.43,11.33,34.23,9.55c0,0-2.94-16.17-15.44-17.76C240.46,129.64,226,127.91,221.68,137.85Z" transform="translate(-85.27 -52.91)"/>
        <path class="cls-3" d="M198.17,313.91c-.38.59,21.47-95.06,15-93.62-.59.13-12,1.19-13.64,4.62-4.9,10-8.4,88.28-8.4,88.28Z" transform="translate(-85.27 -52.91)"/>
        <path class="cls-3" d="M191.11,313.19s-3.52,16.33,9.79,18.13a1.85,1.85,0,0,0,2-1.23l0-.11a1.87,1.87,0,0,0-1-2.32c-2.16-1-5.53-3.42-3.86-9,0,0,1.92-.23,3,3.35a1.54,1.54,0,0,0,1.91,1.06l.26-.1h0a1.55,1.55,0,0,0,.84-1.58c-.32-2.52-1.59-8.57-6.44-10.19Z" transform="translate(-85.27 -52.91)"/>
        <path class="cls-15" d="M195.58,247.9s12.59,17.72,12.66,17.38l4.41-24.89-15.28-6.62Z" transform="translate(-85.27 -52.91)"/>
        <path class="cls-5" d="M230.56,190.6c.54,0-31.11.57-36.89,40.53l18.18,2.79,3.68,30.14h50.73l10.06-55.72s-7.16-12.07-28-18Z" transform="translate(-85.27 -52.91)"/>
        <path class="cls-3" d="M215.1,195.43s4.47,5.94,22.79,5.94c18.15,0,22.79-6.25,22.79-6.25a78.63,78.63,0,0,0-23.12-7.91A82.1,82.1,0,0,0,215.1,195.43Z" transform="translate(-85.27 -52.91)"/>
        <polygon class="cls-22" points="192.1 269.12 192.14 348.82 231.57 348.82 234.6 269.12 192.1 269.12"/>
        <polygon class="cls-22" points="277.7 269.12 277.66 348.82 238.23 348.82 235.2 269.12 277.7 269.12"/>
        <rect class="cls-22" x="215.4" y="269.12" width="40.77" height="27.69"/>
        <line class="cls-23" x1="221.1" y1="296.81" x2="249.21" y2="296.81"/>
        <path class="cls-3" d="M387.88,252.48c2.44,27-.14,46.69.57,96.38l-23.52,1-3.51-93Z" transform="translate(-85.27 -52.91)"/>
        <path class="cls-15" d="M364.32,273.56s14.57-1.34,24.54-7.91l-.27-5.78-24.26,3.31Z" transform="translate(-85.27 -52.91)"/>
        <path class="cls-7" d="M340.94,190.31S387.25,202,395.61,260.7c0,0-22.65,9.82-45.35,5.6l5.1-19.65Z" transform="translate(-85.27 -52.91)"/>
        <path class="cls-3" d="M202.68,214.74l34.46,40.7-10.54,29.7s-26.19-36.42-38-64.57Z" transform="translate(-85.27 -52.91)"/>
        <path class="cls-3" d="M203.81,216.2s-12.1,6.85-15.17,4.37c-5.38-4.32-9.83-20.15-9.83-20.15s22.63-8.52,22.42-8.19S203.81,216.2,203.81,216.2Z" transform="translate(-85.27 -52.91)"/>
        <path class="cls-3" d="M203.81,216.2c-.21-1.21,4.49-14.36,6.1-19.28a2.21,2.21,0,0,0-1.55-2.71l-.17,0h0a2.52,2.52,0,0,0-2.8,1.14L199.72,205Z" transform="translate(-85.27 -52.91)"/>
        <path class="cls-3" d="M203.4,202l-3.9-19.39a2.44,2.44,0,0,0-2.82-1.94h0A2.12,2.12,0,0,0,195,183l1.71,14.44Z" transform="translate(-85.27 -52.91)"/>
        <path class="cls-3" d="M195.65,194.84,190.36,181a2.45,2.45,0,0,0-3-1.47h0A2.09,2.09,0,0,0,186,182l3.92,16Z" transform="translate(-85.27 -52.91)"/>
        <path class="cls-3" d="M190,198.93l-6.7-13.61a2.65,2.65,0,0,0-3.39-1.3h0a2.32,2.32,0,0,0-1.21,3h0L184,199.92Z" transform="translate(-85.27 -52.91)"/>
        <path class="cls-3" d="M178.81,200.46l-5.25-8.33a1.88,1.88,0,0,1,.89-2.51h0a2.15,2.15,0,0,1,2.62.74L184,199.9Z" transform="translate(-85.27 -52.91)"/>
        <path class="cls-24" d="M202.34,200.54s-7.89-.83-8.7,9.68" transform="translate(-85.27 -52.91)"/>
        <path class="cls-3" d="M219.61,271.24s6.48,22.44,19.4,19.46,33.05-30.57,33.05-30.57L267.55,213,231.3,257.64Z" transform="translate(-85.27 -52.91)"/>
        <path class="cls-15" d="M242.54,243.78s12.24,18.47,22.68,25l6.84-8.62-26.37-20.39Z" transform="translate(-85.27 -52.91)"/>
        <path class="cls-7" d="M296.09,189.29s-35.94,8.1-55.06,49.86c0,0,11.58,17.44,30.15,25.18l12.42-15.21Z" transform="translate(-85.27 -52.91)"/>
        <path class="cls-7" d="M296.09,189.16a89.85,89.85,0,0,0-22.86,16.75L276,328h88.46l-.28-121.45S353,195.62,340.94,190.31C330.67,185.76,306.07,184.05,296.09,189.16Z" transform="translate(-85.27 -52.91)"/>
        <path class="cls-23" d="M325.67,224h24.61v12.3A12.31,12.31,0,0,1,338,248.65h0a12.32,12.32,0,0,1-12.3-12.31V224Z" transform="translate(-85.27 -52.91)"/>
        <line class="cls-23" x1="279.06" y1="213.83" x2="280.2" y2="173.9"/>
        <line class="cls-23" x1="189.33" y1="207.18" x2="187.42" y2="172.56"/>
        <path class="cls-19" d="M297.13,144.59l-3.68-18.24c-.21-1.47-.78-3.78-.08-5.93,1.17-3.57,5.46-10.41,12.8-7.28l1.59,7.22s-7.63,1.54-10.68,11.5Z" transform="translate(-85.27 -52.91)"/>
        <path class="cls-19" d="M305.62,116.88c-.13,2.4-2.25,12.89-9.68,16.71C295.94,133.56,289.42,119.59,305.62,116.88Z" transform="translate(-85.27 -52.91)"/>
        <path class="cls-3" d="M331.72,185.8h0v-31H303.16v31l-8.5,3.88s2,12.83,23.07,13.12,23.21-12.5,23.21-12.5Z" transform="translate(-85.27 -52.91)"/>
        <path class="cls-19" d="M306.16,113.12s5.24-13.83,21.4-6.48c9.79,4.45,12.5,10.42,13.69,14.64a17,17,0,0,1,.44,4.93l-3.91,18.38-15.27-25.4-14.76,1.14Z" transform="translate(-85.27 -52.91)"/>
        <path class="cls-15" d="M337.78,144.59a4.73,4.73,0,0,1,5.88-1.55c3.95,1.5,2.2,11.14-3.78,12.38a4.71,4.71,0,0,1-3.81-1S337.55,147.27,337.78,144.59Z" transform="translate(-85.27 -52.91)"/>
        <path class="cls-23" d="M342.89,146.42s-3.33-1.11-5.69,3.78" transform="translate(-85.27 -52.91)"/>
        <path class="cls-15" d="M297.13,144.59a4.74,4.74,0,0,0-5.88-1.55c-4,1.5-2.21,11.14,3.78,12.38a4.71,4.71,0,0,0,3.81-1S297.36,147.27,297.13,144.59Z" transform="translate(-85.27 -52.91)"/>
        <path class="cls-23" d="M292,146.42s3.33-1.11,5.69,3.78" transform="translate(-85.27 -52.91)"/>
        <path class="cls-3" d="M338.17,135.42c0,5.81-.56,18-4.14,25.19-3.35,6.78-8.9,10.43-16.17,10.64s-12.7-2.58-17-11.38-4.14-24.35-4.14-24.35,0-20.77,20.53-20.77C338.81,114.75,338.17,135.42,338.17,135.42Z" transform="translate(-85.27 -52.91)"/>
        <path class="cls-19" d="M303.37,164.21s2.4,12.13,12.95,13.53c12.16,1.6,15.4-13.24,15.4-13.24s-5.38,6.73-13.87,6.74A18.58,18.58,0,0,1,303.37,164.21Z" transform="translate(-85.27 -52.91)"/>
        <path class="cls-23" d="M316,144v4.8a1.63,1.63,0,0,0,.11.59,1.56,1.56,0,0,0,1.85.86l1.59-.42" transform="translate(-85.27 -52.91)"/>
        <path class="cls-19" d="M309.9,141.74a1.87,1.87,0,1,1-1.87-1.86,1.87,1.87,0,0,1,1.87,1.86Z" transform="translate(-85.27 -52.91)"/>
        <path class="cls-19" d="M327.42,141.74a1.87,1.87,0,1,1-1.87-1.86,1.87,1.87,0,0,1,1.87,1.86Z" transform="translate(-85.27 -52.91)"/>
        <path class="cls-19" d="M320.76,132.45l12.57,3.24s-.57-3.52-5.71-4.8S320.76,132.45,320.76,132.45Z" transform="translate(-85.27 -52.91)"/>
        <path class="cls-19" d="M313,132.45l-12.56,3.24s.57-3.52,5.7-4.8S313,132.45,313,132.45Z" transform="translate(-85.27 -52.91)"/>
        <path class="cls-23" d="M310.46,153.69s1.86,1.42,6.73,1.42a17.15,17.15,0,0,0,7.2-1.42" transform="translate(-85.27 -52.91)"/>
        <circle class="cls-25" cx="222.26" cy="89.38" r="7.94"/>
        <circle class="cls-25" cx="241.77" cy="89.38" r="7.94"/>
        <path class="cls-25" d="M315.47,142.29a2.58,2.58,0,0,1,3.62,0" transform="translate(-85.27 -52.91)"/>
        <line class="cls-25" x1="214.32" y1="89.38" x2="211.66" y2="89.31"/>
        <line class="cls-25" x1="249.71" y1="89.38" x2="252.68" y2="89.33"/>
        <path class="cls-19" d="M303.37,117.39s3.81,10.83,21,10.49c11.68-.22,14.48,8.24,14.48,8.24s-2-18.91-2.57-18.73-17.8-4.61-17.8-4.61Z" transform="translate(-85.27 -52.91)"/>
      </g>
    </g>
  </g>
</svg>
