<svg id="Capa_1" data-name="Capa 1" xmlns="http://www.w3.org/2000/svg" width="64.24" height="64.24" viewBox="0 0 64.24 64.24">
  <title>inovacao</title>
  <g>
    <path d="M266.46,239.69a3.13,3.13,0,0,0-5.94,0H254v-4.28h4.22a1.06,1.06,0,0,0,1-1.07h0v-4.48a3.22,3.22,0,0,0,1.93-4.09,3.16,3.16,0,0,0-4-2,3.23,3.23,0,0,0-1.92,4.1,3.17,3.17,0,0,0,1.92,2v3.41H254v-2.14a1.06,1.06,0,0,0-1.05-1.07h-2.1v-5.55a3.22,3.22,0,0,0,1.92-4.09,3.15,3.15,0,0,0-4-2,3.22,3.22,0,0,0-1.93,4.1,3.19,3.19,0,0,0,1.93,2v5.55h-4.21V213a1.06,1.06,0,0,0-1.06-1.07h0c-13,0-23.17,9.55-23.17,21.75,0,5.8,2.27,13.47,5.91,20,.66,1.17,1.51,2.41,2.42,3.72,1.91,2.77,4,5.88,4.27,8.59a3.08,3.08,0,0,0-1.27,2.54,3.23,3.23,0,0,0,.7,2,3.38,3.38,0,0,0-1,2.37,3.19,3.19,0,0,0,3.16,3.21h17.9a3.2,3.2,0,0,0,3.16-3.25v0a3.23,3.23,0,0,0-1-2.3,3.29,3.29,0,0,0,.69-2,3,3,0,0,0-3-3.06h-7.76V245.05h2.1v3.21a1.06,1.06,0,0,0,1.06,1.07h3.16v1.27a3.22,3.22,0,0,0-1.93,4.1,3.14,3.14,0,0,0,4,1.95,3.22,3.22,0,0,0,1.93-4.1,3.19,3.19,0,0,0-1.93-2v-2.34a1.06,1.06,0,0,0-1-1.07h-3.16v-2.14H253A1.06,1.06,0,0,0,254,244h0v-2.14h6.52a3.13,3.13,0,0,0,4,1.94A3.21,3.21,0,0,0,266.46,239.69Zm-8.24-13.9a1.07,1.07,0,1,1-1.06,1.07A1.06,1.06,0,0,1,258.22,225.79Zm-27.87,30.4c-.87-1.26-1.7-2.46-2.3-3.55-3.43-6.15-5.64-13.6-5.64-19,0-10.67,8.71-19.09,20-19.59v7.48c-.28,0-.56,0-.87.08a1.05,1.05,0,0,0-.9.84l-.32,1.55-.79.22-1-1.19a1,1,0,0,0-1.2-.27,15.82,15.82,0,0,0-3.31,2,1.07,1.07,0,0,0-.37,1.18l.48,1.5c-.2.19-.39.39-.58.59l-1.47-.49a1.05,1.05,0,0,0-1.17.37,15.65,15.65,0,0,0-1.93,3.37,1.07,1.07,0,0,0,.26,1.21l1.17,1.07c-.08.26-.15.53-.21.8l-1.64.33a1.06,1.06,0,0,0-.84,1.05v3.65a1.05,1.05,0,0,0,.84,1l1.64.34c.06.26.13.53.21.79l-1.17,1.07a1.07,1.07,0,0,0-.26,1.21,15.65,15.65,0,0,0,1.93,3.37,1,1,0,0,0,1.17.37l1.47-.49c.19.2.38.4.58.59l-.48,1.5a1.07,1.07,0,0,0,.37,1.18,15,15,0,0,0,3.31,2,1,1,0,0,0,1.2-.27l1-1.19c.26.08.52.16.79.22l.32,1.55a1,1,0,0,0,.9.84l.87.09v11.85H235C234.53,262.27,232.33,259.06,230.35,256.19ZM234,237.56a9.58,9.58,0,0,0,8.42,9.57v3.68l-.17-.84a1.08,1.08,0,0,0-.85-.84,10.54,10.54,0,0,1-1.83-.5,1.13,1.13,0,0,0-.36-.06,1.05,1.05,0,0,0-.78.35l-1,1.13a14.2,14.2,0,0,1-1.59-1l.46-1.41a1.1,1.1,0,0,0-.32-1.16,10.84,10.84,0,0,1-1.35-1.36,1,1,0,0,0-1.13-.33l-1.39.47a13.69,13.69,0,0,1-.93-1.61l1.1-1a1.09,1.09,0,0,0,.29-1.16,12.13,12.13,0,0,1-.49-1.86,1.06,1.06,0,0,0-.83-.86l-1.48-.3v-1.9l1.48-.29a1.08,1.08,0,0,0,.83-.86,12,12,0,0,1,.49-1.87,1.09,1.09,0,0,0-.29-1.16l-1.1-1a12.24,12.24,0,0,1,.93-1.61l1.39.46a1,1,0,0,0,1.13-.32,11,11,0,0,1,1.35-1.38,1.07,1.07,0,0,0,.32-1.14l-.46-1.42a14.12,14.12,0,0,1,1.59-.94l1,1.12a1,1,0,0,0,1.14.29,11.51,11.51,0,0,1,1.83-.5,1.08,1.08,0,0,0,.85-.83l.17-.84V228A9.58,9.58,0,0,0,234,237.56Zm8.42-7.4V245a7.5,7.5,0,0,1,0-14.81Zm11.06,42.75a1.06,1.06,0,0,1-1.06,1.07h-17.9a1.08,1.08,0,0,1-1.05-1.11v0a1.07,1.07,0,0,1,1.05-1.07h17.9a1.08,1.08,0,0,1,1.06,1.11Zm-1.32-5.35a1,1,0,0,1,1,.89.34.34,0,0,1,0,.1,1.05,1.05,0,0,1-1.05,1.07H234.79a1.07,1.07,0,0,1-1-1.1v0a1,1,0,0,1,1-.93h17.43Zm-.26-15a1.07,1.07,0,1,1-1.05,1.07A1.06,1.06,0,0,1,251.9,252.54Zm-2.11-32.1a1.07,1.07,0,1,1-1,1.07A1.07,1.07,0,0,1,249.79,220.44Zm2.11,22.47h-7.37v-10.7h7.37Zm11.58-1.07a1.07,1.07,0,1,1,1.06-1.07A1.06,1.06,0,0,1,263.48,241.84Z" transform="translate(-211.88 -211.88)"/>
    <path d="M253.63,260.83a17.31,17.31,0,0,0-1,2.09l1.95.79c.26-.63.55-1.25.87-1.85Z" transform="translate(-211.88 -211.88)"/>
    <path d="M256,257.06c-.42.6-.83,1.22-1.22,1.84l1.76,1.16c.39-.6.79-1.19,1.19-1.78Z" transform="translate(-211.88 -211.88)"/>
    <path d="M258.39,253.5c-.35.57-.75,1.17-1.16,1.77l1.73,1.22c.43-.63.85-1.25,1.22-1.85Z" transform="translate(-211.88 -211.88)"/>
    <path d="M260.37,249.77c-.3.64-.62,1.28-.95,1.9l1.86,1c.35-.65.68-1.32,1-2Z" transform="translate(-211.88 -211.88)"/>
    <path d="M262,245.84c-.25.67-.51,1.33-.79,2l1.94.83c.29-.68.56-1.37.82-2.06Z" transform="translate(-211.88 -211.88)"/>
    <path d="M266.64,233.46l-2.11,0v.19c0,.6,0,1.24-.09,1.89l2.1.18c.06-.71.09-1.41.09-2.07Z" transform="translate(-211.88 -211.88)"/>
    <path d="M266.1,228.91l-2.05.48a17.58,17.58,0,0,1,.35,2l2.1-.25A19.08,19.08,0,0,0,266.1,228.91Z" transform="translate(-211.88 -211.88)"/>
    <path d="M264.59,224.58l-1.89.94a18.48,18.48,0,0,1,.78,1.9l2-.72C265.21,226,264.92,225.27,264.59,224.58Z" transform="translate(-211.88 -211.88)"/>
    <path d="M262.18,220.71,260.53,222a19.5,19.5,0,0,1,1.18,1.68l1.78-1.14A20.22,20.22,0,0,0,262.18,220.71Z" transform="translate(-211.88 -211.88)"/>
    <path d="M259,217.44l-1.35,1.65a18.12,18.12,0,0,1,1.5,1.4l1.51-1.5C260.16,218.45,259.6,217.93,259,217.44Z" transform="translate(-211.88 -211.88)"/>
    <path d="M255.3,214.89l-1,1.88c.6.33,1.19.7,1.75,1.08l1.17-1.78C256.61,215.65,256,215.26,255.3,214.89Z" transform="translate(-211.88 -211.88)"/>
    <path d="M251.17,213.12l-.64,2a19,19,0,0,1,1.92.72l.83-2A21.28,21.28,0,0,0,251.17,213.12Z" transform="translate(-211.88 -211.88)"/>
    <path d="M246.8,212.13l-.27,2.13c.68.09,1.36.21,2,.36l.46-2.09C248.29,212.36,247.54,212.23,246.8,212.13Z" transform="translate(-211.88 -211.88)"/>
    <rect x="2.11" y="57.78" width="2.11" height="2.14"/>
    <rect x="2.11" y="62.06" width="2.11" height="2.14"/>
    <rect x="4.21" y="59.92" width="2.11" height="2.14"/>
    <rect y="59.92" width="2.11" height="2.14"/>
    <rect x="60.03" width="2.11" height="2.14"/>
    <rect x="60.03" y="4.28" width="2.11" height="2.14"/>
    <rect x="62.13" y="2.14" width="2.11" height="2.14"/>
    <rect x="57.92" y="2.14" width="2.11" height="2.14"/>
  </g>
</svg>
