<svg id="Camada_1" data-name="Camada 1" xmlns="http://www.w3.org/2000/svg" width="29.88" height="29.88" viewBox="0 0 29.88 29.88">
  <defs>
    <style>
      .cls-1 {
        fill: #fff;
      }
    </style>
  </defs>
  <title>linkedin</title>
  <path class="cls-1" d="M39,38.06V13.21a2.39,2.39,0,0,0-1.46-2.05,4,4,0,0,0-.76-.18H11.32a.48.48,0,0,1-.23,0,2.33,2.33,0,0,0-1.8,1.35,6.49,6.49,0,0,0-.19.76V38.63a.29.29,0,0,1,.05.2,2.32,2.32,0,0,0,1.34,1.79,2.55,2.55,0,0,0,1.3.23H36.34a2.51,2.51,0,0,0,2.44-1.54A2.67,2.67,0,0,0,39,38.06ZM18.34,22.85V36.46c0,.77-.26,1-1,1H14.4c-.69,0-1-.3-1-1V22.88a.83.83,0,0,1,1-1h3a.83.83,0,0,1,.93.68s0,.09,0,.13S18.34,22.81,18.34,22.85Zm-.2-3.19a3.19,3.19,0,0,1-2.24.93h0a3.18,3.18,0,1,1,2.25-.94Zm17.64,17a.74.74,0,0,1-.65.83H31.58a.73.73,0,0,1-.78-.7h0a.24.24,0,0,1,0-.12V29.33a5.2,5.2,0,0,0-.28-1.79,2.16,2.16,0,0,0-2-1.57A2.38,2.38,0,0,0,26,27.27a4.7,4.7,0,0,0-.56,2.23v7c0,.68-.26,1-.94,1H21.47c-.65,0-.92-.27-.92-.92V22.84c0-.64.29-.92.93-.92H24.6a.78.78,0,0,1,.88.67.34.34,0,0,1,0,.1.45.45,0,0,1,0,.11v.95a7.53,7.53,0,0,1,1.26-1.2A5,5,0,0,1,29,21.73a7.39,7.39,0,0,1,3.4.28,4.55,4.55,0,0,1,2.81,2.84,10.92,10.92,0,0,1,.6,4Z" transform="translate(-9.1 -10.98)"/>
</svg>
