<svg id="Camada_1" data-name="Camada 1" xmlns="http://www.w3.org/2000/svg" width="49.92" height="50.02" viewBox="0 0 49.92 50.02"><defs><style>.cls-1{fill:#fff;}</style></defs><title>linkedin</title><path d="M0,46.28V3.61c.17-.41.1-.87.32-1.26a3.89,3.89,0,0,1,3-2.27A.66.66,0,0,0,3.7,0H46.18a6.9,6.9,0,0,1,1.27.3,4,4,0,0,1,2.44,3.43v41.6a4.57,4.57,0,0,1-.32,2.1A4.2,4.2,0,0,1,45.5,50h-41a4.19,4.19,0,0,1-2.18-.38,3.86,3.86,0,0,1-2.23-3A.49.49,0,0,0,0,46.28Z" transform="translate(0.01 0.01)"/><path class="cls-1" d="M27.36,21.37a12.11,12.11,0,0,1,2.11-2A8.42,8.42,0,0,1,33.19,18a12.29,12.29,0,0,1,5.68.46,7.67,7.67,0,0,1,4.69,4.76,18.26,18.26,0,0,1,1,6.64V43a1.25,1.25,0,0,1-1.08,1.4.91.91,0,0,1-.33,0h-5.6a1.24,1.24,0,0,1-1.31-1.18.61.61,0,0,1,0-.19V30.72a8.75,8.75,0,0,0-.46-3,3.66,3.66,0,0,0-3.29-2.63,4,4,0,0,0-4.2,2.18A7.92,7.92,0,0,0,27.36,31v11.8c0,1.15-.44,1.59-1.58,1.6H20.66c-1.08,0-1.53-.46-1.53-1.55v-23c0-1.07.47-1.53,1.55-1.53h5.21a1.3,1.3,0,0,1,1.47,1.11,1,1,0,0,1,0,.35Z" transform="translate(0.01 0.01)"/><path class="cls-1" d="M15.43,31.36v11.3c0,1.29-.43,1.73-1.72,1.73H8.85c-1.15,0-1.63-.49-1.63-1.63V19.93c0-1.11.49-1.61,1.6-1.61h5.06a1.36,1.36,0,0,1,1.55,1.14,1.41,1.41,0,0,1,0,.41Z" transform="translate(0.01 0.01)"/><path class="cls-1" d="M11.34,16.11a5.31,5.31,0,1,1,5.3-5.32v0a5.29,5.29,0,0,1-5.29,5.29Z" transform="translate(0.01 0.01)"/></svg>