<svg id="Camada_1" data-name="Camada 1" xmlns="http://www.w3.org/2000/svg" width="354.08" height="105.19" viewBox="0 0 354.08 105.19">
  <defs>
    <style>
      .cls-1, .cls-2, .cls-3 {
        fill: #191725;
        stroke: #1d1d1b;
        stroke-miterlimit: 10;
      }

      .cls-1 {
        stroke-width: 0.29px;
      }

      .cls-2 {
        stroke-width: 1.09px;
      }

      .cls-3 {
        stroke-width: 1.2px;
      }
    </style>
  </defs>
  <title>DS Logotipo</title>
  <g>
    <path class="cls-1" d="M487.55,442.58a49.2,49.2,0,0,0,13.56-26.48H483a31.21,31.21,0,0,1-30.14,23.12V376.8A31.21,31.21,0,0,1,483.3,401a65.09,65.09,0,0,1,10.56-21.59h0l.6-.78c.23-.31.48-.62.72-.92A52,52,0,0,0,452.88,356H432.07V460s17.55-.15,16.9,0a57.43,57.43,0,0,0,8.41-2.34s21.86-6.83,29.92-14.85Z" transform="translate(-431.92 -355.45)"/>
    <path class="cls-1" d="M520,371.41a51.92,51.92,0,0,1,32-15.19c-1.79-.15-3.6-.23-5.44-.23A62.35,62.35,0,0,0,497,380.42h0a62.19,62.19,0,0,0-12.68,32.79h20.34a51.85,51.85,0,0,1-14.8,31.4h0a51.89,51.89,0,0,1-32,15.18c1.79.15,3.6.23,5.43.23a62.43,62.43,0,0,0,62.21-57.22H505.15A51.85,51.85,0,0,1,520,371.41Z" transform="translate(-431.92 -355.45)"/>
  </g>
  <g>
    <path class="cls-2" d="M566.2,358.5h15.86a24,24,0,0,1,11.51,2.69,19.59,19.59,0,0,1,7.78,7.48,22.25,22.25,0,0,1,0,21.54,19.59,19.59,0,0,1-7.78,7.48,24,24,0,0,1-11.51,2.69H566.2Zm15.74,40.74a23,23,0,0,0,11-2.54,18.21,18.21,0,0,0,7.36-7.06,21.31,21.31,0,0,0,0-20.4,18.21,18.21,0,0,0-7.36-7.06,23.11,23.11,0,0,0-11-2.54H567.4v39.6Z" transform="translate(-431.92 -355.45)"/>
    <path class="cls-2" d="M618.82,360.42a1.54,1.54,0,0,1-.45-1.08,1.51,1.51,0,0,1,.45-1.11,1.49,1.49,0,0,1,1.1-.45,1.54,1.54,0,0,1,1.08.45,1.46,1.46,0,0,1,.48,1.11,1.65,1.65,0,0,1-1.56,1.56A1.44,1.44,0,0,1,618.82,360.42Zm.5,9h1.2v30.93h-1.2Z" transform="translate(-431.92 -355.45)"/>
    <path class="cls-2" d="M665.81,369.45v28.18q0,7.41-3.53,11t-10.77,3.56a22.13,22.13,0,0,1-7.87-1.37,15.14,15.14,0,0,1-5.83-3.77l.84-.84a16.37,16.37,0,0,0,5.68,3.59,19.91,19.91,0,0,0,7.18,1.26q6.71,0,9.9-3.2t3.2-10V390a14.12,14.12,0,0,1-5.35,6.79,15.07,15.07,0,0,1-8.65,2.54,15.73,15.73,0,0,1-7.78-1.94,14.16,14.16,0,0,1-5.44-5.39,16.21,16.21,0,0,1,0-15.49,13.92,13.92,0,0,1,5.44-5.35,15.82,15.82,0,0,1,7.78-1.92,15.2,15.2,0,0,1,8.65,2.51,14,14,0,0,1,5.35,6.7v-9Zm-8,27a12.65,12.65,0,0,0,5-5,14.51,14.51,0,0,0,1.79-7.2,14.35,14.35,0,0,0-1.79-7.18,12.7,12.7,0,0,0-5-4.94,15.65,15.65,0,0,0-14.42,0,12.61,12.61,0,0,0-5,4.94,14.26,14.26,0,0,0-1.8,7.18,14.41,14.41,0,0,0,1.8,7.2,12.56,12.56,0,0,0,5,5,15.65,15.65,0,0,0,14.42,0Z" transform="translate(-431.92 -355.45)"/>
    <path class="cls-2" d="M683.84,360.42a1.54,1.54,0,0,1-.45-1.08,1.54,1.54,0,0,1,1.56-1.56,1.54,1.54,0,0,1,1.08.45,1.46,1.46,0,0,1,.48,1.11A1.65,1.65,0,0,1,685,360.9,1.46,1.46,0,0,1,683.84,360.42Zm.51,9h1.2v30.93h-1.2Z" transform="translate(-431.92 -355.45)"/>
    <path class="cls-2" d="M717.25,398.34a6.48,6.48,0,0,1-2.66,1.65,10.25,10.25,0,0,1-3.38.57,7.21,7.21,0,0,1-5.53-2.07,7.71,7.71,0,0,1-1.95-5.53V362.69h1.2v6.76H715.4v1.14H704.93v22.07a7.12,7.12,0,0,0,1.62,5,6.15,6.15,0,0,0,4.72,1.73,7.26,7.26,0,0,0,5.15-1.91Z" transform="translate(-431.92 -355.45)"/>
    <path class="cls-2" d="M756.44,369.45v30.93h-1.2v-9.45a14.09,14.09,0,0,1-5.26,7,14.59,14.59,0,0,1-8.56,2.6,14.87,14.87,0,0,1-7.63-2,14.33,14.33,0,0,1-5.41-5.59,16.42,16.42,0,0,1-2-8.08,16.23,16.23,0,0,1,2-8,14.48,14.48,0,0,1,5.41-5.57,15,15,0,0,1,7.63-2,14.63,14.63,0,0,1,8.53,2.6,14.05,14.05,0,0,1,5.29,7v-9.39Zm-8,28.12a13.12,13.12,0,0,0,5-5.18,16.63,16.63,0,0,0,0-15,12.91,12.91,0,0,0-5-5.15,14.6,14.6,0,0,0-14.12,0,12.82,12.82,0,0,0-5,5.15,16.55,16.55,0,0,0,0,15,13,13,0,0,0,5,5.18,14.4,14.4,0,0,0,14.12,0Z" transform="translate(-431.92 -355.45)"/>
    <path class="cls-2" d="M776.84,398.49A7.94,7.94,0,0,1,775,393V356h1.2v36.67q0,6.76,6,6.76a8,8,0,0,0,3.05-.54l.18,1.08a8.43,8.43,0,0,1-3.17.6A6.84,6.84,0,0,1,776.84,398.49Z" transform="translate(-431.92 -355.45)"/>
  </g>
  <g>
    <path class="cls-3" d="M573,458.21a16.84,16.84,0,0,1-6.81-4.72l.93-.86a16.67,16.67,0,0,0,6.41,4.39,22.6,22.6,0,0,0,8.86,1.76q7.2,0,10.87-2.88a9,9,0,0,0,3.66-7.43,8.14,8.14,0,0,0-1.91-5.69,12,12,0,0,0-4.73-3.17,65.21,65.21,0,0,0-7.56-2.18,69.3,69.3,0,0,1-8.07-2.41,12.61,12.61,0,0,1-5-3.57,9.53,9.53,0,0,1-2.09-6.45,10.76,10.76,0,0,1,1.66-5.81,11.42,11.42,0,0,1,5.15-4.23,20.93,20.93,0,0,1,8.66-1.59,23.47,23.47,0,0,1,7.27,1.16,21.08,21.08,0,0,1,6.15,3.07l-.73,1.06a20.4,20.4,0,0,0-6-3,22.4,22.4,0,0,0-6.57-1q-6.94,0-10.58,2.94a9.23,9.23,0,0,0-3.63,7.5,8.26,8.26,0,0,0,1.91,5.72,11.77,11.77,0,0,0,4.76,3.2,71.24,71.24,0,0,0,7.67,2.25,70.6,70.6,0,0,1,8,2.41,12.71,12.71,0,0,1,5,3.5,9.31,9.31,0,0,1,2,6.32,10.49,10.49,0,0,1-1.72,5.81,11.7,11.7,0,0,1-5.25,4.2,22.1,22.1,0,0,1-8.83,1.55A24.47,24.47,0,0,1,573,458.21Z" transform="translate(-431.92 -355.45)"/>
    <path class="cls-3" d="M629.52,457.59a7.13,7.13,0,0,1-2.94,1.81,11.38,11.38,0,0,1-3.74.63,8,8,0,0,1-6.11-2.28,8.56,8.56,0,0,1-2.15-6.11V418.2h1.32v7.47h11.57v1.25H615.9v24.39a7.86,7.86,0,0,0,1.79,5.55,6.78,6.78,0,0,0,5.22,1.92,8,8,0,0,0,5.68-2.12Z" transform="translate(-431.92 -355.45)"/>
    <path class="cls-3" d="M647.72,457.82a15.64,15.64,0,0,1-5.94-6.18,18.33,18.33,0,0,1-2.15-8.92,18.13,18.13,0,0,1,2.15-8.89,15.69,15.69,0,0,1,5.94-6.15,17.43,17.43,0,0,1,17,0,15.71,15.71,0,0,1,5.95,6.15,18.24,18.24,0,0,1,2.15,8.89,18.44,18.44,0,0,1-2.15,8.92,15.66,15.66,0,0,1-5.95,6.18,17.43,17.43,0,0,1-17,0Zm16.3-1.09A14.44,14.44,0,0,0,669.5,451a18.28,18.28,0,0,0,0-16.59,14.21,14.21,0,0,0-5.48-5.68,16.07,16.07,0,0,0-15.6,0,14.23,14.23,0,0,0-5.49,5.68,18.37,18.37,0,0,0,0,16.59,14.47,14.47,0,0,0,5.49,5.72,15.86,15.86,0,0,0,15.6,0Z" transform="translate(-431.92 -355.45)"/>
    <path class="cls-3" d="M695.47,427.81a14.84,14.84,0,0,1,8.53-2.34v1.32h-.4q-6.14,0-9.58,3.93t-3.44,10.74v18.37h-1.32V425.67h1.32v8.85A12.72,12.72,0,0,1,695.47,427.81Z" transform="translate(-431.92 -355.45)"/>
    <path class="cls-3" d="M771.45,429.13Q775,432.8,775,439.68v20.15h-1.32V439.68q0-6.29-3.11-9.62t-8.79-3.34q-6.48,0-10.24,4t-3.77,10.54v18.57h-1.32V439.68q0-6.29-3.11-9.62t-8.79-3.34q-6.46,0-10.24,4t-3.77,10.54v18.57H719.2V425.67h1.32v9.05a13.18,13.18,0,0,1,5.16-6.81,15.36,15.36,0,0,1,8.79-2.44,13.62,13.62,0,0,1,8.59,2.61,12.15,12.15,0,0,1,4.36,7.56,13.48,13.48,0,0,1,5.06-7.43,15.13,15.13,0,0,1,9.22-2.74Q767.91,425.47,771.45,429.13Z" transform="translate(-431.92 -355.45)"/>
  </g>
</svg>
