<svg id="Camada_1" data-name="Camada 1" xmlns="http://www.w3.org/2000/svg" width="178.28" height="52.96" viewBox="0 0 178.28 52.96"><defs><style>.cls-1,.cls-2,.cls-3{fill:#fff;stroke:#fff;stroke-miterlimit:10;}.cls-1{stroke-width:0.15px;}.cls-2{stroke-width:0.55px;}.cls-3{stroke-width:0.61px;}</style></defs><title>ds-logo</title><path class="cls-1" d="M187.17,421.26A24.73,24.73,0,0,0,194,407.93h-9.1a15.73,15.73,0,0,1-15.18,11.65V388.14A15.73,15.73,0,0,1,185,400.35a32.55,32.55,0,0,1,5.31-10.87h0l.3-.39c.12-.16.24-.31.37-.46a26.16,26.16,0,0,0-21.3-10.95H159.23v52.38s8.83-.07,8.51,0a28,28,0,0,0,4.23-1.18s11-3.44,15.07-7.47Z" transform="translate(-159.16 -377.39)"/><path class="cls-1" d="M203.48,385.43a26.14,26.14,0,0,1,16.11-7.65c-.9-.07-1.81-.11-2.74-.11A31.39,31.39,0,0,0,191.91,390h0a31.26,31.26,0,0,0-6.38,16.51h10.24a26.11,26.11,0,0,1-7.45,15.81h0a26.08,26.08,0,0,1-16.11,7.64q1.35.12,2.73.12a31.45,31.45,0,0,0,31.33-28.81H196A26.11,26.11,0,0,1,203.48,385.43Z" transform="translate(-159.16 -377.39)"/><path class="cls-2" d="M226.77,378.93h8a12,12,0,0,1,5.8,1.36,9.83,9.83,0,0,1,3.91,3.76,11.21,11.21,0,0,1,0,10.85,9.83,9.83,0,0,1-3.91,3.76,12.09,12.09,0,0,1-5.8,1.36h-8Zm7.92,20.51a11.55,11.55,0,0,0,5.56-1.28,9.11,9.11,0,0,0,3.7-3.55,10.72,10.72,0,0,0,0-10.27,9.2,9.2,0,0,0-3.7-3.56,11.67,11.67,0,0,0-5.56-1.28h-7.32v19.94Z" transform="translate(-159.16 -377.39)"/><path class="cls-2" d="M253.26,379.9a.82.82,0,0,1-.23-.55.79.79,0,0,1,.78-.78.78.78,0,0,1,.55.23.72.72,0,0,1,.24.55.78.78,0,0,1-.24.55.75.75,0,0,1-.55.24A.72.72,0,0,1,253.26,379.9Zm.25,4.54h.61V400h-.61Z" transform="translate(-159.16 -377.39)"/><path class="cls-2" d="M276.92,384.44v14.19c0,2.49-.6,4.33-1.78,5.53s-3,1.79-5.42,1.79a11.06,11.06,0,0,1-4-.69,7.57,7.57,0,0,1-2.94-1.9l.42-.42a8.38,8.38,0,0,0,2.86,1.8,9.91,9.91,0,0,0,3.62.64,6.79,6.79,0,0,0,5-1.61c1.08-1.08,1.61-2.76,1.61-5v-3.91a7.08,7.08,0,0,1-2.69,3.41,7.52,7.52,0,0,1-4.35,1.28,7.91,7.91,0,0,1-3.92-1,7.16,7.16,0,0,1-2.74-2.72,8.18,8.18,0,0,1,0-7.8,7,7,0,0,1,2.74-2.69,8,8,0,0,1,3.92-1,7.67,7.67,0,0,1,4.35,1.27,7,7,0,0,1,2.69,3.37v-4.55Zm-4,13.6a6.29,6.29,0,0,0,2.51-2.5,7.29,7.29,0,0,0,.9-3.63,7.22,7.22,0,0,0-.9-3.61,6.46,6.46,0,0,0-2.51-2.49,7.93,7.93,0,0,0-7.26,0,6.42,6.42,0,0,0-2.52,2.49,7.22,7.22,0,0,0-.9,3.61,7.29,7.29,0,0,0,.9,3.63,6.25,6.25,0,0,0,2.52,2.5,7.85,7.85,0,0,0,7.26,0Z" transform="translate(-159.16 -377.39)"/><path class="cls-2" d="M286,379.9a.82.82,0,0,1-.23-.55.79.79,0,0,1,.79-.78.78.78,0,0,1,.54.23.72.72,0,0,1,.24.55.78.78,0,0,1-.24.55.75.75,0,0,1-.54.24A.73.73,0,0,1,286,379.9Zm.25,4.54h.61V400h-.61Z" transform="translate(-159.16 -377.39)"/><path class="cls-2" d="M302.82,399a3.29,3.29,0,0,1-1.34.83,5.19,5.19,0,0,1-1.7.29,3.65,3.65,0,0,1-2.79-1,3.92,3.92,0,0,1-1-2.79V381h.61v3.4h5.27V385h-5.27v11.11a3.58,3.58,0,0,0,.81,2.53,3.09,3.09,0,0,0,2.38.87,3.64,3.64,0,0,0,2.59-1Z" transform="translate(-159.16 -377.39)"/><path class="cls-2" d="M322.55,384.44V400H322v-4.76a7.14,7.14,0,0,1-2.65,3.54,7.35,7.35,0,0,1-4.31,1.31,7.49,7.49,0,0,1-3.84-1,7.19,7.19,0,0,1-2.73-2.82,8.82,8.82,0,0,1,0-8.12,7.34,7.34,0,0,1,2.73-2.8,7.49,7.49,0,0,1,3.84-1,7.33,7.33,0,0,1,4.29,1.31,7.07,7.07,0,0,1,2.67,3.51v-4.73Zm-4,14.16A6.48,6.48,0,0,0,321,396a8.31,8.31,0,0,0,0-7.56,6.49,6.49,0,0,0-2.5-2.59,7.38,7.38,0,0,0-7.1,0,6.49,6.49,0,0,0-2.5,2.59,8.31,8.31,0,0,0,0,7.56,6.48,6.48,0,0,0,2.5,2.61,7.24,7.24,0,0,0,7.1,0Z" transform="translate(-159.16 -377.39)"/><path class="cls-2" d="M332.82,399.07a4,4,0,0,1-.93-2.79V377.67h.6v18.46q0,3.4,3,3.4a4.07,4.07,0,0,0,1.54-.27l.09.55a4.29,4.29,0,0,1-1.6.3A3.47,3.47,0,0,1,332.82,399.07Z" transform="translate(-159.16 -377.39)"/><path class="cls-3" d="M230.19,429.14a8.56,8.56,0,0,1-3.42-2.38l.46-.43a8.57,8.57,0,0,0,3.23,2.21,11.34,11.34,0,0,0,4.46.88,8.71,8.71,0,0,0,5.47-1.45,4.54,4.54,0,0,0,1.85-3.74,4.11,4.11,0,0,0-1-2.86,6,6,0,0,0-2.38-1.6,34.79,34.79,0,0,0-3.81-1.1,33.34,33.34,0,0,1-4.06-1.21,6.39,6.39,0,0,1-2.55-1.8,4.78,4.78,0,0,1-1-3.24,5.43,5.43,0,0,1,.83-2.93,5.72,5.72,0,0,1,2.6-2.13,10.61,10.61,0,0,1,4.36-.8,11.77,11.77,0,0,1,3.66.58,10.65,10.65,0,0,1,3.09,1.55l-.36.53a10.23,10.23,0,0,0-3.05-1.51,11,11,0,0,0-3.31-.52,8.27,8.27,0,0,0-5.32,1.48,4.66,4.66,0,0,0-1.83,3.78,4.18,4.18,0,0,0,1,2.88,5.89,5.89,0,0,0,2.4,1.61,35.48,35.48,0,0,0,3.86,1.13,34.06,34.06,0,0,1,4,1.22,6.33,6.33,0,0,1,2.52,1.76,4.67,4.67,0,0,1,1,3.18,5.27,5.27,0,0,1-.87,2.93,5.91,5.91,0,0,1-2.64,2.11,11.12,11.12,0,0,1-4.45.78A12.45,12.45,0,0,1,230.19,429.14Z" transform="translate(-159.16 -377.39)"/><path class="cls-3" d="M258.65,428.82a3.67,3.67,0,0,1-1.49.92,5.7,5.7,0,0,1-1.88.31,4,4,0,0,1-3.07-1.15,4.29,4.29,0,0,1-1.08-3.07V409h.66v3.76h5.82v.63h-5.82v12.28a4,4,0,0,0,.9,2.8,3.42,3.42,0,0,0,2.63,1,4,4,0,0,0,2.86-1.06Z" transform="translate(-159.16 -377.39)"/><path class="cls-3" d="M267.81,428.94a7.92,7.92,0,0,1-3-3.11,9.3,9.3,0,0,1-1.08-4.5,9.18,9.18,0,0,1,1.08-4.47,8,8,0,0,1,3-3.1,8.81,8.81,0,0,1,8.56,0,8,8,0,0,1,3,3.1,9.18,9.18,0,0,1,1.08,4.47,9.3,9.3,0,0,1-1.08,4.5,7.92,7.92,0,0,1-3,3.11,8.81,8.81,0,0,1-8.56,0Zm8.21-.55a7.36,7.36,0,0,0,2.76-2.88,9.22,9.22,0,0,0,0-8.35A7.17,7.17,0,0,0,276,414.3a8.08,8.08,0,0,0-7.86,0,7.17,7.17,0,0,0-2.76,2.86,9.22,9.22,0,0,0,0,8.35,7.36,7.36,0,0,0,2.76,2.88,8,8,0,0,0,7.86,0Z" transform="translate(-159.16 -377.39)"/><path class="cls-3" d="M291.86,413.83a7.4,7.4,0,0,1,4.29-1.18v.66H296a6.08,6.08,0,0,0-4.83,2,8,8,0,0,0-1.73,5.41V430h-.66v-17.2h.66v4.46A6.37,6.37,0,0,1,291.86,413.83Z" transform="translate(-159.16 -377.39)"/><path class="cls-3" d="M330.11,414.5a7.37,7.37,0,0,1,1.78,5.3V430h-.67V419.8a6.87,6.87,0,0,0-1.56-4.84,5.77,5.77,0,0,0-4.43-1.68,6.77,6.77,0,0,0-5.16,2,7.47,7.47,0,0,0-1.89,5.31V430h-.67V419.8A6.87,6.87,0,0,0,316,415a5.77,5.77,0,0,0-4.43-1.68,6.77,6.77,0,0,0-5.16,2,7.47,7.47,0,0,0-1.89,5.31V430h-.67v-17.2h.67v4.56a6.6,6.6,0,0,1,2.59-3.43,7.76,7.76,0,0,1,4.43-1.23,6.88,6.88,0,0,1,4.32,1.31,6.1,6.1,0,0,1,2.2,3.81,6.74,6.74,0,0,1,2.55-3.74,7.62,7.62,0,0,1,4.64-1.38A6.48,6.48,0,0,1,330.11,414.5Z" transform="translate(-159.16 -377.39)"/></svg>