<svg id="Camada_1" data-name="Camada 1" xmlns="http://www.w3.org/2000/svg" width="566.72" height="208.72" viewBox="0 0 566.72 208.72"><defs><style>.cls-1{fill:#fefefe;}.cls-2{fill:#012369;}.cls-3{fill:#022369;}.cls-4{fill:#b1bcd1;}.cls-5{fill:#ccd3e1;}.cls-6{fill:#c5ccdc;}.cls-7{fill:#415a8e;}.cls-8{fill:#fdfdfe;}.cls-9{fill:#fcfdfd;}.cls-10{fill:#fcfcfd;}</style></defs><title>m-dias-branco</title><path class="cls-1" d="M205.31,485q0-80.48,0-161c0-1,.16-1.38,1.33-1.38q282,0,564.06,0c1.16,0,1.33.32,1.33,1.38q0,73.41,0,146.81c-.3.07-.45-.13-.56-.35-1.82-3.84-5.11-6-8.8-7.68a5.41,5.41,0,0,0-3.6-.32,32,32,0,0,1-5.87.38c-4.46.2-8.92.46-13.38.72-3.67.22-7.35.47-11,.76-3.37.26-6.76.45-10.14.67-4.85.32-9.7.65-14.55.81-5.16.16-10.31.57-15.47.38a1.72,1.72,0,0,1-1.9-1.47c-.85-4.29-3.81-5.9-7.84-6.22-1.22-.1-2.44-.29-3.65-.46a9.93,9.93,0,0,0-7.18,1.58,17.22,17.22,0,0,0-5.48,5.29c-3.52,6-9.25,8.91-15.26,11.5-2.7,1.17-5.44,2.28-8.25,3.18-.57.18-1.13.37-1.7.5-2.18.52-2.89-.13-2.52-2.31a18.72,18.72,0,0,1,1.19-4.1c1.67-4.07,3.57-8,6.85-11.08a7.82,7.82,0,0,1,3.08-1.95c1.72-.52,2.61.26,2.31,2a6.3,6.3,0,0,1-1.79,3.33,28.42,28.42,0,0,1-3.46,3.21c-1.13.85-1.09,1.44,0,2.29a5.45,5.45,0,0,0,5.07.78,12.87,12.87,0,0,0,8.22-7.29c1-2.15-.48-5.93-2.67-7a13.05,13.05,0,0,0-3.67-1,17.43,17.43,0,0,0-15.56,4.87,34.33,34.33,0,0,0-8.36,12.55c-.4,1-.87,1.79-2.16,1.13-.75-.39-1.44,0-2.1.32-2.51,1.25-5.06,2.41-7.64,3.51-.7.3-1.59.89-2.16.18s.21-1.38.61-2c1.88-2.77,4.1-5.28,6.13-7.93a33,33,0,0,0,4.12-6.28,5,5,0,0,0,.54-1.67,2.24,2.24,0,0,0-2.27-2.79,13.53,13.53,0,0,0-5.08.77,53.12,53.12,0,0,0-7,2.78,8.73,8.73,0,0,1-1.08.49c-.32.1-.69.24-1-.07s-.08-.74.15-1.06c.52-.74,1.45-1.39.88-2.45a3.62,3.62,0,0,0-3-1.62,3.81,3.81,0,0,0-3.65,1.79c-2.61,3.26-5.24,6.51-7.77,9.84-.27.35-.54.7-.79,1.06-1.31,1.86-2.65,3.21-5.26,3.62-4.07.64-7.72,2.84-11.52,4.44a33.34,33.34,0,0,1-3.83,1.55c-.42.12-.89.32-1.25-.07s-.2-.94,0-1.38a34.72,34.72,0,0,1,2.63-4.27c1.56-2.21,3.13-4.41,4.73-6.59a4.48,4.48,0,0,1,2.69-1.93A4.16,4.16,0,0,0,583.5,464c1.47-2,1.27-4-.91-5.1-4.59-2.31-9.43-3.45-14.21-.62a59.92,59.92,0,0,0-20.52,19.15,3.92,3.92,0,0,1-.52.71c-.63.62-1,.46-1.19-.37-.14-.6.26-1.49-.44-1.73s-1.07.58-1.63.86a42.76,42.76,0,0,1-7.18,2.68c-1.4.4-2.19-.41-1.92-1.86a7,7,0,0,1,1.17-2.52,26.88,26.88,0,0,1,6.9-7.59c2-1.39,3.87-2.88,5.73-4.41a2.59,2.59,0,0,0,1.14-2.82c-.36-1.18-1.47-1.39-2.51-1.49a24,24,0,0,0-7.46.65c-.87.19-1.73.38-2.6.53s-1.2-.23-1-1.09c.08-.34.22-.65.32-1,.27-.87-.15-1.28-.95-1.15-1.22.2-2.46.17-3.67.39a5.67,5.67,0,0,0-4.18,3.41c-1.82,3.72-4.9,6.36-7.75,9.2-.93.91-1.56.79-2.38-.45a32.16,32.16,0,0,0-4.6-5.55,34,34,0,0,0-3-2.6c-2.15-1.59-2.15-2.08-.12-3.74a21,21,0,0,0,2.68-2.73c4.68-5.49,2.4-12.8-2-16.25a30.36,30.36,0,0,0-10.77-5.33A66.31,66.31,0,0,0,486.7,431a64.82,64.82,0,0,0-23,2.5c-4.61,1.36-8.92,3.34-12.38,6.85a11.35,11.35,0,0,0-3.15,10.44,9,9,0,0,0,3.47,5.5,5.87,5.87,0,0,0,3.36.89c1,.11,1.19.56.5,1.33a19,19,0,0,1-1.84,1.49c-1.33,1.15-2.66,2.5-2.34,4.34s2,2.46,3.51,3.05a18.62,18.62,0,0,0,4.61.95,3.82,3.82,0,0,1,1.16.2c.37.16.73.35.73.82a1,1,0,0,1-.58.8,5.32,5.32,0,0,1-1.7.47,33.14,33.14,0,0,0-10.61,3.46c-3.22,1.79-6,4.1-7.05,7.77-2,6.66-.65,10.41,4.7,14.84,4.76,3.94,10.49,5.77,16.49,6.72a72.68,72.68,0,0,0,42.28-6.07A43.89,43.89,0,0,0,516,490a12.68,12.68,0,0,0,4.43-8.87,7.36,7.36,0,0,1,1.79-4.41c3.42-4.07,7.07-7.92,10.79-11.71a4.44,4.44,0,0,1,4-1.3c1.16.14,1.37.6.68,1.56-1.26,1.76-2.89,3.21-4.26,4.89-2.83,3.47-5.67,6.93-7.21,11.24-1.35,3.79.84,6.41,4.9,5.78a26.39,26.39,0,0,0,4.69-1.25,65.59,65.59,0,0,0,8-3.48c1.43-.73,1.53-.66,2.12.81,1,2.39,3,3.27,5.31,3.69,3.07.56,5.7-.67,8.15-2.35,2.2-1.5,2.17-1.51,4.08.25a7.17,7.17,0,0,0,6,1.75c4.3-.52,8.08-2.39,11.71-4.61.67-.41,1.29-.91,2-1.28.33-.17.75-.46,1.05,0s-.07.66-.29.91a27.36,27.36,0,0,0-2,2.58c-.67,1-.43,1.58.53,2.15a7.19,7.19,0,0,0,9-1.43c4.57-4.94,9.06-10,14-14.6a51.46,51.46,0,0,1,4.51-3.8,10.06,10.06,0,0,1,1.61-1c.7-.34,1.5-.8,2.16-.06s0,1.46-.43,2.08c-3.71,5.21-7.75,10.18-11.31,15.49-1.39,2.08-.84,3.53,1.6,4.27a12.47,12.47,0,0,0,6.13,0,46.54,46.54,0,0,0,12.86-4.66,2.59,2.59,0,0,0,1.52-2.33c0-.32.06-.76.51-.77s.43.35.56.6,0,0,.06.14c1.39,4.36,4.57,6.28,8.95,6.67a8.47,8.47,0,0,0,3.33-.47,50.74,50.74,0,0,0,14.16-7.48c2.79-2,2.76-2,3.4,1.2s3,4.8,5.89,5.74c6.23,2,11.47.37,16-4.18a51.51,51.51,0,0,0,7.67-9.69,3.42,3.42,0,0,1,3.24-1.84c8.61,0,17.22-.15,25.82.09,4.42.13,8.86,0,13.26.28,3.89.28,7.77.08,11.64.26,8.79.39,17.58.54,26.38.62,2.34,0,4.68.41,7,.05q0,29.35,0,58.72c0,1-.16,1.22-1.19,1.22q-282.16,0-564.33,0c-1,0-1.2-.23-1.2-1.22q.06-22.42,0-44.85c.29-.08.44.12.59.32a4.45,4.45,0,0,0,7.62-.53c1.22-2.3,2.13-4.75,3.21-7.13.36-.81.72-1.61,1.12-2.4.15-.31.31-.67.72-.67s.6.45.72.81a17.54,17.54,0,0,0,1.36,3.26,10.7,10.7,0,0,0,11.28,5.26,44.28,44.28,0,0,0,12-3.8c.55-.25,1.23-.84,1.76-.3s0,1.21-.24,1.8q-7.6,19.59-15.15,39.21a27.38,27.38,0,0,0-1.4,4.51,3.6,3.6,0,0,0,2.19,4.44,4.56,4.56,0,0,0,5.26-1.56,7,7,0,0,0,.71-1.61c7.66-22.44,16-44.62,24.79-66.64,3.64-9.14,7.44-18.21,11.57-27.13a2.52,2.52,0,0,0-.21-2.9c-.7-.84-1.69-.69-2.61-.47a8.23,8.23,0,0,0-5.4,3.77c-2.41,3.92-4,8.22-5.82,12.41a106.06,106.06,0,0,1-13.18,22.79,29.7,29.7,0,0,1-7.32,7,9.66,9.66,0,0,1-2.1,1.07c-2.93,1-5.25.14-6.75-2.56a18.27,18.27,0,0,1-1.83-8.28c-.36-8.46,1.07-16.75,2.6-25,.19-1,.81-2.24-.23-3s-2.21-.26-3.25.14a6.13,6.13,0,0,0-4.07,3.76c-3.51,10.61-8,20.83-12.41,31.09q-2.29,5.36-4.46,10.76C206.21,484.19,206.16,485,205.31,485Z" transform="translate(-205.28 -322.64)"/><path class="cls-2" d="M772,471.42c-.46.73-1.19.52-1.84.5q-23.31-.53-46.62-1.07c-12-.26-24-.51-36-.37a2.42,2.42,0,0,0-2.34,1.33,49.31,49.31,0,0,1-7.91,10.05c-.36.34-.74.65-1.09,1-4.57,4.53-10,5.05-15.81,3.21-3.81-1.2-5.62-3.53-5.93-7.53l-.08-1.12-1.52,1.12c-4.88,3.52-10,6.69-15.79,8.38-3.83,1.1-10.3-.54-11.9-5.87a3.09,3.09,0,0,0-1-1.85c1,2.61-.64,3.34-2.23,4.13a44.54,44.54,0,0,1-13.64,4.48,10.36,10.36,0,0,1-5.38-.41c-2.3-.92-2.81-2.42-1.46-4.41,3.59-5.29,7.53-10.32,11.32-15.47.23-.31.47-.63.68-.95s.57-.64.24-1.05-.77-.3-1.2-.13a9.21,9.21,0,0,0-2.28,1.35,93.7,93.7,0,0,0-10.52,9.89c-2.82,2.95-5.56,6-8.32,9-2.39,2.6-7.52,2.76-10.07.32-.63-.6-.25-1.06,0-1.55.75-1.32,1.8-2.44,2.66-3.76-1,.65-2,1.32-3,1.93a30,30,0,0,1-10.72,4.3c-3.57.56-6.51-.32-8.58-3.5a21.25,21.25,0,0,1-5.95,3.55,8.48,8.48,0,0,1-7.89-.84c-1.37-.92-2.66-1.92-2.46-4a67.23,67.23,0,0,1-10.52,4.52c-2.06.65-4.11,1.36-6.34.79-2.75-.71-3.84-2.64-3-5.34a27.5,27.5,0,0,1,4.41-8.1,81.94,81.94,0,0,1,7.33-8.67,1.82,1.82,0,0,0,.75-1.07c-1.69-.24-3.18-.59-4.65.95-3.74,3.91-7.53,7.77-11,11.93a6.38,6.38,0,0,0-1.53,3.87,12.84,12.84,0,0,1-4.26,8.94c-6,5.6-13.11,9.11-20.86,11.43C483.43,505,471,506,458.45,503a31.94,31.94,0,0,1-14.14-7.2c-6.9-6.2-4.37-16.17,1.13-20.25a30.18,30.18,0,0,1,12-5c.87-.19,1.74-.33,2.61-.48.56-.09,1.06-.23,1.17-1a23.92,23.92,0,0,0-3.88-.6,11.14,11.14,0,0,1-5.58-2.45,2.59,2.59,0,0,1-.68-3.3,8.55,8.55,0,0,1,2.66-3.29c.7-.57,1.43-1.12,2.35-1.84-1.27-.17-2.31.11-3.27-.27-3.24-1.28-4.64-4-5.16-7.15-.78-4.8,1.25-8.53,4.86-11.5a33.07,33.07,0,0,1,13.95-6.34c12.12-2.77,24.16-2.71,36.05,1.29a29.08,29.08,0,0,1,8.15,4.34c5.09,3.79,7.6,12,1.24,18.25-.85.82-1.72,1.62-2.62,2.37-.62.52-.86.9,0,1.46a31.21,31.21,0,0,1,9.15,9.68c.35.59.69.6,1.15.17,2.74-2.6,5.58-5.15,7.4-8.53,2.19-4.06,5.11-5.62,9.58-4.95.78.11,1,.49.76,1.21s-.5,1.36-.82,2.21a46.21,46.21,0,0,1,9-1.44,9.36,9.36,0,0,1,3.07.27c.87.28,1.69.63,1.88,1.64a2.78,2.78,0,0,1-1,2.9c-2.1,1.62-4.17,3.29-6.32,4.85a28.22,28.22,0,0,0-7,8,7,7,0,0,0-.7,1.46,1.35,1.35,0,0,0,0,1.41,1.26,1.26,0,0,0,1.5.19c2.88-1.05,6-1.64,8.44-3.65.66-.54,1.2-.41,1.21.59a5.46,5.46,0,0,0,.31,2.19c.48-.77.92-1.56,1.44-2.3a58.39,58.39,0,0,1,21-18.6c4.74-2.45,9.68-1.15,14.14,1.55a2.88,2.88,0,0,1,1.37,3.45c-.51,1.62-1.33,3.21-3.13,3.61a4.84,4.84,0,0,0-3.15,2.13c-2.09,3-4.28,5.88-6.21,9a9.61,9.61,0,0,0-1.41,2.87,16.77,16.77,0,0,0,3.81-1.36c3.84-1.63,7.59-3.46,11.55-4.78a5.89,5.89,0,0,1,3.44-.54c.67.17.78-.5,1.05-.84q5.29-6.81,10.63-13.58a4.65,4.65,0,0,1,6.34-.64c1.31,1,1.38,1.8.33,3.07a3.78,3.78,0,0,0-1.09,1.63c2.32-1,4.48-2,6.69-2.87a19,19,0,0,1,6.84-1.63c3,0,4.26,2,2.95,4.72a36.46,36.46,0,0,1-4.43,6.76c-2,2.6-4.2,5.08-6,7.82a4.16,4.16,0,0,0-.92,1.71,3.2,3.2,0,0,0,2.05-.5c2.78-1.24,5.53-2.53,8.3-3.8.57-.26,1.15-.64,1.74,0,.82.86,1.13.28,1.42-.47a34.67,34.67,0,0,1,8.35-12.87,18,18,0,0,1,9.4-5.21,19.7,19.7,0,0,1,9.89.75c2.79,1,4.72,4.94,3.44,8.07s-6.42,7.79-10.46,7.59a5.94,5.94,0,0,1-4.17-1.86c-.7-.7-.61-1.23.16-1.79a24.06,24.06,0,0,0,3.8-3.26,6.7,6.7,0,0,0,1.94-3.72c.17-1.43-.28-1.83-1.63-1.42a7.33,7.33,0,0,0-3.11,1.91,30.5,30.5,0,0,0-8,15.45c-.35,1.65.11,2,1.68,1.56A83.85,83.85,0,0,0,655.15,472a13.89,13.89,0,0,0,4.66-4.2,42.14,42.14,0,0,1,4.53-5.63c3.28-3.4,7-5.47,12-4.38,1.43.32,2.92.35,4.38.59,3.4.59,5.61,2.52,6.23,6,.22,1.23.71,1.51,1.91,1.49,12.1-.13,24.17-.89,36.24-1.69,10.9-.71,21.81-1.17,32.68-2,5.17-.41,8.43,2,11.81,4.91a8.5,8.5,0,0,1,2.4,3.81Z" transform="translate(-205.28 -322.64)"/><path class="cls-2" d="M205.31,485c1.62-3.81,3.26-7.62,4.88-11.44,4.53-10.7,9.3-21.3,12.88-32.38.75-2.31,5-4.58,7.46-4,1.2.29,1.09,1.41,1,2.29-.13,1.27-.46,2.51-.69,3.77-1.39,7.5-2.53,15-2.22,22.69a20.36,20.36,0,0,0,1.46,7.47c1.48,3.36,4,4.31,7.32,2.73a20.75,20.75,0,0,0,6.49-5.25c5.78-6.48,10-14,13.63-21.77,1.88-4,3.56-8.07,5.36-12.1a24,24,0,0,1,2.74-4.69,8.71,8.71,0,0,1,5.52-3.08,2.25,2.25,0,0,1,2.54.74A3,3,0,0,1,274,433c-11.62,25.44-21.31,51.66-30.87,77.92-2,5.38-3.78,10.83-5.65,16.25-1.06,3.06-4.05,4.43-6.82,3.11a3.74,3.74,0,0,1-2.18-4.1,40.38,40.38,0,0,1,2.64-8.1q7.13-18.45,14.27-36.9c.12-.31.21-.64.34-1a2.65,2.65,0,0,0-1.51.5,39.83,39.83,0,0,1-11.56,3.79c-7.28,1-11.69-1.86-13.74-8.88l-.15-.54c-.58.05-.55.56-.69.87-1.35,3-2.65,6-4,9a5.56,5.56,0,0,1-6,2.94,4,4,0,0,1-2.74-2.58Z" transform="translate(-205.28 -322.64)"/><path class="cls-2" d="M318.49,431.33a61.71,61.71,0,0,1,15.16,1.85c10.08,2.71,16.69,9.59,21.56,18.38a25.17,25.17,0,0,1,2.66,17.13,31.24,31.24,0,0,1-6.38,13.76c-7.42,9.5-17.2,15.53-28.59,19.06-8.7,2.69-17.52,3.45-26.42.91a27.51,27.51,0,0,1-11.07-5.94A16.53,16.53,0,0,1,280,480.1a10.49,10.49,0,0,1,7.61-8.4,53.1,53.1,0,0,1,14.2-2.31,1.78,1.78,0,0,0,1.79-1.13c3.2-6.24,6.46-12.45,10.11-18.45,1.33-2.18,5.63-3.73,8.08-2.93,1.46.47,1.85,1.59,1,3.18-1.33,2.58-2.72,5.11-4.06,7.68-1.8,3.48-3.55,7-5.37,10.47-.5,1-.43,1.32.76,1.41q15.89,1.2,31.59,3.86a1.62,1.62,0,0,0,2.15-1.27c3.11-8.68.93-16.18-5.2-22.64-6.95-7.33-15.74-11.23-25.55-13a28.83,28.83,0,0,0-14.14.6,12,12,0,0,0-7.48,6,7.08,7.08,0,0,0-.45,6,17.44,17.44,0,0,0,3.24,5.72c1.5,1.67,1.08,3.15-1.06,3.9-3.24,1.14-7.94-.37-10.12-3.46s-2.84-6.65-.91-10.26c2.89-5.38,7.67-8.42,13.17-10.51A55.42,55.42,0,0,1,318.49,431.33Z" transform="translate(-205.28 -322.64)"/><path class="cls-2" d="M480.34,422.69c-8.5,2.36-17,4.6-25.69,6.36-19,3.88-38.24,6-57.69,4.83-16.8-1-33-4.36-48.2-12a80.39,80.39,0,0,1-23-17.12c-.06-.29,0-.42.33-.33,15,13.59,33,20.54,52.66,23.68A172.74,172.74,0,0,0,420,429.35c31-2.51,60.6-10.77,89.41-22.09,37.28-14.66,71.95-34.13,104.78-57q18.09-12.59,35.2-26.51a3.36,3.36,0,0,1,.94-.68c.41-.14.56.32.72.58.34.56-.27.65-.52.84-3.84,3-7.7,6-11.55,8.93s-7.77,6-11.65,9c-1.31,1.6-3.19,2.51-4.75,3.83-.53.45-1,1-1.5,1.14,1.66-1.17,3.43-2.64,5.31-4a4.47,4.47,0,0,1,1.25-.72l23.1-17c.24-.17.48-.34.71-.53s.59-.44.87,0-.1.52-.31.7-.55.42-.82.63l-23.28,18c-1.26,1.52-3,2.42-4.51,3.66a12.55,12.55,0,0,1-1.79,1.37c2.29-1.59,4.21-3.48,6.61-4.74L652,327.35c.27-.2.57-.39.83-.61s.58-.33.85.05,0,.51-.25.7-.3.25-.45.37c-35,28.38-72.55,52.77-113.34,72a429.32,429.32,0,0,1-43,17.56,2.59,2.59,0,0,1-1.6.93c-4.11,1.42-8.28,2.61-12.41,3.94A22.49,22.49,0,0,1,480.34,422.69Z" transform="translate(-205.28 -322.64)"/><path class="cls-2" d="M395.62,479.71c2.6-.57,4.64-2,7-2.75.53-.17.37-.62.24-1-.46-1.35.23-2.13,1.34-2.7a12.51,12.51,0,0,1,8.42-1.27c.94.19,1.35.58,1.2,1.58-.54,3.78,1.64,5.91,4.77,7.64a6.94,6.94,0,0,0-.67-3.43,51,51,0,0,0-3.09-5.85A18,18,0,0,1,413,467c-.9-4.21,2.78-9.33,7.34-9.32,3.77,0,7.54-.69,11.3.17a7.52,7.52,0,0,1,3.36,1.4c3.3,2.78,3.38,6.11.69,9.54a7,7,0,0,1-7.89,2.67c-2.15-.54-2.54-1.79-1.16-3.47a17.77,17.77,0,0,0,2.78-4.14c.7-1.64.42-2.33-1.18-3a3.75,3.75,0,0,0-5.45,3.3,17.25,17.25,0,0,0,1.63,8.58c1.39,3.19,3,6.28,3.48,9.81.29,2.33-.55,3.81-2.85,4.12a19.7,19.7,0,0,1-8.47-.29A25.77,25.77,0,0,1,407,481c-1-.92-1.74-.81-2.78-.06a33.52,33.52,0,0,1-9.92,5.38c-3.68,1.1-6.92.56-9.34-2.68-.55-.73-.86-.71-1.55-.16a14.49,14.49,0,0,1-7.39,3.42c-3.23.36-5.69-1.06-7.78-3.35A1.57,1.57,0,0,1,368,482a17.2,17.2,0,0,1,3.71-7.44,57,57,0,0,1,20.58-16.39c4.67-2.16,9.43-.9,13.74,1.72a2.91,2.91,0,0,1,1.37,3.46c-.47,1.57-1.26,3.18-3,3.56a4.6,4.6,0,0,0-3.34,2.5c-1.38,2.49-2.88,4.91-4.3,7.37A9.86,9.86,0,0,0,395.62,479.71Z" transform="translate(-205.28 -322.64)"/><path class="cls-2" d="M513.49,413.25l11.16-4.51a124.43,124.43,0,0,1,18.84-6.22,8.86,8.86,0,0,0,2.15-.93c7.45-3.95,14.71-8.27,22.53-11.49,3.39-1.4,6.74-3,10.49-3.27.59,0,1-.48,1.41-.74Q604,372.7,627.83,359.28l.26-.13c.46-.34.89-.43,1.21.16s-.32.7-.62.87q-8,4.44-16,8.85L582.3,385.84c-.49.27-1,.56-1.68,1,1.62.24,2.91.42,4.2.63a1.13,1.13,0,0,0,.82-.19c16.17-9.49,32.67-18.39,49-27.66.46-.26,1-.68,1.34.07s-.48.81-.82,1q-23.42,13-46.88,25.95a7.34,7.34,0,0,0-1.45,1c2.78.34,5.54.79,8.15-.68l43-24.15a4.41,4.41,0,0,0,.64-.36c.45-.36.7-.08,1,.26.44.59-.14.65-.43.81-2.83,1.58-5.67,3.14-8.5,4.71q-18.09,10-36.2,20a8.42,8.42,0,0,0-1.64,1.22c-7.43,6.95-16.12,11.08-26.35,11.75-4.82.31-9.64.19-14.46.34a18.68,18.68,0,0,0-2.77.33c5.06.72,9.81,3.36,15.35,2.31a19.47,19.47,0,0,1-3.2,2.81,42.75,42.75,0,0,1-29.58,7.64C525.71,414,519.66,413.11,513.49,413.25Z" transform="translate(-205.28 -322.64)"/><path class="cls-2" d="M574.09,364.64l14.42-10.45L620,331.33a5.32,5.32,0,0,0,.59-.44.78.78,0,0,1,1.27.12c.53.66-.27.73-.52.91q-7.53,5.44-15.09,10.84c-10.18,7.3-20.33,14.65-30.59,21.84a12.16,12.16,0,0,0-4.72,6.22,2.78,2.78,0,0,0,1.36-.78l45.82-33.25c.36-.26.72-.51,1.07-.78s1-.79,1.49-.1-.36.86-.67,1.09c-6.78,4.89-13.57,9.74-20.36,14.61q-15.46,11.07-30.91,22.15a229.31,229.31,0,0,1-29.37,17.63c0-.06-.09-.15-.07-.18a110.24,110.24,0,0,0,9.45-13.15c4.18-6.44,9.16-12,16.08-15.67a38.67,38.67,0,0,1,13-4.59,4.35,4.35,0,0,0,2-1.09q21.36-15.49,42.71-31a3.27,3.27,0,0,0,.48-.35c.5-.46,1.07-.65,1.49,0s-.36.76-.67,1q-8.25,6-16.53,11.87c-9.9,7.09-19.78,14.23-29.74,21.25A9.23,9.23,0,0,0,574.09,364.64Z" transform="translate(-205.28 -322.64)"/><path class="cls-2" d="M550.27,371.89c-3.18,2.77-4.68,6.13-6.08,9.53a19.59,19.59,0,0,1-6.67,8.4c-6.94,5.2-14.51,9.32-22.1,13.44-1.48.8-3,1.61-4.52,2.31,4.39-5,7.65-10.82,11.44-16.23a41.92,41.92,0,0,1,24.72-16.89c.24-.06.48-.12.72-.16C548.45,372.17,549.13,372.07,550.27,371.89Z" transform="translate(-205.28 -322.64)"/><path class="cls-2" d="M477.56,417.19c4.86-4.35,8.86-9.43,13.2-14.16A42.48,42.48,0,0,1,517,389.49a14.51,14.51,0,0,1,1.61-.11c.72,0,1.44,0,2.54,0-3.4,2.26-5.37,5.3-7.2,8.42a19.93,19.93,0,0,1-8,7.56c-8,4.35-16.53,7.41-25,10.59Z" transform="translate(-205.28 -322.64)"/><path class="cls-2" d="M496.61,417.77c4.68-1.27,9.36-2.51,14.14-3.41a18.78,18.78,0,0,1,10.11.84c3.46,1.24,6.93,2.48,10.84,2.39-1,.73-1.93,1.55-3,2.19a42.18,42.18,0,0,1-29.05,6c-6.11-.93-12.17-2.22-18.37-2.43-.23,0-.5.09-.66-.18,0,0,0-.08,0-.09L481,423a1.89,1.89,0,0,1,.72-.49c4.81-1.46,9.59-3.05,14.36-4.63A2.2,2.2,0,0,1,496.61,417.77Z" transform="translate(-205.28 -322.64)"/><path class="cls-2" d="M360,487.08a11.63,11.63,0,0,1-4.74-.87c-.73-.34-1-.75-.66-1.61a173.07,173.07,0,0,1,12.27-24.27c1.12-1.79,4.84-2.84,6.84-2.07a2,2,0,0,1,1.09,2.89c-1.6,4-3.55,7.86-5.41,11.75-2,4.12-4,8.19-5.64,12.47a2.08,2.08,0,0,1-1.56,1.38A8.24,8.24,0,0,1,360,487.08Z" transform="translate(-205.28 -322.64)"/><path class="cls-2" d="M266.75,487.73a7,7,0,0,1-4.53-1.42,2.63,2.63,0,0,1-.07-4.38c2.3-2,7.31-2,9.6,0a2.57,2.57,0,0,1-.05,4.27A7.21,7.21,0,0,1,266.75,487.73Z" transform="translate(-205.28 -322.64)"/><path class="cls-3" d="M377,455a7.9,7.9,0,0,1-4.64-1.19c-1.62-1.09-1.65-2.56-.1-3.7,2.29-1.69,7.21-1.71,9.54,0,1.56,1.13,1.55,2.59,0,3.71A8.23,8.23,0,0,1,377,455Z" transform="translate(-205.28 -322.64)"/><path class="cls-4" d="M496.61,417.77c-5.19,1.83-10.39,3.62-15.66,5.21-.11-.28-.4-.2-.61-.29L494.82,418c.6-.2,1.21-.36,1.81-.54Z" transform="translate(-205.28 -322.64)"/><path class="cls-5" d="M627.68,342.76l-7.52,5.71-.27-.35,7.48-5.64Z" transform="translate(-205.28 -322.64)"/><path class="cls-6" d="M628.26,344.81l-7.18,5.46-.28-.36,7.15-5.39Z" transform="translate(-205.28 -322.64)"/><path class="cls-7" d="M326.05,404.4l-.33.33a17.4,17.4,0,0,1-3.15-3.7Z" transform="translate(-205.28 -322.64)"/><path class="cls-1" d="M495.05,475.42c3.82.07,9,.05,14.24.29,1.2.06,1.54.59,1.63,1.58a7.08,7.08,0,0,1-1.49,4.67,23.82,23.82,0,0,1-8.09,7.18c-14.3,8.19-29.15,9.5-44.56,3.41a10,10,0,0,1-4.85-4.33c-1.65-2.68-1.18-4.94,1.35-6.8a18.32,18.32,0,0,1,5.87-2.65c6.31-1.85,12.82-2.41,19.33-2.89C483.53,475.51,488.6,475.46,495.05,475.42Z" transform="translate(-205.28 -322.64)"/><path class="cls-1" d="M480.16,435a43.39,43.39,0,0,1,18.58,3.87,21.62,21.62,0,0,1,4.24,2.64c4.81,3.87,5.23,8.53,1.36,13.31-1.16,1.41-2.25,1.85-4,1.23a72.65,72.65,0,0,0-19.58-3.85c-.89-.05-1.11-.28-.64-1.13.62-1.16,1.16-2.38,1.68-3.59.36-.86.13-1.41-.92-1.47a11.86,11.86,0,0,0-3.8.31,3.56,3.56,0,0,0-2.67,2.09,7.71,7.71,0,0,1-7.42,5.45,28.94,28.94,0,0,0-5.84,1.43c-.53.14-.9.2-1.29-.29a35.33,35.33,0,0,1-3.12-4.09,6.93,6.93,0,0,1,1.11-8.4c3.92-3.86,8.82-5.75,14.11-6.79A40.22,40.22,0,0,1,480.16,435Z" transform="translate(-205.28 -322.64)"/><path class="cls-1" d="M508.4,472.49c-12.33-1.89-24.66-3.5-37.19-3.36.18-.9.73-.68,1.12-.72,8.31-.82,16.61-1.83,24.65-4.15,2.61-.76,4.33-.31,6.09,1.54a51.71,51.71,0,0,1,4.48,4.88A2.72,2.72,0,0,1,508.4,472.49Z" transform="translate(-205.28 -322.64)"/><path class="cls-1" d="M473.45,463.52c1.2-2.11,2.27-4.18,3.54-6.13.55-.84,1.65-.39,2.48-.29a61,61,0,0,1,12,2.68l3.11,1C492.65,462.42,479.51,463.32,473.45,463.52Z" transform="translate(-205.28 -322.64)"/><path class="cls-8" d="M573.46,461c-4.31,6.68-9.19,12.86-15.75,17.84a2.09,2.09,0,0,1,.29-2A63.62,63.62,0,0,1,572.53,461a2.5,2.5,0,0,1,.64-.3Z" transform="translate(-205.28 -322.64)"/><path class="cls-8" d="M675,471.36a40.6,40.6,0,0,1-9.24,9.55c-.38.29-.75.5-1.21.23s-.37-.66-.37-1a4.91,4.91,0,0,1,.49-2c.45-1,.9-2.06,1.45-3,.68-1.24,1.12-3.17,2.26-3.46A16.15,16.15,0,0,1,675,471.36Z" transform="translate(-205.28 -322.64)"/><path class="cls-9" d="M468.43,457.51c-1.33,2-2.54,3.85-3.73,5.69-.47.73-1.09.33-1.56.16-1-.37-2.43-.37-2.55-1.6s1.12-1.86,2.09-2.42A15.43,15.43,0,0,1,468.43,457.51Z" transform="translate(-205.28 -322.64)"/><path class="cls-10" d="M671.59,466.4a11.79,11.79,0,0,1,5.65-4.43c.44-.19.57.08.67.47a6.52,6.52,0,0,1-.07,3.34c-.1.39-.28.6-.68.61A43,43,0,0,1,671.59,466.4Z" transform="translate(-205.28 -322.64)"/><path class="cls-1" d="M345.74,476.28a33.24,33.24,0,0,1-21.09,15.37A44.73,44.73,0,0,1,296.87,490a17.13,17.13,0,0,1-5.41-3.24c-2.85-2.62-2.56-5.48.81-7.41,3-1.71,6.39-2.21,9.75-2.62,14.41-1.77,28.86-1.31,43.31-.63A3,3,0,0,1,345.74,476.28Z" transform="translate(-205.28 -322.64)"/><path class="cls-8" d="M380.33,478.06a2.12,2.12,0,0,1,.48-1.89,60,60,0,0,1,14.35-14.23,5.43,5.43,0,0,1,.68-.32C395.43,464.71,384.4,476.41,380.33,478.06Z" transform="translate(-205.28 -322.64)"/></svg>