<svg id="Capa_1" data-name="Capa 1" xmlns="http://www.w3.org/2000/svg" width="124" height="112" viewBox="0 0 124 112">
  <defs>
    <style>
      .cls-1 {
        fill: #fff;
      }
    </style>
  </defs>
  <title>menu-button</title>
  <g>
    <path class="cls-1" d="M112,6H12a12,12,0,0,0,0,24H112a12,12,0,0,0,0-24Z" transform="translate(0 -6)"/>
    <path class="cls-1" d="M112,50H12a12,12,0,0,0,0,24H112a12,12,0,0,0,0-24Z" transform="translate(0 -6)"/>
    <path class="cls-1" d="M112,94H12a12,12,0,0,0,0,24H112a12,12,0,0,0,0-24Z" transform="translate(0 -6)"/>
  </g>
</svg>
