<svg id="Camada_1" data-name="Camada 1" xmlns="http://www.w3.org/2000/svg" width="452.79" height="215.88" viewBox="0 0 452.79 215.88"><defs><style>.cls-1{fill:#fefefe;}.cls-2{fill:#231f20;}.cls-3{fill:#232020;}.cls-4{fill:#fdfdfd;}.cls-5{fill:#6a6768;}.cls-6{fill:#f48120;}.cls-7{fill:#f48220;}.cls-8{fill:#fcb613;}.cls-9{fill:#e46020;}.cls-10{fill:#f48221;}.cls-11{fill:#242021;}.cls-12{fill:#252122;}.cls-13{fill:#262223;}.cls-14{fill:#262324;}.cls-15{fill:#fac89e;}.cls-16{fill:#2b2728;}.cls-17{fill:#facfaa;}.cls-18{fill:#f7a158;}.cls-19{fill:#fac99f;}.cls-20{fill:#fcfcfc;}.cls-21{fill:#f6f6f6;}.cls-22{fill:#f9bf8e;}.cls-23{fill:#f2f2f2;}.cls-24{fill:#f5f4f4;}.cls-25{fill:#fbfbfb;}</style></defs><title>sao-luis</title><path class="cls-1" d="M274.05,606.8q0-106.26-.05-212.52c0-1.82.5-2,2.11-2q224.28.06,448.55,0c1.88,0,2.14.49,2.13,2.2q-.07,55.3,0,110.6c-1,.82-2.14.59-3.25.59h-50c-4.42,0-4-.16-4.82,4-.67,3.32-1.4,6.64-1.94,10-.4,2.43-.28,2.58,2.14,2.59,8.33,0,16.67,0,25,0,1.09,0,2.63-.45,3.08.72s-1.07,1.79-1.87,2.5c-8.26,7.41-15.82,15.51-23.35,23.65-4.45,4.82-8.78,9.76-13.44,14.39A10.41,10.41,0,0,0,655,569.8c-.32,2.38-.93,4.71-1.23,7.09-.22,1.8.16,2.21,2,2a34.39,34.39,0,0,1,4.65-.21h50.21c3.2,0,3.19,0,3.77-3.19.68-3.75,1.56-7.47,2.16-11.23.32-2,.23-2.18-1.88-2.18-9.46,0-18.93,0-28.39,0-1.08,0-2.63.42-3.06-.75s1-1.83,1.86-2.54a274.81,274.81,0,0,0,21-21.22c5.32-5.84,10.72-11.61,16.06-17.44a7.16,7.16,0,0,0,2-4.07c.36-2.65.91-5.28,1.44-7.92.13-.67,0-1.65,1.13-1.75q0,49.92,0,99.82c0,1.59-.36,2-1.95,2q-189.78-.06-379.58,0c1.05-1.49,2.81-2.11,4.14-3.26.69-.59.88.57,1,1.12a1.24,1.24,0,0,0,1.5,1.11c.88,0,1.23-.57,1.26-1.38a76.43,76.43,0,0,1,1.5-10.23c.24-1.41-.19-2.1-1.6-2.38-5.82-1.13-10.88,2.13-12.07,7.86-.53,2.56-.06,4.76,2.38,6.2.35.21.76.42.63,1H315.17c-.13-.57.32-.71.69-.88.79-.36,2.07-.43,1.64-1.72s-1.57-.41-2.37-.34a5.52,5.52,0,0,1-3.65-.7c-.68-.44-1.28-1-1.13-1.87s1-.87,1.68-.95a18.48,18.48,0,0,0,4.55-.92,4.18,4.18,0,0,0,3-4.14c-.19-1.67-1.53-2.89-3.67-3.27a6.71,6.71,0,0,0-4.67.89,8.58,8.58,0,0,0-4.3,7.76,5.29,5.29,0,0,0,2.8,4.9c.5.28,1.3.36,1.2,1.24H295.67c-.6-2.2.14-4.34.39-6.48.41-3.57.93-7.13,1.35-10.7.13-1,.72-2.33-.81-2.9s-3.76,0-4.41,1.48c-1.37,3.1-3.11,6-4.33,9.18a11.71,11.71,0,0,1-.58,1.37c-.28.53-.46,1.38-1.24,1.19s-.63-1-.68-1.63c-.23-3.16-.57-6.31-.86-9.47-.1-1.12-.21-2.17-1.68-2.18s-3.08-.44-3.62,1.62-1,4.11-1.55,6.15c-1,3.66-1.56,7.45-3,11A.45.45,0,0,1,274.05,606.8Z" transform="translate(-274 -392.27)"/><path class="cls-2" d="M726.75,506.34c-1.17,3.47-1.38,7.13-2.12,10.69a4.67,4.67,0,0,1-1,2.47c-10,10.6-19.56,21.53-29.78,31.88-3.37,3.43-6.95,6.63-10.68,9.78.62.62,1.36.32,2,.32,10.17,0,20.34,0,30.5-.11,1.58,0,2.22.18,1.82,2-1,4.68-1.94,9.39-2.76,14.11-.24,1.44-.81,1.74-2.19,1.74q-26.58,0-53.16.2c-1.77,0-3.53,0-5.3.06-.92,0-1.26-.27-1.08-1.24.72-3.81,1.4-7.62,2.07-11.44a2.37,2.37,0,0,1,.71-1.26c11.9-12.55,23.11-25.76,35.77-37.57,1.75-1.64,3.58-3.18,5.39-4.8-.54-.62-1.21-.31-1.78-.31-9.25,0-18.5,0-27.75.11-1.58,0-1.87-.44-1.56-1.9,1-4.69,2-9.39,2.74-14.11.26-1.61.91-1.84,2.33-1.84,14.48,0,28.95-.1,43.42-.12,4.16,0,8.32-.31,12.47.08Z" transform="translate(-274 -392.27)"/><path class="cls-2" d="M274.41,606.72c1.44-6,2.9-12,4.32-18.05.22-.95.69-1.19,1.61-1.23,4.37-.2,4.42-.24,4.87,3.94.35,3.19.57,6.4.85,9.72,1.8-3.83,3.66-7.49,5.25-11.27.79-1.89,1.76-2.66,3.88-2.52,3.4.22,3.37.05,2.9,3.42-.7,5.1-1.33,10.2-2,15.29-.09.69-.27,1.37-.41,2.05H294c-3-.5-3-.5-2.55-3.66a68,68,0,0,1,2-10.86c-1.24,4.51-3.76,8.79-6,13.18-.84,1.64-2.45,1.12-3.8,1.08s-1.15-1.25-1.26-2.09a76.83,76.83,0,0,1-.87-11.25c-.13,3-1.13,6.73-2.09,10.49a5.15,5.15,0,0,1-1,2.51c-1,.66-2.15.33-3.23.36C274.36,607.84,274.15,607.4,274.41,606.72Z" transform="translate(-274 -392.27)"/><path class="cls-2" d="M344,608.07c-3.49-1.77-4.35-3.77-3.42-7.94,1.33-6,9-9.87,14.39-7.3.75.37.55.89.48,1.41-.61,4.17-1.64,8.26-1.81,12.51-.07,1.73-1.82.52-2.76.8-.67.2-1.28,0-1.17-.94a16.76,16.76,0,0,0,0-1.78,8.08,8.08,0,0,1-4.45,3.24Z" transform="translate(-274 -392.27)"/><path class="cls-3" d="M310.93,608.07c-4.27-2-5.55-5.1-3.92-9.62,1.55-4.32,5.75-6.72,9.83-5.63a4.3,4.3,0,0,1,1,8,14,14,0,0,1-5.75,1.19c-.46,0-1.16-.22-1.32.29a1.53,1.53,0,0,0,.78,1.61c1.63,1.15,3.36.72,5.08.28.41-.11.79-.28,1.19-.42.94,2.92.94,2.92-2.6,4.26Z" transform="translate(-274 -392.27)"/><path class="cls-4" d="M278.22,607.2l3.41-14.91c.44,4.84.81,9.16,1.25,13.47.07.63-.44,1.8.84,1.77s2.44.57,3.23-1.13c2.17-4.71,4.53-9.34,6.9-14.15-.67,4.4-1.22,8.67-2,12.9-.36,2,0,3,2.13,2.92H278.29A.68.68,0,0,1,278.22,607.2Z" transform="translate(-274 -392.27)"/><path class="cls-5" d="M278.22,607.2l.07.87a18.61,18.61,0,0,0-3.17,0c-1.35.23-1.05-.61-1.07-1.31a.29.29,0,0,1,.36-.08C275.46,608.6,276.88,607.57,278.22,607.2Z" transform="translate(-274 -392.27)"/><path class="cls-2" d="M328.38,477.22c8.27.16,15.44,1,22.24,4,1.38.6,1.89,1.07,1.23,2.7-2,4.95-3.82,10-5.63,15-.41,1.14-.71,1.28-1.87.79-7.76-3.34-15.78-4.75-24.15-2.76a13.37,13.37,0,0,0-5.1,2.47,8.8,8.8,0,0,0-1.23,13.38,29.79,29.79,0,0,0,6.87,5.26c4.27,2.61,8.74,4.85,12.92,7.63,20.27,13.44,14.13,39.67-.36,49.33-9.78,6.52-20.62,8.45-32.08,7.82-7.36-.4-14.57-1.67-21.3-4.88-3.83-1.83-3.82-1.85-2.26-5.79,1.69-4.26,3.42-8.5,5-12.78.51-1.35.93-1.63,2.31-.89A44.94,44.94,0,0,0,310.06,564a17.81,17.81,0,0,0,8.37-2.7,10.26,10.26,0,0,0,2-16.33,33.45,33.45,0,0,0-8.25-5.86,96.62,96.62,0,0,1-13.07-8.18c-16.21-12.64-11.61-32.28-2.21-41.75,7.26-7.32,16.32-10.58,26.34-11.63C325.24,477.32,327.29,477.28,328.38,477.22Z" transform="translate(-274 -392.27)"/><path class="cls-2" d="M397,566.39a59.5,59.5,0,0,1-7.14,8.77c-6.06,5.68-13.22,8.4-21.48,7.26C358,581,351,573.34,349.5,562.49c-3-22.06,9.09-51.42,41.66-56.64,11.41-1.83,22.63-.76,33.74,2.19,1.14.3,1.35.74,1.13,1.91-2.57,13.71-5.16,27.43-7.56,41.17a155.65,155.65,0,0,0-2.3,27.6c0,1.72-.49,2.12-2.11,2.1-5.44-.07-10.88,0-16.31.08-1.35,0-1.69-.37-1.59-1.67C396.49,575,396.71,570.67,397,566.39Z" transform="translate(-274 -392.27)"/><path class="cls-2" d="M453,582.25c-9.38-.18-18.31-3.07-24.78-11.37-4.67-6-6.36-13-6.12-20.44.48-14.92,5.7-27.73,17.75-37,10.48-8.09,22.49-10.54,35.38-7.8s21.36,12.55,22.37,26.84c1.13,16.08-4,30.07-16.77,40.55C473,579.41,463.75,582.13,453,582.25Z" transform="translate(-274 -392.27)"/><path class="cls-2" d="M607.68,568a55.63,55.63,0,0,1-10.3,9,27.43,27.43,0,0,1-21.89,3.74c-7.29-1.83-11.63-7.79-12.38-16.11-.71-7.93.9-15.59,2.32-23.29,2.06-11.16,4.16-22.31,6.15-33.48.28-1.59.78-2.23,2.5-2.21q9,.11,18-.1c1.56,0,1.72.47,1.47,1.81q-3.7,19.74-7.31,39.5a40.67,40.67,0,0,0-.7,9.48c.31,5.7,4.45,8.59,10,7a15,15,0,0,0,7.33-5.14c4.37-5.24,6.51-11.48,7.74-18.06q3.09-16.41,6-32.86c.24-1.36.71-1.83,2.16-1.82,6.07.08,12.14.07,18.21-.07,1.65,0,1.85.49,1.59,1.9-2.73,14.84-5.48,29.67-8.12,44.52q-2.32,13-4.32,26.07c-.25,1.59-.85,1.85-2.27,1.84-5.23-.07-10.45,0-15.68,0-1.33,0-1.81-.18-1.57-1.71C607.07,574.68,607.32,571.32,607.68,568Z" transform="translate(-274 -392.27)"/><path class="cls-2" d="M528.37,580.28c-9.61,0-19.21,0-28.82,0-1.18,0-1.74,0-1.45-1.56q7.93-42.53,15.72-85.05c.88-4.79,1.8-9.56,2.62-14.36.17-1,.44-1.43,1.55-1.42,6.35,0,12.71,0,19.06-.09,1.42,0,1.36.5,1.16,1.6q-4,21.52-7.9,43.06-3.42,18.62-6.9,37.21c-.31,1.62.6,1.34,1.5,1.33,11.79-.06,23.58-.08,35.37-.23,1.9,0,2.23.41,1.84,2.22-1,4.89-2,9.81-2.74,14.76-.29,1.92-1,2.31-2.84,2.3-9.39-.09-18.78,0-28.17,0Z" transform="translate(-274 -392.27)"/><path class="cls-2" d="M652.51,505.18c3.1,0,6.21.06,9.31,0,1.2,0,1.45.32,1.25,1.45q-4.76,25.67-9.45,51.36c-1.19,6.51-2.44,13-3.53,19.55-.26,1.6-.83,2.07-2.42,2q-9.1-.09-18.21.1c-1.44,0-1.64-.44-1.4-1.7q6.27-33.57,12.5-67.14c.33-1.78,0-4.13,1.29-5.17s3.54-.26,5.36-.32,3.53,0,5.3,0Z" transform="translate(-274 -392.27)"/><path class="cls-6" d="M424,461.49l-4.48-3.05c-3.09-3.08-6.38-6-8.49-9.92-2.65-5-1.41-9.45,3.44-12.26,2-1.18,4.29-.49,6.43-.79,3.89-.54,7.56.66,11.1,2.12,4.76,2,9.61,3.31,14.82,2.91a7,7,0,0,0,2.69-.44c1.62-.8,2.44.27,2.53,1.5.16,2.4,1.22,4.47,1.9,6.68A35.17,35.17,0,0,1,455.15,461a13.22,13.22,0,0,1-3,7.31A15.69,15.69,0,0,1,441,474.86a6.12,6.12,0,0,1-3.89-.71,17.53,17.53,0,0,1-7.18-7.56,7.78,7.78,0,0,1-.5-1.4c-.3-1.29.26-2.88-1.6-3.56A6.53,6.53,0,0,0,424,461.49Z" transform="translate(-274 -392.27)"/><path class="cls-6" d="M491.64,472.08,489,475.89c-3.22,3.05-6.39,6.12-10.56,8a12.87,12.87,0,0,1-14.65-2.51c-.75-.76-1.51-1.51-1.26-2.74a1.62,1.62,0,0,0-.2-1c-2.16-4.19-1.12-8.28.57-12.25a22,22,0,0,0,2.19-10.65,12.7,12.7,0,0,0-1-4.51c-.65-1.38-.27-2.17,1.3-2.31,7.27-.66,14.5-2.44,21.85-1,6.34,1.28,11.68,4.17,14.88,10.09,1.48,2.73,1.13,4.41-.91,6.73a11.15,11.15,0,0,1-8,4.25C491,468.1,490.33,470,491.64,472.08Z" transform="translate(-274 -392.27)"/><path class="cls-7" d="M431.81,484.64c2.67.27,5.33.51,8,.8,2.84.3,5.41-.73,8-1.6a36.29,36.29,0,0,0,5.33-2c1.87-1,3.88-.05,5.75-.78.62-.25.79.6,1.08,1.06,1.86,2.9,3.56,6,6.31,8.14,4.69,3.71,11.28,5.63,16.7,2.86a13.29,13.29,0,0,0,7.26-9.1c.71-3.45,3.16-5.06,5.68-6.26,3.46-1.65,7-3.22,10.42-4.92,2.92-1.45,5.13-3.45,5.94-6.72,1.07.05.8.82.6,1.33-.87,2.23-1.55,4.61-3.76,6a13,13,0,0,1-2.42,1.41,7.77,7.77,0,0,0,2.29-1.35,9.58,9.58,0,0,0,4-7.38c.08-.73.53-1.48.17-2.25.53-6.16-3.47-10.49-6.25-15.26.25-.32.46-.23.59-.07,3.62,4.69,6.59,9.69,7.39,15.69a11.22,11.22,0,0,1-4.45,10.81,25.68,25.68,0,0,1-9.2,4.63,8,8,0,0,0-5.64,5.18c-2.84,7.3-8.48,11.19-15.92,12.8-3.18.69-6.32-.26-9.48-.2a8.36,8.36,0,0,1-5.89-2.26c-1-.92-2.35-.5-3.53-1.12-3.2-1.71-4.61-4.83-6.67-7.45-.73-.93.27-1.71.73-2.13.82-.75.3-1.37,0-1.87-.39-.75-1-.05-1.43.15a42.48,42.48,0,0,1-17.37,4.06,19.8,19.8,0,0,1-17.59-9.55,28.75,28.75,0,0,1-3.72-7.56,9.22,9.22,0,0,0-5.54-6.24,23.28,23.28,0,0,1-10.37-8.1c-2.94-4.27-4.24-8.78-2.63-14,.73-2.34,1-4.78,3.42-6.11,1.13-4.26,5.2-4.58,8.3-6.21a2.38,2.38,0,0,1,2.44.06c.23-.71-.25-1.12-.49-1.56a27.07,27.07,0,0,1-3-9,10.61,10.61,0,0,1,4.79-11c3.68-2.53,7.93-3.64,12.26-4.32a10.52,10.52,0,0,0,6.78-3.8c5.2-6.06,12.06-7.25,19.62-6.26a38,38,0,0,1,9.13,2.79c2.64,1,4.28,3.17,5.93,5.25.89,1.14-1.16,2-.72,3.4.08.23-3.45,0-3.88-.7a18.17,18.17,0,0,0-10.34-8.22c-5.79-1.71-12.28-.55-15.75,5.78-1.25,2.28-3.66,3-5.87,3.53-3.95,1-7.85,2.15-11.75,3.33a12.25,12.25,0,0,0-7,5.11c-.59-.74-.62-.76-.08-1.46a27.06,27.06,0,0,1,4.53-4.29c-2.21,1.78-4.46,3.52-5.69,6.2-2,5.47.26,10.15,2.69,14.81a1.53,1.53,0,0,0,1.53,1.05c1.79.06.56,1.83,1.2,2.68.45.6-.3.84-.88,1-1.66.56-3.3,1.21-4.94,1.83a13.91,13.91,0,0,0-8.53,8,9.13,9.13,0,0,0,2.8,10.63c3.08,2.68,6.65,4.22,10.32,5.76,1.78.75,2.64,2.78,3.83,4.25,1,1.25,1.41,3.06,2.22,4.48,3.3,5.85,5.57,12.68,12.95,15-.86.78-.87.79-1.92.33a28.4,28.4,0,0,1-5.36-3.16C426.83,482.73,429.47,483.43,431.81,484.64Z" transform="translate(-274 -392.27)"/><path class="cls-8" d="M431.62,409.6l3.52-2.45a28.53,28.53,0,0,1,13.2-5.82,12.19,12.19,0,0,1,7,1.19c3.18,1.47,5.46,6.69,4.56,10.1a24.46,24.46,0,0,1-2,4.91c-1.93,3.77-2.5,7.61-.55,11.57.63,1.3-.21,1.73-1.2,1.83-7.7.78-15.39,2-23.15.56a24.33,24.33,0,0,1-10.88-5.42,9.33,9.33,0,0,1-2.3-3c-1.72-3.27-1.18-5.58,1.92-7.6,2.63-1.71,5.41-3.08,8.69-2.88a2.06,2.06,0,0,0,2.11-1.12C433.13,410.38,431.93,410.22,431.62,409.6Z" transform="translate(-274 -392.27)"/><path class="cls-6" d="M493.27,419.71c4.69,2.52,9,5.46,12.14,9.92.8,1.77,2,3.34,2.42,5.31.46,2.31-1.39,6.41-3.58,6.48-3.06.09-6.1,1.35-9.22.19-2.18-.8-4.44-1.4-6.61-2.27-4.93-2-10-3.06-15.29-1.92-1.57.33-2.07-.87-2.2-2a18.56,18.56,0,0,0-1.53-4.58c-1.73-4.53-2.93-9.22-1.5-14,1.89-6.4,11-10.64,16.5-5.19,1.76,1.74,3.64,3.28,4.36,5.83C489.26,419.2,490.69,419.79,493.27,419.71Z" transform="translate(-274 -392.27)"/><path class="cls-2" d="M642.73,488.78a13.24,13.24,0,0,1,18.9-12c7.31,3.41,8.26,14.8,1.61,20.22a14.07,14.07,0,0,1-12.75,2.75C645.61,498.59,642.73,494.34,642.73,488.78Z" transform="translate(-274 -392.27)"/><path class="cls-9" d="M424,461.49c1.27-2.53,3-.42,4.46-.29,1.12.1,1.74,1.25,1.49,2.78-.33,2,1.07,3.55,2.22,5,1.67,2.19,3.57,4.41,6.27,5a11.51,11.51,0,0,0,11.22-3.77c1.34-1.44,2.95-2.74,3.78-4.75,1.88-4.59,1.56-9.26.67-13.89-.48-2.46-.81-5.05-2.43-7.21-.36-.48.14-1.52,0-2.25-.22-1.11,0-2.3-2.23-1.47-2.7,1-5.83.51-8.77.15-4.74-.58-8.89-3-13.43-4.27a23.36,23.36,0,0,0-7.33-.54c-2.86.13-5.75.11-7.86,2.84a8,8,0,0,0-1.3,8.06c1.71,3.83,4.53,6.75,7.45,9.63.53.52,1.51.83,1.32,1.88-5.29-3.53-9.17-8.15-10.46-14.48a7,7,0,0,1,2.84-7.12c4.81-3.72,10.28-4.5,16-3.14,4.59,1.09,9.09,2.58,13.66,3.74a12.15,12.15,0,0,0,7.88-.37,3.68,3.68,0,0,1,4.6,1.45c6,8.39,6.21,23.17.36,31.7-2.4,3.49-5.83,5.78-9.47,7.63-6.1,3.11-14.53.54-18.26-5.4-1.45-2.32-2.52-4.88-3.89-7.26a1.16,1.16,0,0,1,.5-1.74C424.4,463,424.24,462.31,424,461.49Z" transform="translate(-274 -392.27)"/><path class="cls-9" d="M491.64,472.08c-.71-.16-2-.09-1.6-1.09.56-1.32.15-3.72,2.51-3.6,4,.21,6.53-2.05,8.93-4.72a3.88,3.88,0,0,0,.66-4.52c-2.92-6.33-8.33-9.4-14.81-10.67a44.77,44.77,0,0,0-17.18.45,20.39,20.39,0,0,1-4.18.38c-1.13,0-2-.12-1.23,1.87a17,17,0,0,1-.2,12.57c-.68,1.77-1.37,3.54-2,5.32a13.34,13.34,0,0,0,.24,9.41c.67,1.91,1.13,3.58,2.95,4.78,5.14,3.36,10.06,3.32,15.76-.48a41.37,41.37,0,0,0,6-5c.41-.39.6-1.44,1.58-.87-.23,1.39-1.39,2.1-2.31,2.91-4.3,3.79-8.94,6.92-15,6.84-8-.11-14.73-8.2-13.51-16.16.67-4.41,2.59-8.48,3.38-12.86a8,8,0,0,0-1.35-6.8,2.44,2.44,0,0,1,1.17-3.9c6.64-2.77,13.6-2.86,20.6-2.11A40.91,40.91,0,0,1,494,447c5.3,2.29,9.17,6.25,12.65,10.62,2.16,2.71.42,9-2.94,11.59-2.44,1.86-5.47,2.55-8.15,4a1.45,1.45,0,0,1-1.71-.45C493.21,471.81,492.45,472,491.64,472.08Z" transform="translate(-274 -392.27)"/><path class="cls-7" d="M431.62,409.6c.68.42,2.34-.51,2,1-.24,1.19-.89,3-2.68,2.72-4.24-.63-7.39,1.56-10.52,3.8-1.32,1-1.21,2.49-.86,3.89a9.53,9.53,0,0,0,3.61,5.34,25.65,25.65,0,0,0,15.09,5.13,54,54,0,0,0,12.33-.63c2.18-.44,4.4-.09,6.64-.5a12.46,12.46,0,0,1-.4-11.95,54.32,54.32,0,0,0,2.47-5.82,5.66,5.66,0,0,0-.34-4.28c-2.5-5.71-6.59-7.71-12.8-6.22a33.43,33.43,0,0,0-8.86,3.91c-.72.42-1.29,1.12-2.2,1.19.17-.3.27-.7.53-.88,5.36-3.7,11.05-6.36,17.79-4.95A11.25,11.25,0,0,1,462,415.85c-.78,2.63-2,5.13-2.43,7.86a6.48,6.48,0,0,0,1.22,5.39,2.2,2.2,0,0,1-1,3.67A28.82,28.82,0,0,1,449.49,435c-8.26.44-16.3-.57-24-4-4.77-2.15-8.11-5.82-11-9.95-1.11-1.6-.41-3.71.67-5.4a11.81,11.81,0,0,1,7.64-5.56,37,37,0,0,0,5.29-1.48C429.7,408,430.43,409.43,431.62,409.6Z" transform="translate(-274 -392.27)"/><path class="cls-9" d="M493.27,419.71c-.08.34-.1.77-.49.87-1.56.38-4.24-1.47-4.68-3-1.11-3.9-4.06-6.27-7.58-7.5-3.19-1.11-6.23,0-8.93,2.31-5.15,4.37-3.76,9.76-2.75,15.15.36,2,1.41,3.64,2.13,5.45,0,.13.25.24.24.34-.41,4.2,2.18,3.39,4.83,3.15,4.56-.41,8.87.82,13.1,2.52,2.91,1.17,5.85,2.41,9.09,2.52,1.44.05,2.82-.77,4.1-.63s2.12.28,3-.71a6.49,6.49,0,0,0,2.08-4,8.36,8.36,0,0,0-1.67-5.1c-.28-.41-1-.75-.37-1.41a4.65,4.65,0,0,1,.44.45c2,2.71,3.67,5.66,2.21,9-1.6,3.63-5.14,4.59-8.77,4.94s-7.11-.83-10.55-1.88a66.27,66.27,0,0,0-9.79-2.59,8.79,8.79,0,0,0-4.57.54c-2.34.94-4.12.56-5.42-1.54-4.76-7.68-6.86-16-2.36-24.25,5.37-9.78,15.94-10.67,23.62-2.15a37.93,37.93,0,0,1,2.3,3.29c.79,1.09,2,2.08.52,3.51C493,419,493.19,419.44,493.27,419.71Z" transform="translate(-274 -392.27)"/><path class="cls-2" d="M376.58,488.37c18.39,10,36.79,9,55.11.3-4.79,7.28-16.26,13-27.12,12.95C393.18,501.61,383.67,497.49,376.58,488.37Z" transform="translate(-274 -392.27)"/><path class="cls-10" d="M477.13,401.71c9.84-.81,16.83,3.65,21.58,11.94a12.31,12.31,0,0,0,6,5.33,25.81,25.81,0,0,1,12.34,11.13,14.66,14.66,0,0,1,1.67,9.17c-.52,3.8-2.59,7.33-6.83,8.74a1.9,1.9,0,0,1-1.73-.34c-.67-.38-1.28-.88-2.14-.51-.67.28-1.07-.07-1.26-.71-.44-1.42-1.6-3,1.14-3.5a10.87,10.87,0,0,0,2.82-1.39c6.16-3.21,6-11.47-.07-15.63a32.17,32.17,0,0,0-7.37-4c-3.36-1.2-5.21-4.21-7.23-7-2.95-4.08-5.77-8.21-10.52-10.74-2.26-1.21-4.56-1.09-6.77-1.81C478.32,402,477.33,402.8,477.13,401.71Z" transform="translate(-274 -392.27)"/><path class="cls-2" d="M595.67,593.22c1.69-1.42,3.25-2.26,5.22-2.14,1,0,2,.26,2.41,1.07.77,1.68,1.37.88,2.26.16a4.93,4.93,0,0,1,5.34-.91c2,.87,2,2.78,1.8,4.56-.41,3.07-.88,6.14-1.57,9.16-.47,2.08-2.32.91-3.51,1-1.43.09-.58-1.08-.49-1.67.37-2.44.84-4.86,1.24-7.3.14-.92.21-1.92-.82-2.4s-1.87.25-2.5,1c-1.39,1.73-1.55,3.89-2,6-.16.76-.27,1.53-.41,2.29-.37,2-1.8,2.85-3.81,2.25-1-.3-.57-1-.49-1.54.37-2.36.87-4.71,1.23-7.08.16-1.06.64-2.46-.83-2.91s-2.18.74-2.79,1.78c-1.32,2.26-1.38,4.86-1.86,7.33-.43,2.24-2,3.2-4.1,2.47-.79-.27-.44-.73-.36-1.17.7-4.09,1.53-8.17,2.09-12.29.26-2,1.55-1.3,2.6-1.43C595.6,591.26,596,591.82,595.67,593.22Z" transform="translate(-274 -392.27)"/><path class="cls-2" d="M472.43,593.8c4.07-2.87,6.31-2.79,8.61.3a7,7,0,0,1,3.65-2.3c2.87-.6,4.81.8,4.77,3.71,0,3.54-1.07,7-1.62,10.42-.11.71-.45.92-1.13.89-1,0-2.09,0-3.24,0,.52-3,1-5.72,1.48-8.5.18-1.09.58-2.42-.82-2.92s-2.21.59-2.81,1.67c-1.37,2.47-1.34,5.3-2,8-.37,1.47-2.93,2.61-4.14,1.74-.59-.43-.2-1-.12-1.54.4-2.43.91-4.84,1.29-7.28.14-.93.41-2.13-.84-2.54s-2,.46-2.6,1.36c-1.58,2.31-1.57,5.08-2.12,7.68-.46,2.19-2.05,3.17-4.1,2.44-.61-.22-.45-.55-.38-1,.75-4.31,1.52-8.61,2.23-12.92.29-1.82,1.65-.72,2.49-1C472.65,591.55,472.32,592.9,472.43,593.8Z" transform="translate(-274 -392.27)"/><path class="cls-11" d="M540.56,454.12c-2.78,5.5-5.79,11-8.72,16.49-.47.88-.79,1.78-2.11,1.63-1.52-.17-1-1.4-1.09-2.12-.8-5.28-1.67-10.54-2.28-15.9q-1.51,6.31-3,12.64c-.35,1.44-.77,2.87-1,4.32s-1.28,1.37-2.2,1.16c-1.17-.28-.34-1.13-.21-1.65,1.54-6.22,3.18-12.41,4.67-18.64.36-1.52,1.3-1.29,2.35-1.39,1.23-.12,1.53.45,1.67,1.52.7,5.2,1.66,10.37,2.11,16l6-11.66c.85-1.62,1.75-3.21,2.54-4.87a1.88,1.88,0,0,1,1.78-1.14c1.91-.23,2.4.41,2.14,2.31-.82,5.87-1.46,11.76-2.19,17.63-.11.85,0,1.9-1.43,1.85-1.06,0-1.49-.18-1.31-1.42C539.09,465.3,539.81,459.71,540.56,454.12Z" transform="translate(-274 -392.27)"/><path class="cls-2" d="M655.53,599.81a8.85,8.85,0,0,1,8.83-9.11,5.93,5.93,0,0,1,6.29,6.39c-.12,5.28-3.87,9.14-8.84,9.1C657.9,606.16,655.51,603.72,655.53,599.81Z" transform="translate(-274 -392.27)"/><path class="cls-2" d="M581.42,597.61c0,5.21-3.88,9.14-8.84,9.08-3.86,0-6.29-2.57-6.21-6.45.11-5.22,3.92-9.12,8.87-9.08C579.08,591.2,581.47,593.68,581.42,597.61Z" transform="translate(-274 -392.27)"/><path class="cls-3" d="M452,605.05a6.38,6.38,0,0,1-5.36,2.22,3,3,0,0,1-3-2.75c-.47-4,.73-7.85,1.6-11.66.35-1.53,2.51-.65,3.79-.6,1.11,0,.31,1.11.23,1.69-.36,2.37-.82,4.72-1.2,7.08-.16,1-.33,2.09.81,2.59s2-.31,2.69-1.14a7.34,7.34,0,0,0,1.39-3.27c.3-1.52.59-3,.85-4.57.43-2.51,1.45-3.13,4-2.57.89.2.72.72.63,1.25q-1.08,6.25-2.19,12.49c-.37,2-2,1-3.09,1.16C451.54,607.28,452.42,605.85,452,605.05Z" transform="translate(-274 -392.27)"/><path class="cls-2" d="M398.29,598.58c-.05,5.22-3.84,9.1-8.83,9.07-3.88,0-6.32-2.53-6.24-6.4.1-5.24,3.88-9.12,8.85-9.07C396,592.22,398.33,594.64,398.29,598.58Z" transform="translate(-274 -392.27)"/><path class="cls-2" d="M505,607.11c-4.43,0-6.84-2.39-6.7-6.83.16-5.08,4.38-9.1,9.18-8.72,2.56.19,4.29,1.65,4.58,3.87s-.92,4-3.43,4.89a15.79,15.79,0,0,1-4.79.65c-.42,0-1.13-.3-1.2.41a1.85,1.85,0,0,0,.56,1.3c1.41,1.36,3.13.85,4.8.7.71-.06,1.71-1.38,2.07.38.28,1.35.28,2.53-1.55,2.74C507.32,606.64,506.16,606.9,505,607.11Z" transform="translate(-274 -392.27)"/><path class="cls-2" d="M705.32,606c-4.33,0-6.59-2.31-6.55-6.44.06-5.64,4.76-9.83,10-8.88a4,4,0,0,1,3.66,3.53,4.09,4.09,0,0,1-2.62,4.77,15,15,0,0,1-5.58,1c-.38,0-1-.22-1.06.32a1.56,1.56,0,0,0,.38,1.15c1.4,1.56,3.14,1.1,4.91.89.62-.07,1.71-1.64,2.1.24.25,1.26.43,2.57-1.41,2.87A17,17,0,0,1,705.32,606Z" transform="translate(-274 -392.27)"/><path class="cls-11" d="M627.8,469.47c-1.23,1.24-2.46,2.36-4.24,2.6-2.88.38-4.73-.91-5.39-3.76-1.29-5.58,3.37-13.71,11.07-12.25,1.08.2,1.17-.2,1.29-1,.23-1.53.69-3,.78-4.58s1-1.63,2.13-1.52c1.54.16.59,1.18.49,1.73-1.12,6.66-2.34,13.3-3.46,20-.19,1.12-.82,1.15-1.64,1.09C627.12,471.62,628.44,470.28,627.8,469.47Z" transform="translate(-274 -392.27)"/><path class="cls-11" d="M352.29,455.17c1.34-1.33,2.79-2.65,4.94-2.72,2.57-.09,4.43,1.19,4.9,3.69,1.3,6.93-4.27,14.36-11.27,12.21-.83-.25-1,.07-1.09.72-.24,1.39-.59,2.76-.75,4.16s-1,1.67-2.2,1.47c-1.37-.24-.58-1.2-.47-1.82q1.56-8.83,3.2-17.67c.19-1-.36-2.61,1.68-2.46S351.42,454.53,352.29,455.17Z" transform="translate(-274 -392.27)"/><path class="cls-11" d="M676.69,448.89c-.56,3-1.11,6-1.71,9.2,1.49-1,2.62-2.07,4.22-2.4,3-.6,5.13.93,5.13,4,0,3.76-1.2,7.36-1.75,11.05-.2,1.29-1.34.79-2.08.8-1.19,0-.58-.81-.5-1.34.41-3.08,1.38-6.06,1.5-9.18,0-1.07.09-2.22-1-2.81a3.1,3.1,0,0,0-3.39.41,8.39,8.39,0,0,0-3.31,5.7c-.34,1.94-.78,3.87-1,5.83-.16,1.54-1.1,1.61-2.2,1.44-1.38-.2-.58-1.21-.48-1.79,1.14-6.31,2.47-12.59,3.47-18.93C673.94,448.63,674.87,448.37,676.69,448.89Z" transform="translate(-274 -392.27)"/><path class="cls-2" d="M639.91,601.53c1.32-3,2.56-5.5,3.53-8.11.65-1.78,1.56-2.69,3.53-2.33a16,16,0,0,0,2.45,0c-1.56,2.84-3,5.47-4.43,8.1-1,1.79-2,3.55-2.93,5.38a2.14,2.14,0,0,1-2.24,1.43c-2.94,0-3,0-3.47-2.91-.64-3.54-1.23-7.09-1.89-10.62-.18-1,0-1.39,1.09-1.37,3.9.06,3.17-.37,3.51,3C639.29,596.39,639.59,598.7,639.91,601.53Z" transform="translate(-274 -392.27)"/><path class="cls-11" d="M608,468.28c-1.32,2-2.64,3.47-4.8,3.89-2.46.47-4.69-.66-5.25-3.05a10.48,10.48,0,0,1,3.27-10.36c2.94-2.84,6.54-3.32,10.41-2.45,1.28.29.69,1.25.57,1.87-.81,4.15-1.76,8.27-1.82,12.51,0,1.11-.53,1.24-1.44,1.24-1.15,0-1-.75-.94-1.44Z" transform="translate(-274 -392.27)"/><path class="cls-11" d="M690.72,465a9.54,9.54,0,0,1,6.64-9.27c4-1.1,7.21.9,8,4.95a10.15,10.15,0,0,1-4.89,10.2C695.44,473.52,690.63,470.61,690.72,465Z" transform="translate(-274 -392.27)"/><path class="cls-11" d="M414.51,592a4.45,4.45,0,0,1,1.39.21c.68.28,2.21-.24,1.59,1.44-.35,1-.17,2.65-2.12,1.76a2.79,2.79,0,0,0-1.05-.09c-.93,0-2-.13-2.3,1s.76,1.41,1.48,1.79c1.31.7,2.66,1.36,3.29,2.83a4.53,4.53,0,0,1-2.22,5.59,9.43,9.43,0,0,1-7.78.39c-1.71-.57-.51-1.58-.4-2.39s.61-1.25,1.59-.75a5.61,5.61,0,0,0,3.09.51,1.47,1.47,0,0,0,1.41-1.09,1.34,1.34,0,0,0-.73-1.41c-.58-.39-1.23-.69-1.82-1.07-1.44-.91-2.51-2.05-2.36-3.93a4.6,4.6,0,0,1,2.77-3.95A9,9,0,0,1,414.51,592Z" transform="translate(-274 -392.27)"/><path class="cls-11" d="M320.2,446.53a7.85,7.85,0,0,1,2.93.48c.75.27,1.26.58.82,1.52-.36.77-.61,1.36-1.67.84a5.56,5.56,0,0,0-4.52-.23,3.36,3.36,0,0,0-1.05,5.91,15.11,15.11,0,0,0,2.13,1.36c3.33,2,4.53,4.16,3.91,7.2-.56,2.76-2.82,4.65-6.2,5.23a10.89,10.89,0,0,1-5.39-.68c-1-.32-1.29-.76-.85-1.88s1-.74,1.72-.44a6.9,6.9,0,0,0,5.54.24,3.69,3.69,0,0,0,1-6.47,13.26,13.26,0,0,0-2-1.26c-3.49-2.06-4.7-4.27-3.86-7.13S316.42,446.52,320.2,446.53Z" transform="translate(-274 -392.27)"/><path class="cls-11" d="M430.9,607.4c-3.28,0-4.54-1.4-4.17-4.38.2-1.61.61-3.18.81-4.79.12-1,1.45-2.46-1-2.69-.63,0-.15-1.11,0-1.67s-.21-1.59.94-1.54c.84,0,1.22-.2,1.4-1.1a4,4,0,0,1,4-2.71c1.21.1.57,1,.47,1.4-.4,1.57-.58,2.81,1.73,2.36.52-.1,1.08,0,.88.76-.25.92.17,2.18-1.19,2.61-.85.27-2.26-.61-2.53.75-.43,2.19-1.26,4.35-.91,6.65a.82.82,0,0,0,.57.53c2.13,0,1.53,1.4,1.37,2.57C433.07,608,431.53,607,430.9,607.4Z" transform="translate(-274 -392.27)"/><path class="cls-2" d="M557.15,602.84c.22,3.55.1,3.68-3.11,3.92-5.5.4-8.49-3.49-6.86-8.9a9.48,9.48,0,0,1,10.58-6.45c.58.1,2-.24,1.4,1.09-.36.89.17,2.57-1.88,2.4-3.08-.25-4.87,1-5.63,3.6-1,3.36.74,5.27,4.16,4.59Z" transform="translate(-274 -392.27)"/><path class="cls-11" d="M374,603.77c.3,3.63.17,3.78-3.19,3.92-5.6.23-8.41-3.55-6.69-9a9.64,9.64,0,0,1,11.11-6.29c.58.13,1.32.31.85,1s.26,2.58-1.84,2.41c-3.08-.27-4.85,1-5.67,3.57a3.77,3.77,0,0,0,.55,4c1,1.15,2.39,1,3.74.67Z" transform="translate(-274 -392.27)"/><path class="cls-2" d="M689.3,602.06c.43,3.6.28,3.78-3.08,3.93-5.6.26-8.45-3.5-6.75-8.91a9.63,9.63,0,0,1,11-6.37c.72.15,1.38.41.89,1.19s.22,2.41-1.74,2.26c-3.25-.25-5,1-5.77,3.69-1,3.36.84,5.28,4.24,4.54C688.48,602.32,688.81,602.2,689.3,602.06Z" transform="translate(-274 -392.27)"/><path class="cls-11" d="M654.19,458.56c1.44-1.46,2.92-2.71,5-2.85,2.63-.17,4.41,1.29,4.4,3.92,0,3.83-1.15,7.5-1.82,11.24-.26,1.4-1.62.43-2.69.82.57-3.4,1.14-6.55,1.61-9.71.21-1.39.46-3-1.1-3.76-1.72-.8-3.11.16-4.3,1.41A9.84,9.84,0,0,0,653,465c-.32,1.8-.71,3.59-.93,5.4-.18,1.49-1.19,1.34-2.15,1.26-1.35-.13-.54-1-.45-1.56.7-4.09,1.49-8.17,2.15-12.27.17-1.09.29-1.91,1.7-1.74,1.72.21.58,1.34.74,2.06C654.09,458.22,654.13,458.33,654.19,458.56Z" transform="translate(-274 -392.27)"/><path class="cls-11" d="M337.85,466.23c-1.27,1.09-2.53,2.3-4.39,2.53-2.85.36-4.73-1.08-4.79-3.94-.08-3.85,1.18-7.51,1.79-11.26.19-1.16,1.25-.6,1.93-.66,1-.1.67.67.59,1.16-.47,2.78-1,5.55-1.48,8.33-.24,1.42-.47,2.94,1,3.78s3,.05,4.16-1.09a7.91,7.91,0,0,0,2.22-4.47c.4-2.22.94-4.42,1.21-6.65.19-1.51,1.2-1.09,2-1.12,1.38,0,.68.92.59,1.47-.72,4.31-1.51,8.6-2.21,12.91-.16,1-.61,1.29-1.55,1.25C337.19,468.38,338.58,466.87,337.85,466.23Z" transform="translate(-274 -392.27)"/><path class="cls-11" d="M555.13,472.5c-3.64,0-5.58-1.58-6.21-4.82-1.1-5.55,3.5-11.59,8.69-11.41,2.25.08,3.8,1.24,4.19,3.14a4.18,4.18,0,0,1-2.41,4.69,12.93,12.93,0,0,1-6.36,1.19c-1.27,0-1.57.46-1.44,1.63.32,2.95,2.68,4.08,6.28,3.08.53-.15,1.27-1.14,1.77-.09.32.66.41,1.47-.69,1.84A11.31,11.31,0,0,1,555.13,472.5Z" transform="translate(-274 -392.27)"/><path class="cls-11" d="M373.1,468.62c-3.44,0-5.4-1.61-6-5-.87-5,2.8-10.6,7.36-11.21,2.81-.37,4.93.72,5.47,2.8.62,2.41-.69,4.45-3.52,5.4a14.22,14.22,0,0,1-5.41.75c-1.25-.07-1.39.46-1.28,1.49a3.61,3.61,0,0,0,3.86,3.61,9.13,9.13,0,0,0,2.88-.59c.49-.15,1.09-.69,1.36.21.21.68.37,1.38-.62,1.71A12.38,12.38,0,0,1,373.1,468.62Z" transform="translate(-274 -392.27)"/><path class="cls-12" d="M580.52,466.06c.08-6.31,5.56-11.08,11.27-9.78.59.14,1.57-.06,1.23,1.15-.25.87-.42,1.37-1.68,1.1-5.85-1.28-8.83,4.79-7.8,9.1.5,2.11,2.64,2.88,5.6,2.27.57-.12,1.4-1.17,1.79.32.32,1.2-.44,1.46-1.28,1.73C584.43,473.63,580.45,471.06,580.52,466.06Z" transform="translate(-274 -392.27)"/><path class="cls-11" d="M714.09,471.65a7.34,7.34,0,0,1-2.9-.48c-.67-.27-1-.51-.7-1.39s.66-1.12,1.51-.71a4.58,4.58,0,0,0,1.41.41c1.54.17,3,.12,3.69-1.65s-.45-2.62-1.7-3.44c-3-2-3.82-3.87-2.63-6.24s4.46-3.45,7.21-2.52c.57.2,1.29.3.9,1.26-.27.66-.32,1.39-1.41.9a5.12,5.12,0,0,0-2.08-.24A2.37,2.37,0,0,0,715,459.3c-.36,1.11.28,1.88,1.14,2.5.23.16.47.3.71.45,2.71,1.73,3.59,3.41,3,5.68S717.06,471.65,714.09,471.65Z" transform="translate(-274 -392.27)"/><path class="cls-11" d="M524.84,591.74c1.46-.28,2,.11,1.56,2-.9,3.83-1.48,7.72-2.2,11.59-.48,2.51-2.48,1.21-3.72,1.26-1.51.07-.59-1.32-.49-1.91.57-3.54,1.3-7,2-10.56C522.39,591.75,522.37,591.75,524.84,591.74Z" transform="translate(-274 -392.27)"/><path class="cls-12" d="M388.66,455.36c1.17-1.2,2-2.65,3.64-2.95.58-.11,1.51-.8,1.65.39.09.72.23,1.88-.92,2.05-3.3.47-4.2,3-4.91,5.64a51.2,51.2,0,0,0-1.28,6.64c-.2,1.54-1.26,1-2,1-1.23,0-.58-.89-.52-1.35.67-4.46,1.74-8.85,2.12-13.35.1-1.28,1-.89,1.7-.94,1.12-.08.77.72.74,1.29S388.73,454.74,388.66,455.36Z" transform="translate(-274 -392.27)"/><path class="cls-12" d="M571.83,459c1-1.19,1.87-2.42,3.45-2.65.51-.08,1.44-.63,1.47.44,0,.72.33,1.88-.88,2.08-3.59.58-4.33,3.44-5.06,6.25a39.72,39.72,0,0,0-1,5.61c-.17,1.62-1.24,1.53-2.26,1.34-1.28-.24-.5-1.22-.4-1.83.61-3.82,1.28-7.63,2-11.44.16-.91-.32-2.28,1.46-2.24C572.67,456.57,571.07,458.19,571.83,459Z" transform="translate(-274 -392.27)"/><path class="cls-12" d="M639.73,471.65c-1.06.13-1.52,0-1.27-1.21.86-4.27,1.63-8.57,2.35-12.87.22-1.32.94-1.55,2.05-1.41,1.6.2.7,1.29.59,1.92-.71,4.09-1.55,8.15-2.25,12.24C641,471.35,640.75,471.94,639.73,471.65Z" transform="translate(-274 -392.27)"/><path class="cls-13" d="M707.88,586.41c-1.13,1.85-2.23,3.41-4.8,2.32,2-1.45,2.18-4.91,5.56-4.36,2.37.38,1.67,3.1,3.38,4.25C709.52,589.64,708.46,588.63,707.88,586.41Z" transform="translate(-274 -392.27)"/><path class="cls-14" d="M525,589.87a2.13,2.13,0,0,1-2.18-2.48,2.39,2.39,0,0,1,2.63-2.41,2.08,2.08,0,0,1,2.36,2.33C527.75,588.94,526.7,589.78,525,589.87Z" transform="translate(-274 -392.27)"/><path class="cls-15" d="M431.81,484.64a14.56,14.56,0,0,1-7.68-3.67c-.27-.23-.88-.41-.44-.92s.71-.24,1.13,0c1.71,1.1,3.46,2.15,5.19,3.22.65.41,1.29.94,2.06.21l1.16.43C432.91,484.66,432.11,484.1,431.81,484.64Z" transform="translate(-274 -392.27)"/><path class="cls-16" d="M645.05,451.14c0,1.33-.65,2-1.76,2.12a1.5,1.5,0,0,1-1.72-1.65,1.79,1.79,0,0,1,1.76-1.95A1.48,1.48,0,0,1,645.05,451.14Z" transform="translate(-274 -392.27)"/><path class="cls-17" d="M508.89,473.32c2-1.57,2.61-4,3.68-6.15.17-.35.26-.82-.28-1.06-.11-.92.91-1.36.92-2.23,1,3.77-.63,7.65-4.31,10A.41.41,0,0,1,508.89,473.32Z" transform="translate(-274 -392.27)"/><path class="cls-18" d="M477.13,401.71l1.66.69a21.92,21.92,0,0,0-6,.56,43.44,43.44,0,0,1-5.9,1.08A23.3,23.3,0,0,1,477.13,401.71Z" transform="translate(-274 -392.27)"/><path class="cls-19" d="M408.88,414c.85-3.72,3.58-5.5,6.81-6.77A59.55,59.55,0,0,0,410.6,412c-.33.4-1.16.73-.48,1.49C409.94,414.3,409.44,414.21,408.88,414Z" transform="translate(-274 -392.27)"/><path class="cls-20" d="M344.82,601.73c0-3,2.26-5.87,4.62-6,.93,0,1.42,0,1.14,1.25-.49,2-.6,4.19-1.87,6a2.29,2.29,0,0,1-2.68,1.2C344.92,603.82,344.8,602.77,344.82,601.73Z" transform="translate(-274 -392.27)"/><path class="cls-21" d="M311,598.8c.59-1.81,1.49-2.84,3.15-3,.85-.09,1.6.13,1.79,1.06s-.42,1.24-1.12,1.54A11.09,11.09,0,0,1,311,598.8Z" transform="translate(-274 -392.27)"/><path class="cls-1" d="M371.81,552.35c.46-9.76,3.86-18.28,11-25.12a19.24,19.24,0,0,1,17.71-5.34c.78.14,1.31.24,1.1,1.27-1.61,8-2.25,16.08-4.65,23.86-1.64,5.3-3.93,10.29-8,14.2-2.36,2.25-5.05,3.83-8.47,3.72-3.75-.12-6.26-2.07-7.64-5.9A20.42,20.42,0,0,1,371.81,552.35Z" transform="translate(-274 -392.27)"/><path class="cls-1" d="M475,536.17c-.28,8.12-2.18,15.76-7,22.47-2.35,3.31-5.32,5.92-9.48,6.59-6.92,1.12-12.53-2.75-13.52-9.9a37,37,0,0,1,7.68-28.6,13.6,13.6,0,0,1,10.15-5.44c6.64-.43,11.54,4.39,12.12,11.92C475,534.19,475,535.18,475,536.17Z" transform="translate(-274 -392.27)"/><path class="cls-22" d="M508.89,473.32c0,.2,0,.4,0,.6a4.82,4.82,0,0,1-3.11,1.24Z" transform="translate(-274 -392.27)"/><path class="cls-20" d="M660.09,599.64a7.26,7.26,0,0,1,1.68-4.66,2.47,2.47,0,0,1,2.67-.83,2.32,2.32,0,0,1,1.64,2.24A7.65,7.65,0,0,1,665,601c-.72,1.23-1.67,2.17-3.25,1.7S660.08,601,660.09,599.64Z" transform="translate(-274 -392.27)"/><path class="cls-20" d="M570.84,600c.29-1.71.59-3.38,1.85-4.66a2.43,2.43,0,0,1,2.69-.74,2.29,2.29,0,0,1,1.48,2.13,7.63,7.63,0,0,1-1.12,4.85c-.7,1.13-1.64,2.06-3.12,1.62S570.87,601.4,570.84,600Z" transform="translate(-274 -392.27)"/><path class="cls-20" d="M393.66,598.67a7.69,7.69,0,0,1-1.26,4.19,2.59,2.59,0,0,1-3,1.34,2.51,2.51,0,0,1-1.7-2.65,7.74,7.74,0,0,1,1.13-4.22c.72-1.23,1.7-2.15,3.26-1.72S393.68,597.36,393.66,598.67Z" transform="translate(-274 -392.27)"/><path class="cls-23" d="M503,597.68a3.43,3.43,0,0,1,2.7-2.85c.94-.2,1.94-.16,2.17,1s-.62,1.49-1.49,1.66A7.2,7.2,0,0,1,503,597.68Z" transform="translate(-274 -392.27)"/><path class="cls-24" d="M703.39,596.58a3.67,3.67,0,0,1,3.09-2.91c.82-.12,1.61.07,1.86,1s-.39,1.38-1.16,1.67A8.24,8.24,0,0,1,703.39,596.58Z" transform="translate(-274 -392.27)"/><path class="cls-4" d="M620.77,465.81c.06-3.47,2.17-6.62,5.06-7.54s4,0,3.49,2.9c-.25,1.31-.51,2.61-.81,3.91a7,7,0,0,1-1.67,3.12c-1.15,1.26-2.54,2.19-4.27,1.52S620.74,467.41,620.77,465.81Z" transform="translate(-274 -392.27)"/><path class="cls-4" d="M353.21,466.54c-2.42,0-2.88-.54-2.46-2.93a16.71,16.71,0,0,1,1.67-5.85,6.15,6.15,0,0,1,3.21-2.92,2.53,2.53,0,0,1,3.31,1.09c1.36,2.45.52,4.82-.64,7.05C357.25,465,355.7,466.49,353.21,466.54Z" transform="translate(-274 -392.27)"/><path class="cls-4" d="M600.44,466.36c0-4.27,3.4-8.11,7.19-8.27,1.3-.06,2.06.23,1.62,1.77-.55,1.95-.62,4-1.49,5.9a9.81,9.81,0,0,1-2,2.95c-1.08,1.05-2.35,1.7-3.81,1.07S600.41,467.75,600.44,466.36Z" transform="translate(-274 -392.27)"/><path class="cls-1" d="M702.61,462.31a9.13,9.13,0,0,1-2.76,6.17,3.78,3.78,0,0,1-4.11.85,3.5,3.5,0,0,1-2.15-3.13,8.86,8.86,0,0,1,1.61-6.39c1.29-1.83,3.24-2.61,4.9-2C702.16,458.61,702.53,460.36,702.61,462.31Z" transform="translate(-274 -392.27)"/><path class="cls-20" d="M553.89,463.17c-.43-.08-1.31.46-1.69-.26s.31-1.31.67-1.89a4.79,4.79,0,0,1,3.38-2.6c1.32-.18,2.65-.07,3,1.53.32,1.44-.65,2.21-1.84,2.67A9,9,0,0,1,553.89,463.17Z" transform="translate(-274 -392.27)"/><path class="cls-25" d="M370.31,459.24c.53-2.64,2.28-4.58,4.36-4.78,1.19-.12,2.34.09,2.7,1.42a2.16,2.16,0,0,1-1.53,2.64A11.09,11.09,0,0,1,370.31,459.24Z" transform="translate(-274 -392.27)"/></svg>