<?xml version="1.0" encoding="iso-8859-1"?>
<!-- Generator: Adobe Illustrator 19.0.0, SVG Export Plug-In . SVG Version: 6.00 Build 0)  -->
<svg version="1.1" id="Capa_1" xmlns="http://www.w3.org/2000/svg" xmlns:xlink="http://www.w3.org/1999/xlink" x="0px" y="0px"
	 viewBox="0 0 512 512" style="enable-background:new 0 0 512 512;" xml:space="preserve">
<g>
	<g>
		<path d="M165,332c-7.99,0-15-7.477-15-16c0-6.286,3.965-11.953,9.866-14.103c7.7-2.806,16.673,0.999,24.606,10.445
			c5.33,6.344,14.79,7.167,21.134,1.839s7.167-14.79,1.839-21.133c-8.109-9.656-17.548-16.293-27.445-19.625V256
			c0-8.284-6.716-15-15-15s-15,6.716-15,15v17.572c-0.134,0.047-0.268,0.088-0.401,0.137C131.895,280.157,120,297.153,120,316
			c0,11.955,4.597,23.347,12.944,32.079C141.526,357.056,152.911,362,165,362c8.271,0,15,6.729,15,15
			c0,6.042-3.596,11.468-9.159,13.825c-6.717,2.844-14.755,0.417-22.059-6.659c-5.951-5.764-15.445-5.614-21.211,0.335
			c-5.764,5.95-5.614,15.446,0.336,21.21c6.772,6.561,14.301,11.197,22.093,13.813V437c0,8.284,6.716,15,15,15s15-6.716,15-15
			v-17.571c18.295-6.504,30-23.575,30-42.429C210,352.187,189.813,332,165,332z"/>
	</g>
</g>
<g>
	<g>
		<path d="M463,18.844C435.379,6.692,399.155,0,361,0c-78.082,0-150,28.671-150,75c0,11.591,0,101.714,0,112.545
			c-14.791-4.307-30.239-6.545-46-6.545c-43.972,0-85.406,17.376-116.67,48.928C17.164,261.381,0,302.958,0,347
			c0,90.981,74.019,165,165,165c30.361,0,59.55-8.159,85.059-23.438C277.958,503.529,317.713,512,361,512
			c38.155,0,74.379-6.692,102-18.844c31.598-13.901,49-33.845,49-56.156c0-9.342,0-352.464,0-362
			C512,52.688,494.598,32.745,463,18.844z M165,482c-74.439,0-135-60.561-135-135c0-74.991,60.561-136,135-136
			c74.99,0,136,61.009,136,136C301,421.439,239.99,482,165,482z M482,437c0,18.348-47.137,45-121,45
			c-31.422,0-61.106-5.036-83.63-13.86c1.589-1.46,3.161-2.943,4.703-4.47c13.507-13.384,24.406-28.635,32.467-45.148
			C329.443,420.82,345.011,422,361,422c39.443,0,88.356-7.667,121-29.019V437z M482,347c0,18.348-47.137,45-121,45
			c-12.237,0-24.166-0.765-35.661-2.246C329.066,375.97,331,361.627,331,347c0-5.889-0.321-11.733-0.935-17.517
			c10.104,1,20.445,1.517,30.935,1.517c39.446,0,88.355-7.668,121-29.019V347z M482,256c0,18.348-47.137,45-121,45
			c-12.768,0-25.26-0.835-37.274-2.458c-7.785-25.252-21.674-48.495-40.917-67.958C306,237.356,332.938,241,361,241
			c39.446,0,88.355-7.668,121-29.019V256z M482,166c0,18.348-47.137,45-121,45c-34.007,0-65.745-5.782-89.367-16.281
			C252.737,186.322,241,175.317,241,166v-44.805C273.474,142.481,321.972,150,361,150c39.446,0,88.355-7.668,121-29.019V166z
			 M361,120c-73.276,0-120-26.255-120-45c0-18.803,46.857-45,120-45c73.863,0,121,26.652,121,45S434.863,120,361,120z"/>
	</g>
</g>
<g>
</g>
<g>
</g>
<g>
</g>
<g>
</g>
<g>
</g>
<g>
</g>
<g>
</g>
<g>
</g>
<g>
</g>
<g>
</g>
<g>
</g>
<g>
</g>
<g>
</g>
<g>
</g>
<g>
</g>
</svg>
