<svg id="Capa_1" data-name="Capa 1" xmlns="http://www.w3.org/2000/svg" width="64.24" height="64.24" viewBox="0 0 64.24 64.24">
  <title>moedas</title>
  <g>
    <path d="M244.58,265.54a2,2,0,0,1-1.88-2,1.89,1.89,0,0,1,1.24-1.77c1-.35,2.09.12,3.09,1.31a1.88,1.88,0,0,0,2.88-2.42,7.75,7.75,0,0,0-3.45-2.46V256a1.88,1.88,0,1,0-3.76,0v2.2l0,0a5.66,5.66,0,0,0-3.71,5.31,5.77,5.77,0,0,0,1.62,4,5.53,5.53,0,0,0,4,1.75,1.89,1.89,0,0,1,.74,3.62,2.58,2.58,0,0,1-2.77-.84,1.88,1.88,0,1,0-2.62,2.7,7.32,7.32,0,0,0,2.77,1.74v2.19a1.88,1.88,0,1,0,3.76,0v-2.2a5.65,5.65,0,0,0-1.88-11Z" transform="translate(-223.88 -223.88)"/>
    <path d="M282,226.24a32.74,32.74,0,0,0-12.8-2.36c-9.79,0-18.82,3.6-18.82,9.41v14.12a20.76,20.76,0,1,0,4.9,37.77c3.51,1.88,8.49,2.94,13.92,2.94a32.74,32.74,0,0,0,12.8-2.36c4-1.75,6.15-4.25,6.15-7.05V233.29C288.12,230.49,285.94,228,282,226.24Zm-37.39,58.12a17,17,0,1,1,17.07-16.94A17,17,0,0,1,244.58,284.36Zm39.78-5.65c0,2.3-5.92,5.65-15.19,5.65a29.87,29.87,0,0,1-10.49-1.74l.59-.56a20.75,20.75,0,0,0,4.07-5.67,38.16,38.16,0,0,0,5.83.44c4.95,0,11.09-1,15.19-3.64Zm0-11.29c0,2.3-5.92,5.64-15.19,5.64a34.28,34.28,0,0,1-4.47-.28,20.43,20.43,0,0,0,.71-5.36,20.13,20.13,0,0,0-.12-2.2,38.19,38.19,0,0,0,3.88.19c4.95,0,11.09-1,15.19-3.64Zm0-11.42c0,2.3-5.92,5.65-15.19,5.65a35.45,35.45,0,0,1-4.67-.31,20.83,20.83,0,0,0-5.14-8.53,35.49,35.49,0,0,0,9.81,1.31c4.95,0,11.09-1,15.19-3.64Zm0-11.29c0,2.3-5.92,5.64-15.19,5.64a28.45,28.45,0,0,1-11.21-2c-2.37-1.05-3.84-2.43-3.84-3.6v-5.62c4.07,2.67,10.16,3.61,15.05,3.61s11.09-1,15.19-3.64Zm-15.19-5.77c-9.19,0-15.05-3.3-15.05-5.65s5.88-5.65,15.05-5.65,15.19,3.35,15.19,5.65S278.44,238.94,269.17,238.94Z" transform="translate(-223.88 -223.88)"/>
  </g>
</svg>
