<svg id="Camada_1" data-name="Camada 1" xmlns="http://www.w3.org/2000/svg" width="376.14" height="194" viewBox="0 0 376.14 194"><defs><style>.cls-1{fill:#0082bd;}.cls-2{fill:#f2f2f2;}.cls-3{fill:#0183bd;}.cls-4{fill:#0484be;}.cls-5{fill:#0083bd;}</style></defs><title>o-globo</title><path class="cls-1" d="M500.71,597.94q-92.68,0-185.37.06c-2,0-2.41-.39-2.41-2.41q.1-94.59,0-189.18c0-2,.39-2.41,2.41-2.41q185.66.09,371.32,0c2,0,2.41.39,2.41,2.41q-.11,94.59,0,189.18c0,2-.39,2.41-2.41,2.41Q593.69,597.9,500.71,597.94Z" transform="translate(-312.93 -404)"/><path class="cls-2" d="M600.65,497.78c6.86,3.43,8.69,8.17,7.77,16.08-.63,5.43-6.63,10.48-13.26,11.17-9.46,1-19,.24-28.47.42-1.32,0-1.62-.61-1.62-1.81q0-22.61,0-45.23c0-1.42.5-1.89,1.87-1.87,9.1.17,18.22-.48,27.3.33,7.51.68,11.65,6.12,10.79,13.6C604.69,493.41,603.72,495,600.65,497.78Z" transform="translate(-312.93 -404)"/><path class="cls-2" d="M555.77,501.17a26.12,26.12,0,0,1-52.24-.13c-.09-14.28,11.74-25.89,26.35-25.85A26,26,0,0,1,555.77,501.17Z" transform="translate(-312.93 -404)"/><path class="cls-2" d="M360.67,526.85a25.83,25.83,0,1,1,.17-51.66A26.11,26.11,0,0,1,387,501.27C387,515.37,375.14,526.86,360.67,526.85Z" transform="translate(-312.93 -404)"/><path class="cls-2" d="M641.46,526.85a25.93,25.93,0,0,1-25.87-26c0-14.18,11.79-25.67,26.25-25.66a26,26,0,0,1,26,26.2C667.82,515.48,656,526.87,641.46,526.85Z" transform="translate(-312.93 -404)"/><path class="cls-2" d="M448.51,496.12c3.52,0,7,.06,10.56,0,1.44,0,2,.35,2.16,1.92,1,10.58-3.08,18.86-11.81,24.53s-18.14,6-27.22.78S408.56,510,409.14,499.46c.59-10.73,6.36-18.24,16-22.29s18.75-2.32,27,4.11c1.8,1.4,2.49,2.64.15,4.15a9.92,9.92,0,0,0-1.95,1.77c-2.81,3.19-5.14,4.94-9.95,2-6.12-3.71-13.75-.56-17,5.6A13.06,13.06,0,0,0,428,512.08c5.72,3.64,13.77,2.35,17.72-2.87.51-.69,1.43-1.42,1.12-2.26-.38-1-1.55-.47-2.35-.5a58,58,0,0,0-6.46,0c-1.89.14-2.38-.63-2.23-2.37.21-2.51-1-5.74.46-7.38s4.79-.44,7.29-.57C445.18,496.05,446.84,496.12,448.51,496.12Z" transform="translate(-312.93 -404)"/><path class="cls-2" d="M487.4,525.55c-5.67,0-11.35-.06-17,0-1.73,0-2.4-.4-2.39-2.27q.11-22.3,0-44.61c0-1.68.52-2.24,2.18-2.18,2.83.11,5.68.15,8.51,0,2-.11,2.42.69,2.41,2.54-.07,11.06,0,22.11-.09,33.17,0,2.44.62,3.17,3.07,3.07,4.88-.19,9.78,0,14.67-.09A3.1,3.1,0,0,1,502,517c1.15,2.26,2.46,4.45,3.8,6.61.92,1.48.71,2-1.11,2C499,525.5,493.17,525.55,487.4,525.55Z" transform="translate(-312.93 -404)"/><path class="cls-3" d="M585.2,503.94c1.37,0,2.74,0,4.1,0a5.72,5.72,0,0,1,5.6,5,5.38,5.38,0,0,1-4.62,5.84c-3.47.37-7,.18-10.52.23-1.34,0-1.24-1-1.24-1.83,0-2.44.09-4.88,0-7.31-.08-1.61.56-2,2-1.93S583.64,503.94,585.2,503.94Z" transform="translate(-312.93 -404)"/><path class="cls-4" d="M583.81,493.24h-1.17c-3.93,0-5.28-1.92-4.12-5.73.27-.9.83-1,1.53-1,2.54,0,5.09-.06,7.62,0,2.12.07,3.72,1.18,3.7,3.34s-1.63,3.22-3.75,3.32c-1.27,0-2.54,0-3.81,0Z" transform="translate(-312.93 -404)"/><path class="cls-5" d="M529.82,488A13.3,13.3,0,0,1,543,501.24a13.14,13.14,0,0,1-13.21,12.87c-7.55,0-13.41-5.65-13.43-12.92A13.23,13.23,0,0,1,529.82,488Z" transform="translate(-312.93 -404)"/><path class="cls-5" d="M374.12,501.13a13.11,13.11,0,0,1-13.09,13c-7.63,0-13.42-5.46-13.45-12.82A13,13,0,0,1,360.87,488,13.25,13.25,0,0,1,374.12,501.13Z" transform="translate(-312.93 -404)"/><path class="cls-5" d="M641.61,488A13.23,13.23,0,0,1,655,501a13.08,13.08,0,0,1-13.22,13.14c-7.6,0-13.33-5.58-13.32-13A13,13,0,0,1,641.61,488Z" transform="translate(-312.93 -404)"/></svg>