<svg id="Camada_1" data-name="Camada 1" xmlns="http://www.w3.org/2000/svg" width="325.69" height="361" viewBox="0 0 325.69 361"><defs><style>.cls-1{fill:#fff;stroke:#fff;stroke-miterlimit:10;}</style></defs><title>S Branco</title><path class="cls-1" d="M622.94,324.06a179.45,179.45,0,0,1,110.7-52.53q-9.28-.81-18.8-.81a215.81,215.81,0,0,0-171.39,84.52h0a214.83,214.83,0,0,0-43.86,113.47H570a179.44,179.44,0,0,1-51.21,108.65h0A179.45,179.45,0,0,1,408,629.91q9.29.81,18.8.81a216,216,0,0,0,215.25-198H571.73A179.47,179.47,0,0,1,622.94,324.06Z" transform="translate(-408 -270.22)"/></svg>