<svg id="Camada_1" data-name="Camada 1" xmlns="http://www.w3.org/2000/svg" width="24.97" height="27.68" viewBox="0 0 24.97 27.68">
  <defs>
    <style>
      .cls-1 {
        fill: #fff;
        stroke: #fff;
        stroke-miterlimit: 10;
        stroke-width: 0.08px;
      }
    </style>
  </defs>
  <title>raio</title>
  <path class="cls-1" d="M166.82,170.79a13.74,13.74,0,0,1,8.48-4q-.7-.06-1.44-.06a16.54,16.54,0,0,0-13.14,6.48h0a16.55,16.55,0,0,0-3.36,8.7h5.4a13.79,13.79,0,0,1-3.93,8.33h0a13.79,13.79,0,0,1-8.49,4q.71.06,1.44.06a16.56,16.56,0,0,0,16.5-15.18h-5.39A13.71,13.71,0,0,1,166.82,170.79Z" transform="translate(-150.33 -166.66)"/>
</svg>
