<svg id="Capa_1" data-name="Capa 1" xmlns="http://www.w3.org/2000/svg" width="64.24" height="64.24" viewBox="0 0 64.24 64.24">
  <title>relogio</title>
  <g>
    <path d="M256,253.18a2.24,2.24,0,0,0-.52,0l-8.61-14.92a.94.94,0,0,0-1.28-.35,1,1,0,0,0-.35,1.29l8.62,14.92a2.76,2.76,0,0,0-.68,1.83,2.82,2.82,0,0,0,1.88,2.66v21a.94.94,0,0,0,1.88,0v-21a2.82,2.82,0,0,0-.94-5.48Zm0,3.76a.94.94,0,1,1,.94-.94A.94.94,0,0,1,256,256.94Z" transform="translate(-223.88 -223.88)"/>
    <path d="M278.71,233.29A32.11,32.11,0,1,0,288.12,256,31.88,31.88,0,0,0,278.71,233.29Zm-22.71,53A30.24,30.24,0,1,1,286.24,256,30.28,30.28,0,0,1,256,286.24Z" transform="translate(-223.88 -223.88)"/>
    <circle cx="32.12" cy="8.47" r="0.94"/>
    <circle cx="20.29" cy="11.64" r="0.94"/>
    <circle cx="11.64" cy="20.29" r="0.94"/>
    <circle cx="8.47" cy="32.12" r="0.94"/>
    <circle cx="11.64" cy="43.95" r="0.94"/>
    <circle cx="20.29" cy="52.6" r="0.94"/>
    <circle cx="43.95" cy="52.6" r="0.94"/>
    <circle cx="52.6" cy="43.95" r="0.94"/>
    <circle cx="55.77" cy="32.12" r="0.94"/>
    <circle cx="52.6" cy="20.29" r="0.94"/>
    <circle cx="43.95" cy="11.64" r="0.94"/>
    <path d="M276.05,236a28.35,28.35,0,0,0-38.68-1.33.94.94,0,1,0,1.24,1.42,26.46,26.46,0,1,1-2.57,2.57.94.94,0,1,0-1.42-1.24A28.36,28.36,0,1,0,276.05,236Z" transform="translate(-223.88 -223.88)"/>
  </g>
</svg>
